<svg width="440" height="416" viewBox="0 0 440 416" fill="none" xmlns="http://www.w3.org/2000/svg">
<path d="M376.144 77.8559L376.253 77.5761C375.417 66.7215 378.989 56.4644 382.122 46.2441C383.718 41.056 385.166 35.7769 385.724 30.362C386.205 25.6822 386.023 20.9108 385.24 16.2701C384.339 10.9795 382.627 5.83209 380.192 1.07498C379.857 0.40134 378.959 0.229269 378.466 0.852705C369.839 11.6443 362.767 24.5183 362.65 38.6726C362.604 45.2549 364.236 51.6001 366.43 57.7696C368.635 63.9594 371.412 69.9415 373.217 76.2815C374.634 81.2468 375.657 86.467 375.458 91.6344C375.215 94.3344 374.712 96.9817 373.852 99.5506C371.448 103.268 369.235 107.106 367.25 111.056C364.024 117.456 361.485 124.178 359.735 131.094C356.775 123.619 355.974 115.711 355.774 107.74L355.778 107.724L355.932 107.405L355.941 107.373C360.969 97.1282 365.319 85.1216 362.683 73.613C360.362 63.4939 352.756 55.6678 344.084 50.4755C338.372 47.0554 332.169 44.5686 325.968 42.2025C324.94 41.8069 324.236 43.0264 324.69 43.7664C324.522 43.9447 324.489 44.262 324.708 44.4065C324.943 44.5554 325.177 44.7041 325.412 44.853C325.477 45.0593 325.651 45.2433 325.931 45.3526C326.135 45.4245 326.335 45.5124 326.534 45.6002C327.712 46.3967 328.841 47.2487 329.829 48.3036C331.327 49.8901 332.559 51.7659 333.548 53.7141C335.776 58.0895 336.665 62.9131 337.333 67.729C338.014 72.6859 338.554 77.6565 339.917 82.5042C341.143 86.9029 342.879 91.1292 345.065 95.1497C347.516 99.6536 350.54 103.813 353.994 107.589C354.046 109.252 354.131 110.924 354.252 112.587C354.776 119.477 356.129 126.349 359.419 132.468C358.54 136.131 357.859 139.83 357.433 143.597C356.731 149.746 356.639 155.921 356.994 162.096C353.32 146.771 348.459 131.455 337.89 119.434C334.715 115.835 331.119 112.656 327.079 110.045C326.494 109.665 325.504 109.897 325.47 110.73C325.451 111.12 325.465 111.518 325.462 111.913L325.459 112.118C325.221 129.674 332.453 147.035 344.823 159.452C348.368 163.013 352.299 166.161 356.572 168.801C356.823 168.954 357.072 168.986 357.301 168.962C357.377 169.257 357.457 169.536 357.532 169.831L357.724 170.14C358.008 172.414 358.308 174.693 358.696 176.961C360.391 186.981 363.038 196.844 366.45 206.414C366.622 207.954 366.757 209.502 366.739 211.043C365.654 208.107 364.314 205.223 362.895 202.507C360.525 197.957 357.793 193.601 354.679 189.52C348.427 181.319 340.81 174.177 332.272 168.419C323.729 162.678 314.24 158.486 304.276 155.935C301.928 155.341 299.504 154.708 297.071 155.138C294.387 155.604 292.88 157.639 291.959 160.053C290.15 164.755 289.383 169.925 289.432 174.936C289.512 185.021 292.864 195.073 299.116 203.017C299.679 203.735 300.304 204.417 300.912 205.096C299.608 205.347 298.308 205.583 297.028 205.875C289.729 207.543 282.577 210.074 276.229 214.091C273.126 216.059 269.654 218.443 268.302 222.013C267.023 225.38 268.205 228.788 270.161 231.614C272.279 234.671 275.123 237.323 277.865 239.844C280.869 242.607 284.085 245.152 287.508 247.374C293.781 251.46 300.917 254.437 308.277 255.809C308.056 255.801 307.831 255.809 307.614 255.785C303.654 255.566 299.709 254.972 295.838 254.038C288.192 252.194 280.83 248.968 274.331 244.512C269.891 241.468 265.976 237.877 262.323 234.013C258.605 227.057 257.351 219.113 254.212 211.917C251.043 204.645 245.519 198.854 238.201 195.656C234.159 193.886 229.8 193.043 225.392 193.15C224.945 193.151 224.549 193.732 224.647 194.136C228.187 208.102 237.18 220.301 249.282 228.079C252.462 230.116 255.85 231.831 259.384 233.19C263.114 237.47 267.155 241.49 271.705 244.891C278.091 249.642 285.386 253.246 293.035 255.399C297.332 256.602 301.72 257.4 306.16 257.749C309.56 258.007 313.096 258.079 316.529 257.763C314.274 258.618 312 259.348 309.61 259.807C306.062 260.487 302.433 260.7 298.81 260.57C291.021 260.286 283.481 258.368 276.145 255.818C275.844 255.72 275.565 255.611 275.269 255.497C275.128 254.996 274.629 254.553 273.99 254.76C269.05 252.302 264.713 249.131 260.585 245.5C256.275 241.717 252.081 237.759 247.055 234.918C236.807 229.132 224.296 228.011 213.197 231.941C207.923 233.807 202.861 236.744 199.002 240.827L198.647 240.87C198.611 240.877 198.607 240.893 198.57 240.901C198.554 240.896 198.554 240.896 198.534 240.908C198.324 240.921 198.115 240.933 197.894 240.925C197.495 240.939 197.057 241.165 196.89 241.532C196.802 241.732 196.821 242.046 196.983 242.21L197.134 242.353L197.489 242.5L197.649 242.543C197.665 242.547 197.686 242.535 197.718 242.544C197.748 242.689 197.834 242.816 198.035 242.835C200.838 242.882 203.635 242.893 206.418 243.21C209.153 243.514 211.844 244.046 214.508 244.743C219.804 246.128 224.954 248.058 230.05 250.059C239.364 253.689 248.844 257.534 258.916 258.396C264.119 258.846 269.342 258.391 274.286 256.728C281.72 259.236 289.287 261.247 297.238 261.695C301.266 261.915 305.313 261.746 309.288 261.009C311.315 260.624 313.375 260.112 315.355 259.389L315.251 259.584C314.866 260.7 314.53 261.829 314.225 262.967C308.677 268.933 302.341 274.122 295.452 278.493C294.709 277.933 293.961 277.389 293.169 276.885C287.702 273.256 281.552 270.697 275.095 269.482C272.102 268.92 268.7 268.352 265.69 269.074C264.074 269.465 262.699 270.367 261.87 271.605C261.854 271.6 261.826 271.576 261.81 271.571C261.716 270.894 260.965 270.624 260.47 270.869C257.164 269.107 253.593 267.755 250.021 266.729C245.353 265.375 240.535 264.513 235.692 264.194C230.732 263.86 225.743 264.086 220.829 264.864C218.409 265.246 216.018 265.773 213.661 266.429C211.397 267.059 209.052 267.736 206.946 268.803C204.962 269.8 202.917 271.278 202.1 273.429C201.384 275.333 201.785 277.363 202.944 278.997C204.104 280.63 205.859 281.77 207.602 282.701C209.835 283.917 212.163 284.971 214.504 285.976C224.235 290.164 234.577 292.97 245.084 294.326C245.899 294.425 246.719 294.507 247.538 294.589C242.482 295.192 237.387 295.492 232.291 295.157C226.218 294.749 220.209 293.653 214.398 291.821C208.602 289.993 203.044 287.473 197.904 284.223C192.541 280.845 187.781 276.753 183.284 272.319C180.977 270.035 178.71 267.727 176.407 265.427C175.212 264.248 174.025 263.037 172.78 261.913C171.968 261.163 171.014 260.495 169.946 260.123C167.869 259.412 166.127 260.405 165.597 262.255C163.358 255.867 161.651 249.227 159.79 242.838C157.664 235.519 155.199 228.246 151.334 221.646C149.742 218.935 147.501 214.608 143.891 214.43C140.361 214.274 138.566 217.898 137.273 220.608C134.375 226.684 132.727 233.283 132.257 239.975C131.501 238.244 130.592 236.575 129.585 234.949C127.167 231.089 124.086 227.653 120.532 224.829C118.789 223.451 116.935 222.233 114.989 221.162C113.283 220.224 111.159 218.985 109.153 219.615C106.758 220.347 106.356 223.451 105.862 225.551C105.26 228.12 104.854 230.725 104.633 233.345C104.39 236.302 104.465 239.293 104.737 242.251C104.873 243.73 105.078 245.211 105.355 246.676C105.62 248.121 105.834 249.758 106.533 251.062C104.837 251.621 103.138 252.196 101.457 252.827C99.3559 253.621 97.2435 254.583 95.4895 256.002C93.8211 257.358 92.5518 259.148 92.1818 261.298C91.788 263.666 92.6411 266.058 93.6601 268.152C96.0095 272.972 99.1169 277.463 102.753 281.391C104.579 283.357 106.523 285.201 108.591 286.906C109.337 287.518 110.104 288.118 110.89 288.707C104.505 287.03 98.4207 284.42 92.3697 281.751C87.9762 279.818 83.5506 277.876 79.0017 276.331L78.7348 276.173L78.6999 275.855C77.8282 273.852 77.1647 271.905 76.8509 269.743C76.5372 267.581 76.4649 265.415 76.2761 263.235C75.8752 258.834 74.7283 254.525 72.8845 250.51C69.054 242.116 62.4095 235.252 54.1003 231.205C51.642 229.996 49.0424 229.059 46.3901 228.383C44.2548 227.827 41.8898 227.297 39.6246 227.291C39.3725 227.206 39.1408 227.109 38.8844 227.041C38.2158 226.844 37.2867 227.299 37.4898 228.144C41.3772 244.659 50.6584 261.04 64.9416 270.673C66.8751 271.981 68.8996 273.142 70.9991 274.151L71.0429 274.18C70.5216 274.075 70.0206 273.958 69.495 273.869C68.9053 273.762 68.323 273.692 67.7248 273.617C67.4727 273.533 67.2046 273.444 66.9526 273.359C63.8915 272.35 60.8089 271.42 57.6673 270.647C52.0091 269.268 46.2242 268.49 40.377 268.778C34.9285 269.052 29.5077 270.313 24.6261 272.766C20.0204 275.086 15.9425 278.321 12.2766 281.941C8.0502 286.115 4.39599 290.717 0.899717 295.499C0.632181 295.857 1.01299 296.422 1.44704 296.213L1.46305 296.217L1.54947 296.343C1.54573 296.806 1.81552 297.273 2.42238 297.315C12.4994 298.161 22.8671 298.948 32.6304 295.708C37.061 294.234 41.0876 291.895 44.5403 288.751C48.1524 285.46 51.2278 281.544 55.2464 278.723C57.8278 276.907 60.9932 275.54 64.1583 275.392C65.1348 275.465 66.091 275.549 67.0589 275.654C69.7269 276.593 72.3734 277.611 75.123 278.245C79.2236 279.413 83.3059 280.713 87.2972 282.16C88.3011 282.515 89.2965 282.902 90.2716 283.301L90.1071 283.274C87.0336 282.759 83.8978 282.606 80.7722 282.799C74.5051 283.18 68.2908 284.966 62.8187 288.085C61.3197 288.937 59.8719 289.854 58.4784 290.889C57.1256 291.9 55.5974 293.054 54.6641 294.487L54.6211 294.647L54.2952 294.645C53.9287 294.667 53.9101 295.057 54.0958 295.262C53.8626 295.491 54.1485 295.963 54.4692 295.791C54.6317 295.697 54.8059 295.624 54.9845 295.534C57.6144 296.102 60.4127 296.233 63.0816 296.399C65.9556 296.568 68.848 296.605 71.7203 296.396C77.5334 295.979 83.0818 294.306 88.4034 292.005C91.2973 290.755 94.1453 289.354 96.9496 287.924C97.2669 287.958 97.5682 287.987 97.8812 288.037C99.9527 288.317 102.003 288.678 104.039 289.155C105.073 289.397 106.102 289.656 107.108 289.943C108.177 290.247 109.16 290.424 110.244 290.543C110.509 290.58 110.729 290.398 110.858 290.175C111.383 290.264 111.893 290.349 112.423 290.423C103.278 292.059 94.6909 297.125 88.3151 303.746C85.1742 307.009 81.0831 312.473 84.5976 316.918C86.1734 318.92 88.7218 319.792 91.106 320.38C94.083 321.126 97.1362 321.652 100.193 321.973C106.595 322.625 113.071 322.299 119.369 321.033L119.328 321.057C116.936 322.614 114.647 324.302 112.444 326.115C108.062 329.715 104.09 333.837 100.611 338.298C99.069 340.271 97.3897 342.758 97.9529 345.399C98.4344 347.641 100.318 349.073 102.398 349.768C104.795 350.565 107.401 350.645 109.903 350.663C112.611 350.684 115.322 350.501 118.008 350.087C129.307 348.359 139.258 342.816 147.493 335.028C156.135 326.869 163.072 317.067 171.837 309.026C172.793 308.148 173.777 307.296 174.789 306.468C170.138 311.713 166.603 317.858 163.229 323.978C159.988 329.859 156.611 335.669 153.108 341.376C139.765 351.694 126.114 362.461 117.524 377.281C115.229 381.234 113.206 385.449 112.278 389.94L112.315 390.122C112.038 390.323 112.272 390.797 112.618 390.787C112.98 390.781 113.335 390.739 113.685 390.713L113.99 390.794L114.173 390.689C117.909 390.333 121.603 389.108 125.047 387.661C128.998 385.989 132.765 383.787 136.16 381.177C143.53 375.527 149.188 367.804 152.46 359.115C154.405 353.969 155.502 348.527 155.703 343.033C155.725 342.438 155.325 342.073 154.865 341.933L154.838 341.84C157.335 337.838 159.757 333.798 162.091 329.701C164.073 326.214 166.019 322.665 168.097 319.203C166.767 322.951 165.996 326.918 165.592 330.863C165.086 335.828 165.268 340.857 165.788 345.839C165.598 346.098 165.56 346.431 165.796 346.769C155.912 362.255 165.3 380.417 168.452 396.409C169.397 401.213 169.834 406.122 169.165 410.991C169.055 411.786 170.121 412.484 170.747 411.879C171.499 411.188 172.115 410.426 172.704 409.639C173.925 408.352 175.003 406.889 175.993 405.437C177.384 403.388 178.592 401.187 179.611 398.919C181.706 394.242 183.01 389.182 183.429 384.091C184.222 374.72 181.887 365.422 177.171 357.322C175.904 355.128 174.454 353.039 172.834 351.077C171.327 349.264 169.62 347.175 167.631 345.818C167.241 342.21 167.028 338.581 167.134 334.917C167.352 327.436 168.92 320.3 171.807 313.431C173.201 311.435 174.694 309.516 176.329 307.705C179.109 304.637 182.366 301.904 186.008 299.909C187.819 298.917 189.724 298.088 191.706 297.486C191.876 297.429 192.037 297.403 192.207 297.346C193.033 297.275 193.855 297.221 194.677 297.166C196.671 297.031 198.696 296.972 200.678 296.559C200.949 296.511 201.121 296.317 201.197 296.097C202.987 296.147 204.795 296.254 206.567 296.437C208.423 296.625 210.278 296.814 212.12 297.118C212.317 297.154 212.419 297.027 212.458 296.882C216.489 297.156 220.544 297.212 224.552 297.187C219.188 297.913 213.845 298.886 208.59 300.294C203.393 301.683 198.263 303.588 193.832 306.729C191.731 308.226 189.66 310.059 188.65 312.484C187.686 314.802 188.115 317.304 189.892 319.068C191.641 320.808 194.11 321.59 196.395 322.357C197.923 322.869 199.469 323.318 201.019 323.751C200.262 324.011 199.52 324.345 198.809 324.755C195.855 326.488 193.825 329.259 192.725 332.467C191.346 336.46 191.354 340.79 191.389 344.955C191.416 349.342 191.447 353.712 191.478 358.083C191.523 362.337 191.46 366.613 191.61 370.861C191.732 374.123 192.229 377.587 194.342 380.215C196.659 383.103 200.331 384.396 203.805 385.275C207.198 386.133 210.696 386.538 214.214 386.485C221.937 386.374 229.511 384.127 236.018 379.964C236.136 381.129 236.273 382.282 236.411 383.435C236.884 387.374 237.328 391.358 238.072 395.249C238.693 398.507 239.852 401.874 242.663 403.881C248.631 408.143 257.313 404.837 262.924 401.584C267.052 399.186 270.77 396.078 274.055 392.597L274.059 392.581C275.788 390.743 277.406 388.806 278.892 386.783C285.447 377.892 289.668 367.328 291.123 356.383C293.922 369.911 300.157 382.728 309.362 393.112C312.197 396.31 316.039 400.174 320.708 399.862C326.004 399.513 327.387 393.392 328.342 389.183C330.735 378.712 330.089 367.599 326.594 357.44C322.979 346.957 315.103 337.96 313.342 326.84C314.602 321.047 314.812 315.006 313.91 309.08C313.117 303.836 311.373 298.869 308.911 294.276C308.785 293.916 308.646 293.535 308.463 293.194C308.397 293.056 308.297 292.978 308.174 292.928C306.339 289.774 304.16 286.82 301.662 284.158C303.862 281.331 305.856 278.31 307.873 275.33C308.352 275.081 308.73 274.632 309.123 274.257C309.826 273.552 310.487 272.819 311.147 272.086C311.594 271.57 312.009 271.046 312.412 270.501C312.303 271.743 312.242 272.997 312.233 274.249C311.853 279.385 312.007 284.578 312.546 289.617C313.658 299.893 316.31 309.929 319.578 319.718C320.175 321.527 320.804 323.345 321.454 325.15C322.071 336.564 325.338 347.641 328.794 358.459C332.525 370.107 336.442 381.77 337.935 393.952C338.54 398.94 338.613 403.923 338.24 408.906C337.902 410.55 337.521 412.165 337.055 413.775C336.923 414.203 337.353 414.524 337.668 414.437C337.688 414.683 337.883 414.787 338.097 414.758C338.153 415.254 338.879 415.174 338.967 414.717C339.623 411.372 340.318 408.072 341.294 404.813C342.282 401.574 343.473 398.407 344.653 395.22C346.95 389.018 349.318 382.68 349.844 376.037C350.889 362.904 343.388 351.929 335.781 341.991C332.816 338.122 329.783 334.252 327.181 330.12C332.524 334.918 339.74 337.728 346.613 340.274C346.759 341.91 347.583 343.642 348.145 345.133C348.789 346.833 349.489 348.515 350.25 350.162C351.748 353.414 353.534 356.555 355.541 359.514C357.61 362.559 359.952 365.419 362.527 368.05C365.237 370.82 368.373 373.154 371.062 375.936C372.581 377.511 373.936 379.248 374.803 381.267C375.675 383.269 375.786 385.291 375.794 387.44C375.796 387.818 376.263 387.995 376.463 387.636C376.804 387.9 377.323 387.884 377.534 387.357C377.676 387.017 377.786 386.669 377.913 386.325L377.938 386.297C378.991 383.969 379.688 381.494 380.349 379.026C380.993 376.623 381.513 374.169 381.848 371.7C382.421 367.508 382.377 363.186 381.336 359.06C380.309 355.007 378.319 351.347 375.326 348.416C372.306 345.46 368.531 343.332 364.568 341.909C361.876 340.93 359.071 340.247 356.28 339.705C353.44 339.15 350.43 338.463 347.527 338.338C347.254 338.333 347.027 338.41 346.872 338.54C343.628 337.379 340.389 336.201 337.263 334.728C332.477 332.467 327.739 329.445 324.405 325.288C324.393 325.268 324.393 325.268 324.382 325.248C321.606 316.57 318.912 307.845 317.098 298.909C315.771 292.388 314.762 285.643 314.553 278.923C314.573 278.397 314.562 277.861 314.583 277.335C314.807 272.844 315.485 268.457 316.511 264.112C316.743 263.694 316.932 263.246 317.148 262.823C317.461 262.426 317.773 262.029 318.086 261.632C318.685 260.934 319.256 260.211 319.823 259.504C317.61 270.074 318.064 281.393 320.149 291.878C321.333 297.846 323.13 303.703 325.547 309.296C327.599 314.071 330.712 320.401 336.794 320.262C342.34 320.135 346.479 314.683 349.711 310.827C353.854 305.875 357.472 300.507 360.581 294.866C362.963 290.524 365.014 286.008 366.722 281.365C369.848 284.95 373.749 287.954 377.784 290.392C382.632 293.323 387.96 295.42 393.492 296.628C399.041 297.841 404.802 298.131 410.465 297.502C413.295 297.196 416.089 296.639 418.834 295.881C421.34 295.179 424.048 294.428 426.183 292.87C431.157 289.24 428.987 282.596 427.455 277.737C425.843 272.6 423.705 267.63 421.125 262.903C418.947 258.919 416.464 255.111 413.736 251.511C416.734 252.435 420.383 251.953 423.263 251.523C428.753 250.71 434.154 249.204 439.314 247.186C444.458 245.165 449.538 242.611 454.038 239.403C456.266 237.819 458.395 235.831 459.369 233.224C460.291 230.74 460.083 228.057 459.251 225.584C455.939 215.577 445.033 210.387 435.566 207.97C428.751 206.23 421.668 205.362 414.597 205.218C417.467 199.633 419.013 193.35 419.801 187.138C420.625 180.73 420.565 174.222 419.807 167.819C419.136 162.247 417.908 156.766 416.293 151.387C415.828 149.339 415.275 147.301 414.552 145.321C413.994 143.815 413.354 142.356 412.642 140.911C411.618 138.387 410.477 135.917 408.888 133.705C407.386 131.62 405.418 129.735 402.967 128.821C402.155 128.517 401.325 128.347 400.501 128.28C400.223 128.103 399.889 128.065 399.601 128.245C398.108 128.24 396.63 128.565 395.213 129.113C392.657 130.128 390.431 131.833 388.385 133.637C386.139 135.611 384.067 137.769 382.149 140.055C374.307 149.459 369.449 161.055 367.14 173.007C365.889 179.473 365.376 186.067 365.414 192.655C365.431 194.772 365.5 196.886 365.621 198.996C363.933 192.928 362.394 186.814 361.259 180.602C359.275 169.8 358.386 158.759 359.246 147.793C359.968 138.558 362.055 129.551 365.406 120.952C370.417 115.323 376.693 110.805 383.662 107.933C383.737 108.039 383.856 108.105 384.029 108.1C392.973 107.663 401.117 111.752 409.324 114.707C413.347 116.164 417.503 117.381 421.792 117.654C426.012 117.926 430.253 117.415 434.362 116.438C439.144 115.315 443.759 113.667 448.362 111.998C449.483 111.594 448.864 110.123 447.841 110.158C438.145 110.393 430.097 103.702 421.857 99.5877C417.724 97.5181 413.224 95.9171 408.561 95.8867C404.586 95.8519 400.695 96.8526 397.063 98.4211C392.848 100.245 388.963 102.759 385.21 105.36L384.948 105.633C381.838 106.792 378.841 108.238 375.986 110.049C372.484 112.287 369.32 114.994 366.568 118.087C366.937 117.224 367.305 116.361 367.694 115.486C372.015 106.151 377.693 97.5229 383.989 89.4042C387.309 86.9452 390.893 84.8488 394.679 83.2186C399.781 81.0311 405.136 79.8902 410.538 78.762C415.609 77.7168 420.77 76.5927 425.456 74.2936C430.515 71.8196 434.515 67.9799 437.289 63.0732C440.386 57.6006 441.806 51.4035 442.437 45.2012C442.774 41.8911 442.895 38.5573 442.983 35.2149C443.015 34.0043 443.426 32.0877 442.151 31.3339C441.573 30.9901 440.964 31.0845 440.364 31.3359C435.761 31.5963 431.114 32.7895 426.819 34.3347C422.18 36.0109 417.747 38.3263 413.704 41.1755C405.137 47.1916 398.75 55.4577 394.65 65.0581C392.719 69.5726 391.191 74.3152 389.3 78.8746C388.303 80.0327 387.294 81.1706 386.313 82.3331C383.064 86.2539 379.938 90.2935 377.02 94.4574C377.502 90.6709 377.267 86.9328 376.613 83.2197C376.666 81.4823 376.431 79.6675 376.144 77.8559ZM369.761 61.6163C367.433 55.4969 365.265 49.2312 364.703 42.6748C364.103 35.7475 365.435 28.7884 367.922 22.3277C369.735 17.61 372.159 13.1763 374.965 8.98242C373.615 12.4846 372.545 16.0961 371.659 19.7229C370.061 26.1986 369.189 32.8516 369.029 39.5407C368.864 46.2458 369.431 52.9754 370.721 59.5722C371.447 63.2704 372.344 66.9111 373.195 70.5913C372.083 67.5626 370.894 64.5649 369.761 61.6163ZM373.152 63.5728C371.688 56.8603 370.743 50.064 370.682 43.178C370.633 36.5015 371.32 29.8333 372.677 23.2932C374.1 16.4443 376.458 9.9492 379.093 3.51106C382.872 11.5825 384.564 20.5884 383.779 29.4801C382.834 40.2524 378.325 50.2241 376.097 60.7212C375.338 64.2615 374.859 67.8428 374.896 71.4247C374.337 68.7676 373.717 66.1456 373.152 63.5728ZM353.218 60.291C356.427 63.7615 359.014 67.821 360.391 72.3631C361.95 77.5038 361.821 83.0507 360.848 88.2855C359.791 93.9616 357.681 99.3382 355.731 104.758C355.697 100.781 355.748 96.8107 355.737 92.8751C355.711 86.0501 355.385 79.1274 353.641 72.4947C351.97 66.1047 348.955 60.1789 344.539 55.2515C342.793 53.3067 340.856 51.4995 338.751 49.8705C344.098 52.54 349.104 55.8396 353.218 60.291ZM341.651 82.3161C338.914 72.7895 339.717 62.2886 335.221 53.3037C334.29 51.4571 333.067 49.5493 331.565 47.9103C335.331 49.8812 338.814 52.3261 341.796 55.4266C346.34 60.1308 349.609 65.8154 351.431 72.0913C354.465 82.6248 353.765 93.6346 353.904 104.526C348.2 98.1884 344.004 90.5204 341.651 82.3161ZM230.459 204.813C228.98 201.874 227.776 198.804 226.867 195.658C238.725 204.727 246.696 217.665 255.971 229.133C256.346 229.594 256.725 230.039 257.099 230.5C245.626 225.313 236.144 216.091 230.459 204.813ZM244.273 211.967C239.144 205.663 233.567 199.686 226.964 194.911L226.836 194.877C233.971 195.037 240.966 198.028 246.122 202.948C251.876 208.457 254.162 216.077 256.667 223.395C257.591 226.098 258.613 228.759 259.874 231.295C254.385 225.119 249.481 218.36 244.273 211.967ZM212.293 234.034C217.424 232.06 222.952 231.171 228.446 231.494C234.395 231.851 240.262 233.544 245.471 236.469C250.382 239.227 254.505 243.132 258.7 246.832C260.37 248.293 262.062 249.794 263.854 251.184C259.696 249.589 255.534 248.01 251.309 246.603C243.374 243.978 235.177 242.073 226.87 241.032C222.168 240.442 217.43 240.116 212.691 240.048C208.826 239.991 204.937 240.082 201.091 240.529C204.539 237.915 208.215 235.603 212.293 234.034ZM245.398 253.794C235.39 250.769 225.953 246.058 215.797 243.457C213.337 242.832 210.759 242.261 208.158 241.907C209.365 241.887 210.556 241.863 211.771 241.88C216.024 241.903 220.285 242.152 224.506 242.614C233.021 243.522 241.442 245.229 249.606 247.83C256.838 250.128 263.944 253.029 271.123 255.588C262.654 257.715 253.657 256.3 245.398 253.794ZM67.1536 269.531C63.7978 267.378 60.6904 264.811 57.9017 261.951C52.095 255.998 47.4948 248.875 44.1335 241.294C42.4272 237.47 41.0695 233.5 40.0228 229.458C47.9976 232.574 53.2598 240.047 57.0466 247.451C61.3162 255.808 64.6714 264.951 71.271 271.854C69.8508 271.13 68.4711 270.383 67.1536 269.531ZM75.4649 273.7C63.9651 264.126 61.2165 245.923 51.117 234.905C49.4416 233.082 47.5865 231.417 45.5494 230.046C47.8214 230.604 50.0537 231.374 52.1981 232.343C56.5072 234.271 60.513 237.011 63.8075 240.418C69.7562 246.546 73.5358 254.618 74.4919 263.1C74.7542 265.455 74.8348 267.846 75.2584 270.175C75.5058 271.495 75.8526 272.893 76.4473 274.135C76.112 273.976 75.7927 273.822 75.4649 273.7ZM46.4799 283.947C43.03 287.401 39.5015 290.509 34.9859 292.493C30.6445 294.403 25.9613 295.346 21.2638 295.702C15.7927 296.125 10.2947 295.75 4.83414 295.3C7.62985 293.902 10.2934 292.229 12.9984 290.722C16.4144 288.803 19.8614 286.962 23.367 285.223C30.2605 281.798 37.4516 278.865 44.9417 277.06C49.0907 276.059 53.3462 275.431 57.6108 275.217C53.201 277.127 49.8313 280.603 46.4799 283.947ZM25.1405 281.679C21.0449 283.57 17.0666 285.664 13.131 287.855C10.1459 289.511 7.03998 291.168 4.17529 293.08C10.0107 286.297 15.9851 279.38 23.9076 275.063C33.6209 269.767 44.8816 269.848 55.4453 272.147C56.5797 272.399 57.7056 272.684 58.8314 272.968C47.1824 273.247 35.6589 276.839 25.1405 281.679ZM76.4362 293.985C72.8185 294.732 69.133 294.964 65.4521 294.922C62.6078 294.898 59.7286 294.556 56.8769 294.496C68.143 288.98 80.7486 286.605 93.2276 287.459C87.851 290.157 82.3838 292.745 76.4362 293.985ZM88.3619 285.365C80.6911 285.473 73.0904 286.922 65.8964 289.545C63.1193 290.553 60.4318 291.739 57.8177 293.099C58.1236 292.855 58.4455 292.615 58.7471 292.387C59.9608 291.51 61.2023 290.657 62.4982 289.923C65.0781 288.433 67.8736 287.293 70.7211 286.408C76.4481 284.645 82.6041 284.166 88.5408 285.018C89.2832 285.131 90.0214 285.26 90.7553 285.406C89.9507 285.396 89.1548 285.355 88.3619 285.365ZM113.542 389.644C115.023 386.039 116.504 382.435 118.412 379.03C120.42 375.447 122.786 372.062 125.379 368.859C130.609 362.412 136.918 356.873 143.359 351.678C145.508 349.936 147.693 348.254 149.878 346.573C144.646 354.822 139.119 362.89 133.209 370.717C128.094 377.504 122.543 384.379 115.414 389.132C114.804 389.295 114.173 389.469 113.542 389.644ZM145.158 369.128C140.32 376.161 133.619 381.818 125.909 385.47C123.236 386.729 120.464 387.652 117.666 388.482C123.067 384.795 127.585 380.046 131.686 374.929C137.337 367.873 142.643 360.502 147.69 353.01C149.716 349.999 151.687 346.937 153.625 343.868C153.193 352.854 150.265 361.669 145.158 369.128ZM171.527 408.07C172.324 392.02 162.692 377.331 163.453 361.22C163.646 357.167 164.523 353.125 166.37 349.499C166.439 349.947 166.492 350.39 166.565 350.822C168.651 364.382 173.102 377.51 174.47 391.187C175.024 396.813 174.858 403.329 171.527 408.07ZM170.806 351.529C172.248 353.135 173.575 354.847 174.776 356.646C177.174 360.26 179.002 364.27 180.224 368.428C182.923 377.583 182.398 387.49 178.954 396.373C178.075 398.627 177.029 400.803 175.835 402.887C176.402 400.514 176.632 398.052 176.621 395.593C176.576 388.969 175.194 382.33 173.798 375.876C171.863 366.943 169.471 357.989 168.19 348.922C169.073 349.794 169.968 350.618 170.806 351.529ZM306.879 293.852C305.265 293.591 303.467 293.83 301.907 294.013C299.835 294.248 297.784 294.66 295.758 295.233C293.712 295.819 291.704 296.585 289.773 297.511C288.828 297.961 287.923 298.457 287.024 298.989C286.638 299.212 286.132 299.437 285.676 299.727C284.95 297.18 283.941 294.728 282.544 292.379C286.718 291.093 291.096 290.584 295.464 290.947C299.446 291.276 303.104 292.428 306.82 293.75C306.827 293.786 306.855 293.811 306.879 293.852ZM307.531 295.005C306.903 301.518 305.676 307.955 303.809 314.221C302.078 320.043 299.985 326.06 296.728 331.232C295.26 333.569 293.408 335.803 291.254 337.562C291.127 337.459 291.007 337.393 290.851 337.334C290.125 336.005 289.541 334.595 289.094 333.187C286.963 326.399 287.48 319.084 287.316 312.068C287.233 308.405 286.895 304.794 286.076 301.311C286.571 301.066 287.041 300.659 287.476 300.381C288.387 299.801 289.349 299.286 290.319 298.807C292.14 297.905 294.04 297.16 295.981 296.581C297.963 295.979 300.018 295.551 302.067 295.275C303.808 295.055 305.67 295.159 307.398 294.798C307.461 294.883 307.496 294.944 307.531 295.005ZM190.622 316.791C196.236 313.847 202.174 311.489 208.309 309.87C214.48 308.244 220.793 307.308 227.142 306.623C239.291 305.311 251.62 304.802 263.475 301.574C268.439 300.225 273.242 298.387 277.694 295.87C278.246 296.499 278.68 297.251 278.977 298.069C271.733 305.109 262.515 309.903 252.915 312.981C240.289 317.033 226.906 318.014 213.721 318.516C206.26 318.801 198.476 319.394 191.165 317.52C190.956 317.275 190.779 317.039 190.622 316.791ZM203.704 275.714C206.739 273.934 209.835 272.377 213.197 271.303C216.611 270.226 220.178 269.602 223.736 269.336C231.749 268.718 239.742 270.036 247.498 272.046C251.784 273.161 255.998 274.548 260.247 275.738C261.98 278.95 264.215 281.953 266.717 284.599C266.796 284.689 266.891 284.783 266.974 284.857C266.603 284.706 266.215 284.55 265.839 284.415C261.186 282.619 256.415 281.134 251.595 279.894C241.759 277.378 231.757 276.123 221.604 275.754C215.906 275.549 210.186 275.682 204.508 276.238C204.21 276.261 204.018 276.399 203.898 276.59C203.786 276.303 203.731 275.996 203.704 275.714ZM204.756 278.005C214.666 276.78 224.554 276.665 234.477 277.83C244.416 279 254.219 281.318 263.629 284.716C265.037 285.231 266.42 285.773 267.783 286.327C267.871 286.574 267.98 286.809 268.048 287.068C267.857 287.91 267.558 288.706 267.135 289.451C265.641 289.514 264.14 289.541 262.64 289.5C258.135 289.392 253.649 288.894 249.206 288.235C239.794 286.829 230.58 284.428 221.335 282.208C216.173 280.962 210.984 279.691 205.719 279.088C205.326 278.759 204.958 278.403 204.655 277.995C204.687 278.004 204.719 278.012 204.756 278.005ZM295.418 289.836C290.841 289.485 286.242 289.987 281.838 291.297C280.653 289.502 279.293 287.849 277.757 286.339C278.798 286.429 279.998 286.115 281.001 286.023C282.323 285.897 283.632 285.818 284.968 285.832C287.429 285.874 289.898 286.209 292.304 286.717C297.056 287.698 301.357 289.59 305.613 291.846C305.711 291.993 305.809 292.139 305.907 292.286C302.624 290.822 298.918 290.104 295.418 289.836ZM292.602 285.732C290.016 285.193 287.405 284.94 284.759 284.815C283.574 284.755 282.375 284.743 281.172 284.746C280.001 284.759 278.34 284.674 277.273 285.196C277.095 285.285 277.024 285.421 276.981 285.581C276.791 285.393 276.585 285.2 276.391 285.028C273.901 282.849 271.102 281.309 268.141 279.863C266.576 279.1 264.953 278.236 263.919 276.774C263.546 276.244 263.283 275.624 263.124 274.998C266.091 275.14 269.024 275.154 271.975 275.549C275.058 275.964 278.138 276.583 281.124 277.486C286.969 279.259 292.509 281.912 297.624 285.257C299.554 286.513 301.434 287.893 303.224 289.352C299.869 287.645 296.195 286.489 292.602 285.732ZM205.837 271.597C207.643 270.175 209.873 269.416 212.033 268.724C214.291 267.989 216.594 267.404 218.915 266.945C223.542 266.021 228.256 265.601 232.966 265.713C238.207 265.829 243.454 266.566 248.512 267.939C252.53 269.033 256.338 270.586 260.124 272.287C260.148 272.775 260.208 273.255 260.309 273.711C260.224 273.774 260.138 273.837 260.064 273.92C256.534 272.802 252.929 271.836 249.339 270.943C245.088 269.889 240.773 269.007 236.412 268.491C229.003 267.622 221.472 267.785 214.271 269.856C210.568 270.924 206.872 272.476 203.764 274.785C203.941 273.545 204.773 272.428 205.837 271.597ZM221.332 286.449C216.789 284.819 212.087 283.01 207.895 280.581C207.656 280.448 207.409 280.279 207.158 280.126C211.287 281.061 215.429 281.947 219.54 282.946C224.34 284.13 229.135 285.398 233.936 286.581C242.903 288.813 251.977 290.712 261.236 291.15C262.748 291.212 264.268 291.242 265.797 291.239C265.196 291.817 264.532 292.308 263.781 292.674C263.587 292.759 263.392 292.844 263.186 292.909C248.974 293.394 234.703 291.218 221.332 286.449ZM169.655 262.106C170.757 262.607 171.619 263.491 172.483 264.306C173.687 265.453 174.854 266.608 176.034 267.783C178.214 269.964 180.386 272.178 182.615 274.304C187.007 278.486 191.691 282.352 196.917 285.47C201.817 288.398 207.048 290.796 212.474 292.593C215.895 293.733 219.469 294.623 223.071 295.279C220.737 295.272 218.396 295.228 216.073 295.121C201.618 292.346 187.962 285.371 177.814 274.597C174.233 270.786 171.088 266.629 168.391 262.145C168.332 262.043 168.249 261.97 168.161 261.912C168.59 261.786 169.132 261.88 169.655 262.106ZM143.675 216.519C145.487 216.421 146.838 218.174 147.769 219.506C148.787 220.963 149.719 222.484 150.554 224.047C157.444 236.662 159.43 251.105 164.631 264.383C165.133 265.651 165.692 266.9 166.254 268.133C164.18 264.657 162.309 261.065 160.678 257.347C156.841 248.591 154.676 239.046 149.785 230.762C147.316 226.58 144.164 222.833 140.205 219.986C140.35 219.698 140.484 219.391 140.642 219.124C141.276 217.972 142.233 216.579 143.675 216.519ZM103.829 347.953C102.318 347.565 101.013 346.924 100.343 345.902C106.544 346.087 112.533 342.386 117.677 339.402C123.938 335.774 130.074 331.906 136.109 327.907C147.041 320.687 157.743 313.045 169.029 306.367C164.757 309.687 160.721 313.277 156.737 316.931C151.559 321.709 146.531 326.63 141.183 331.208C135.896 335.75 130.241 340.194 124.074 343.47C120.77 345.229 117.264 346.711 113.593 347.53C110.365 348.297 107.101 348.366 103.829 347.953ZM126.833 316.954L126.715 317.009C119.991 316.597 113.265 314.778 107.012 312.415C106.824 312.347 106.625 312.259 106.425 312.172C106.906 312.3 107.402 312.434 107.871 312.542C111.065 313.312 114.372 313.597 117.668 313.536C124.309 313.427 130.809 311.855 137.104 309.832C143.682 307.714 150.084 305.033 156.662 302.915C161.606 301.32 166.676 300.086 171.815 299.299C171.034 299.588 170.248 299.893 169.478 300.202C162.672 302.98 156.633 307.063 150.283 310.702C147.118 312.516 143.871 314.187 140.415 315.356C136.81 316.571 132.97 317.122 129.168 317.082C128.569 317.076 127.946 317.029 127.351 317.007C127.183 316.928 127.011 316.865 126.833 316.954ZM101.101 307.43C106.766 305.514 112.383 303.584 118.22 302.246C124.383 300.841 130.627 299.904 136.919 299.238C149.943 297.868 163.032 296.894 176.082 295.806C180.458 295.433 184.837 295.113 189.21 294.945C188.693 295.081 188.183 295.254 187.661 295.406C185.649 295.674 183.631 296.026 181.644 296.455C181.221 296.496 180.798 296.538 180.387 296.599C176.991 297.029 173.621 297.688 170.254 298.331C166.888 298.975 163.539 299.743 160.253 300.666C147.179 304.34 134.9 311.199 121.203 312.457C117.508 312.789 113.763 312.73 110.088 312.089C108.282 311.776 106.5 311.316 104.776 310.699C103.944 310.408 103.161 310.06 102.371 309.677C101.754 309.031 101.279 308.302 101.101 307.43ZM104.869 300.351C115.885 296.091 127.581 293.455 139.333 292.345C151.878 291.157 164.525 291.575 177.028 292.917C179.434 293.167 181.823 293.481 184.224 293.815C182.478 293.983 180.713 294.162 178.968 294.33C172.27 294.973 165.557 295.544 158.85 296.22C145.892 297.538 132.861 298.425 120.047 301.002C113.604 302.297 107.068 304.066 101.032 306.725C101.027 306.552 100.981 306.402 100.996 306.217C101.139 303.954 102.672 302.012 104.434 300.372C104.578 300.411 104.715 300.413 104.869 300.351ZM190.841 295.073C190.773 295.072 190.7 295.087 190.632 295.086C190.597 295.025 190.582 294.952 190.526 294.903C190.84 294.884 191.162 294.902 191.476 294.883C191.274 294.932 191.072 294.981 190.866 295.046L190.841 295.073ZM189.075 293.398C185.796 292.88 182.517 292.43 179.224 292.028C172.755 291.239 166.274 290.687 159.763 290.505C147.666 290.148 135.394 290.895 123.523 293.346C118.089 294.466 112.724 295.965 107.502 297.828C118.368 289.062 132.204 284.596 146.042 283.839C162.111 282.959 177.964 287.054 192.683 293.197C191.472 293.233 190.272 293.289 189.075 293.398ZM118.45 249.911C119.515 249.716 120.593 249.541 121.677 249.402C139.062 252.138 151.744 266.27 164.772 276.872C166.987 278.668 169.263 280.428 171.634 282.026C171.346 281.948 171.082 281.843 170.794 281.766C168.738 281.232 166.684 280.888 164.623 280.696C160.443 278.992 156.385 276.96 152.521 274.653C148.178 272.081 144.043 269.187 140.157 265.998C136.149 262.692 132.514 258.952 128.436 255.713C126.24 253.974 123.901 252.385 121.378 251.159C120.472 250.762 119.482 250.29 118.45 249.911ZM166.116 276.854C162.679 274.044 159.435 270.959 156.146 267.982C149.55 262.024 142.792 256.16 134.858 252.059C132.537 250.853 130.127 249.846 127.638 249.076C130.799 249.133 133.926 249.576 136.979 250.618C146.305 253.753 153.244 261.314 159.541 268.514C163.394 272.913 167.362 277.394 171.85 281.156C169.902 279.775 167.978 278.367 166.116 276.854ZM134.644 247.794C134.703 247.638 134.73 247.473 134.713 247.28C134.567 245.197 134.558 243.116 134.669 241.034C138.01 241.895 141.007 243.402 143.747 245.545C146.774 247.902 149.361 250.742 151.733 253.748C155.551 258.601 158.74 263.938 162.472 268.854C162.196 268.539 161.919 268.225 161.659 267.914C155.128 260.308 147.931 252.299 138.228 248.84C137.04 248.402 135.859 248.068 134.644 247.794ZM173.602 280.578C171.944 279.138 170.373 277.566 168.847 275.955C169.786 276.808 170.759 277.601 171.772 278.37C172.359 279.129 172.97 279.859 173.602 280.578ZM139.472 221.438C147.021 226.466 151.155 235.2 154.297 243.409C156.047 247.966 157.55 252.61 159.491 257.098C160.633 259.757 161.929 262.354 163.307 264.904C163.115 264.595 162.887 264.293 162.715 263.973C161.706 262.225 160.88 260.372 159.831 258.649C158.672 256.758 157.768 254.747 156.731 252.786C155.764 250.947 154.756 249.131 153.728 247.327C151.706 243.848 149.542 240.452 147.04 237.291C144.203 233.714 140.939 230.641 137.316 227.884C137.244 227.831 137.169 227.793 137.084 227.788C137.458 226.583 137.869 225.37 138.323 224.187C138.685 223.288 139.07 222.361 139.472 221.438ZM136.773 228.821C143.661 233.174 148.648 240.264 152.802 247.13C153.922 248.976 154.996 250.861 156.055 252.742C157.032 254.481 158.154 256.19 159.013 257.983C159.896 259.817 160.868 261.571 161.95 263.304C163.078 265.118 163.931 267.063 165.084 268.849C166.361 270.875 167.79 272.786 169.308 274.619C169.519 274.984 169.714 275.346 169.946 275.7C160.35 266.585 155.555 253.072 145.115 244.606C142.098 242.149 138.587 240.126 134.843 239.037C135.135 235.577 135.796 232.148 136.773 228.821ZM108.212 247.356C107.96 246.12 107.743 244.877 107.579 243.631C107.236 241.255 107.06 238.838 107.068 236.436C107.073 233.981 107.219 231.513 107.529 229.072C107.677 227.944 107.861 226.808 108.077 225.681C108.302 224.522 108.466 223.14 108.958 222.07C109.91 220.058 112.752 221.885 114.056 222.595C115.874 223.563 117.593 224.711 119.214 225.969C122.455 228.487 125.281 231.528 127.586 234.911C129.459 237.663 130.897 240.693 132.108 243.799C132.1 244.982 132.145 246.162 132.21 247.33C128.208 246.756 124.149 246.904 120.128 247.493C120.112 247.488 120.092 247.5 120.092 247.5C116.227 248.079 112.413 249.048 108.72 250.205C108.663 249.263 108.413 248.337 108.212 247.356ZM101.753 254.864C103.94 254.008 106.182 253.269 108.403 252.542C110.883 251.747 113.434 251.005 116.015 250.409C116.336 250.495 116.644 250.56 116.961 250.662C118.213 251.05 119.425 251.529 120.594 252.1C122.921 253.221 125.078 254.658 127.107 256.25C131.214 259.446 134.86 263.205 138.84 266.556C145.629 272.239 153.144 276.881 161.144 280.605C160.267 280.611 159.402 280.636 158.512 280.69L158.317 280.775C156.955 280.667 155.604 280.58 154.241 280.541C150.226 279.757 146.23 278.841 142.268 277.796C131.761 275.031 121.362 271.54 111.405 267.171C108.577 265.933 105.766 264.63 102.988 263.267C100.362 261.979 97.8029 260.572 95.1683 259.316C95.4327 258.906 95.7612 258.514 96.1378 258.134C97.7166 256.599 99.7724 255.656 101.753 254.864ZM94.8107 260.011C99.2983 262.81 104.21 265.054 109.002 267.231C114.069 269.534 119.211 271.685 124.434 273.6C131.848 276.309 139.423 278.545 147.09 280.376L146.832 280.376C142.079 280.235 137.322 280.042 132.576 279.681C127.726 279.325 122.87 278.797 118.071 277.992C113.469 277.222 108.691 276.405 104.326 274.685C101.376 273.517 98.4868 271.609 96.5665 269.034C95.6484 267.397 94.7561 265.663 94.3842 263.846C94.1176 262.47 94.2601 261.168 94.8107 260.011ZM110.667 285.693C108.841 284.242 107.076 282.687 105.447 281.014C103.145 278.645 101.051 276.075 99.206 273.348C103.46 276.377 109.385 277.724 114.225 278.695C123.801 280.643 133.53 281.568 143.288 282.002C133.931 282.895 124.682 285.431 116.357 289.777L116.272 289.771L116.184 289.782C114.434 288.3 112.47 287.104 110.667 285.693ZM103.656 320.137C100.853 320.021 98.0862 319.709 95.3343 319.212C92.8795 318.76 90.1788 318.328 87.9867 317.088C85.8222 315.872 84.8278 313.751 85.4919 311.336C86.1218 309.049 87.7032 307.12 89.293 305.416C92.5881 301.834 96.5097 298.798 100.766 296.435C104.681 294.256 108.896 292.689 113.225 291.531C112.16 292.173 111.111 292.819 110.081 293.522C107.139 295.533 104.163 297.792 101.809 300.493C99.856 302.717 98.5715 305.653 99.422 308.44C99.2595 308.534 99.1908 308.79 99.3776 308.926C99.4769 309.004 99.5804 309.066 99.6797 309.144C99.8311 309.477 99.9824 309.81 100.206 310.127C101.996 312.805 105.393 313.973 108.285 314.971C112.014 316.246 115.822 317.352 119.708 318.102C120.181 318.194 120.663 318.255 121.124 318.327L121.08 318.366L120.969 318.457L120.831 318.523L120.763 318.522C115.145 319.815 109.393 320.386 103.656 320.137ZM100.249 342.597C101.2 340.138 103.263 338.012 104.958 336.045C106.8 333.911 108.77 331.88 110.846 329.964C114.729 326.367 118.977 323.264 123.349 320.28L123.526 320.258C123.76 320.218 123.935 320.145 124.142 320.011C124.305 319.917 124.404 319.738 124.456 319.546C124.826 319.319 125.18 319.087 125.549 318.86C131.336 319.312 137.124 318.733 142.639 316.605C149.767 313.844 155.909 309.188 162.522 305.464C168.164 302.288 174.227 299.911 180.511 298.315C179.071 299.011 177.682 299.773 176.329 300.526C169.944 304.105 163.758 308.028 157.652 312.042C145.357 320.116 133.553 328.922 120.968 336.54C117.545 338.611 114.102 340.694 110.5 342.408C107.154 344.001 103.73 344.99 100.047 345.274C99.7895 344.569 99.8205 343.684 100.249 342.597ZM125.995 346.045C121.993 347.394 117.795 348.193 113.565 348.467C116.138 347.903 118.651 347.048 120.986 346.025C127.305 343.271 133.168 339.398 138.578 335.164C148.367 327.534 157.126 318.684 166.784 310.9C161.904 315.912 157.451 321.382 152.785 326.554C145.246 334.89 136.807 342.417 125.995 346.045ZM203.532 293.855C200.627 293.351 197.754 292.667 194.952 291.779C192.944 290.88 190.893 290.072 188.854 289.286C188.682 289.222 188.494 289.155 188.322 289.091C181.247 285.632 174.873 280.386 170.984 273.556C169.792 271.468 168.831 269.218 168.182 266.898C167.981 266.174 167.742 265.337 167.614 264.53C172.563 272.022 179.044 278.276 186.332 283.509C193.464 288.615 201.543 292.497 210.028 294.737C208.151 294.56 206.272 294.332 204.414 294.023C204.09 293.953 203.813 293.896 203.532 293.855ZM194.335 308.701C198.475 305.552 203.404 303.627 208.377 302.246C219.174 299.249 230.468 298.309 241.611 297.483C251.195 296.771 260.838 296.161 270.338 294.672C271.483 294.566 272.64 294.413 273.777 294.271C273.793 294.275 273.805 294.296 273.825 294.284C274.443 294.415 275.061 294.478 275.689 294.509C276.161 294.669 276.595 294.906 276.976 295.214C267.846 300.066 257.522 302.194 247.298 303.369C234.741 304.795 221.941 304.817 209.587 307.791C202.816 309.411 196.265 311.88 190.099 315.088C190.103 315.072 190.087 315.068 190.092 315.052C190.016 312.386 192.395 310.173 194.335 308.701ZM194.593 319.658C193.926 319.394 193.211 319.048 192.562 318.65C198.428 320.154 204.624 319.908 210.654 319.772C217.597 319.624 224.561 319.395 231.485 318.744C244.155 317.537 256.836 314.753 268.011 308.423C272.139 306.094 275.975 303.31 279.406 300.056L279.427 300.491C279.442 302.229 278.967 303.94 278.268 305.521C277.895 306.4 277.479 307.25 277.046 308.096C276.871 308.427 276.697 308.758 276.543 309.078C275.425 309.98 274.268 310.838 273.064 311.614C267.409 315.285 261.086 317.798 255.439 321.506C255.312 321.403 255.152 321.36 254.975 321.381C252.707 321.769 250.578 322.538 248.39 323.206C242.2 324.518 235.937 325.329 229.593 325.484C228.137 325.214 226.673 324.976 225.211 324.79C223.718 324.596 222.243 324.459 220.74 324.365C219.49 324.287 217.687 324.096 216.605 324.802C216.584 324.814 216.576 324.846 216.555 324.858C214.423 324.612 212.303 324.319 210.194 323.925C204.919 322.975 199.569 321.662 194.593 319.658ZM243.479 333.653C243.716 333.408 243.954 333.162 244.191 332.917C243.935 333.295 243.712 333.681 243.472 334.064C243.49 333.931 243.476 333.79 243.479 333.653ZM246.971 327.668L247.028 327.649C246.942 327.712 246.868 327.795 246.783 327.858C246.775 327.822 246.768 327.786 246.76 327.749C246.817 327.73 246.894 327.699 246.971 327.668ZM198.112 327.42C199.813 325.815 202.073 324.686 204.397 324.536L204.59 324.587C210.144 325.904 215.816 326.72 221.504 327.025C223.229 327.127 224.959 327.144 226.672 327.157C227.182 327.242 227.7 327.295 228.194 327.376L228.437 327.493C228.79 327.587 229.151 327.649 229.492 327.724C228.668 327.915 227.852 328.074 227.028 328.265C218.747 330.202 210.509 332.494 203.136 336.872C199.523 339.012 196.124 341.639 193.533 344.963C193.502 342.705 193.524 340.444 193.727 338.214C194.111 334.281 195.169 330.203 198.112 327.42ZM193.633 349.782C193.609 348.59 193.589 347.383 193.565 346.191C196.358 343.264 199.436 340.62 202.888 338.506C206.445 336.316 210.312 334.639 214.261 333.293C220.728 331.077 227.428 329.85 234.12 328.586C234.433 328.636 234.762 328.69 235.075 328.739C235.801 328.916 236.517 329.126 237.225 329.367C233.364 330.96 229.562 332.654 225.84 334.559C217.448 338.836 209.532 344.151 202.822 350.802C199.34 354.248 196.158 358.049 193.745 362.314C193.739 362.209 193.753 362.093 193.746 361.988C193.726 357.895 193.698 353.835 193.633 349.782ZM194.022 372.882C193.666 369.66 193.753 366.386 193.747 363.139C193.815 363.14 193.892 363.109 193.93 363.033C196.529 359.23 199.342 355.588 202.603 352.323C205.82 349.098 209.405 346.229 213.162 343.681C221.224 338.199 230.185 334.109 239.246 330.544C239.339 330.517 239.42 330.47 239.513 330.444C240.487 331.168 241.21 332.187 241.11 333.328C237.712 337.037 234.703 341.09 231.989 345.326C228.712 350.442 225.838 355.785 223.04 361.166C220.383 366.276 217.634 371.602 213.343 375.569C209.415 379.205 204.107 381.647 198.691 380.968C198.587 380.906 198.479 380.86 198.392 380.802C195.577 379 194.402 376.143 194.022 372.882ZM217.388 384.124C214.2 384.42 210.983 384.314 207.817 383.826C205.509 383.465 203.051 382.961 200.825 382.038C204.673 382.228 208.462 380.839 211.689 378.664C216.3 375.555 219.466 370.788 222.154 366.012C225.165 360.671 227.908 355.172 231.115 349.935C234.197 344.905 237.605 340.065 241.546 335.677C241.339 336.704 241.005 337.696 240.686 338.693C240.517 339.197 240.4 339.698 240.278 340.215C237.763 346.015 236.281 352.316 235.701 358.583C235.108 364.899 235.328 371.26 235.902 377.58L235.594 377.703C230.185 381.354 223.868 383.525 217.388 384.124ZM240.445 395.49C239.671 391.779 239.277 387.93 238.809 384.164C237.804 376.183 237.147 368.124 237.752 360.095C238.765 346.696 243.76 333.179 254.532 324.766C254.633 324.707 254.731 324.665 254.832 324.606L254.98 324.439C255.457 324.069 255.95 323.703 256.455 323.358C261.286 320.067 266.649 317.675 271.661 314.673C271.777 314.687 271.902 314.669 272.037 314.551C272.266 314.337 272.522 314.148 272.775 313.975L272.795 313.964C274.33 312.915 276.237 312.396 278.09 312.532C276.255 315.664 274.245 318.68 272.159 321.659C267.6 328.165 262.683 334.404 258.056 340.841C249.445 352.856 241.618 366.111 240.4 381.172C239.83 388.301 240.792 395.48 243.938 401.939C241.96 400.413 240.975 398.002 240.445 395.49ZM246.02 403.081C245.72 402.983 245.448 402.842 245.193 402.705C245.194 402.637 245.2 402.552 245.153 402.471C239.5 389.982 241.28 375.518 246.623 363.262C252.566 349.605 262.341 338.245 270.936 326.226C268.377 330.778 265.949 335.417 263.737 340.148C257.629 353.143 252.628 366.744 250.851 381.071C249.939 388.452 249.6 396.192 250.674 403.59C249.063 403.708 247.496 403.597 246.02 403.081ZM251.396 403.526C250.858 396.752 250.756 390.079 251.606 383.317C252.492 376.29 254.073 369.363 256.206 362.619C260.655 348.578 267.504 335.576 274.978 322.93C276.838 319.77 278.782 316.616 280.49 313.381C280.55 313.415 280.585 313.475 280.661 313.513C281.047 313.737 281.46 313.864 281.877 313.908C282.251 314.18 282.596 314.495 282.916 314.839C280.325 322.972 275.681 330.692 272.315 338.256C266.716 350.89 262.725 364.246 260.449 377.873C259.152 385.597 258.402 393.399 258.278 401.232C258.285 401.336 258.316 401.413 258.326 401.502C257.686 401.777 257.029 402.047 256.366 402.282C254.811 402.827 253.106 403.297 251.396 403.526ZM260.261 400.561C260.613 386.813 262.544 373.128 266.235 359.863C268.102 353.15 270.402 346.554 273.116 340.137C275.857 333.624 279.289 327.417 281.981 320.891C282.426 319.808 282.839 318.716 283.219 317.616C281.971 326.058 281.052 334.553 280.535 343.087C280.203 348.493 280.092 353.908 280.013 359.331C279.944 364.653 279.797 370.007 279.053 375.286C278.488 379.256 277.523 383.239 276.068 387.005C273.046 390.849 269.567 394.348 265.636 397.227C263.941 398.49 262.148 399.607 260.261 400.561ZM280.02 381.418C279.396 382.402 278.74 383.376 278.072 384.331C280.464 377.261 281.019 369.613 281.237 362.132C281.386 356.642 281.461 351.166 281.774 345.703C282.092 340.224 282.589 334.776 283.276 329.327C283.727 325.721 284.262 322.121 284.882 318.526C284.933 318.848 284.984 319.171 285.035 319.494C285.095 323.116 285.259 326.733 285.948 330.318C286.57 333.507 287.684 336.656 289.343 339.437C289.248 339.6 289.192 339.808 289.228 340.059C291.028 354.366 287.669 369.214 280.02 381.418ZM312.565 393.335C306.073 386.477 300.975 378.327 297.408 369.591C294.289 361.938 292.402 353.789 291.828 345.547C294.095 352.148 296.75 358.647 299.613 365.013C302.945 372.449 306.636 379.759 310.723 386.813C312.709 390.231 314.806 393.558 317.041 396.819C315.273 395.916 313.664 394.488 312.565 393.335ZM318.235 397.362C314.234 390.502 310.278 383.603 306.735 376.505C303.134 369.306 299.942 361.924 297.12 354.384C295.93 351.197 294.837 347.968 293.761 344.742C294.796 345.621 295.942 346.409 297.194 347.054C297.302 347.1 297.41 347.146 297.514 347.208C298.528 348.167 299.537 349.141 300.506 350.14C303.469 353.183 306.222 356.497 308.634 359.995C313.473 366.993 317.099 374.869 319.368 383.068C320.654 387.689 321.496 392.431 322.092 397.193C322.107 397.266 322.135 397.291 322.174 397.336C320.945 397.951 319.578 397.859 318.235 397.362ZM322.829 396.944C322.454 388.343 320.102 379.813 316.661 371.952C313.205 364.019 308.499 356.524 302.781 350.045C302.296 349.486 301.77 348.95 301.264 348.402C301.524 348.455 301.785 348.507 302.05 348.544C303.146 348.683 303.576 347.528 303.199 346.757C303.372 346.941 303.681 347.006 303.891 346.736C306.54 343.513 308.717 339.941 310.381 336.162C310.541 343.195 313.228 349.96 316.22 356.292C320.001 364.295 324.633 372.131 326.074 380.984C326.479 383.445 326.63 385.959 326.448 388.434C326.339 388.903 326.267 389.365 326.159 389.834C325.594 392.07 325.028 394.889 323.298 396.538C323.151 396.704 322.995 396.834 322.829 396.944ZM322.58 352.552C326.906 361.852 328.614 372.271 327.498 382.464C327.489 382.497 327.485 382.513 327.492 382.549C327.079 378.643 325.985 374.777 324.573 371.136C321.356 362.889 316.469 355.362 313.847 346.88C312.412 342.236 311.694 337.287 312.271 332.444C312.303 332.195 312.222 331.984 312.092 331.829C312.295 331.197 312.499 330.564 312.687 329.928C314.229 338.018 319.123 345.134 322.58 352.552ZM305.897 342.259C305.054 343.613 304.151 344.934 303.176 346.201C303.073 346.328 303.066 346.481 303.105 346.594C302.939 346.378 302.693 346.209 302.343 346.167C300.352 345.908 298.558 345.169 296.957 344.157C295.888 343.149 294.767 342.075 293.554 341.218C292.871 340.434 292.233 339.61 291.665 338.719L291.662 338.41C291.659 338.357 291.64 338.301 291.637 338.248C296.068 335.297 298.82 330.728 300.962 325.875C303.722 319.608 305.764 313.011 307.197 306.319C307.768 303.673 308.211 300.992 308.57 298.306L308.627 298.545C308.941 300.192 309.162 301.866 309.32 303.522C309.636 306.956 309.614 310.436 309.279 313.867C308.592 320.724 306.618 327.391 303.529 333.536C301.764 337.047 299.628 340.407 297.218 343.505C296.983 343.803 297.429 344.128 297.691 343.855C307.212 333.441 311.649 318.864 310.846 304.876C310.795 303.849 310.703 302.845 310.583 301.817C310.979 302.971 311.337 304.131 311.635 305.328C314.663 317.68 312.582 331.411 305.897 342.259ZM302.327 287.445C298.978 284.624 295.346 282.157 291.404 280.139C285.815 277.284 279.782 275.255 273.617 274.1C270.428 273.503 267.076 273.069 263.811 273.138C263.847 272.942 263.798 272.74 263.591 272.615L263.459 272.529L263.517 272.441C265.125 270.159 268.896 270.568 271.27 270.809C277.488 271.445 283.53 273.443 289.004 276.472C294.075 279.274 298.615 283.033 302.327 287.445ZM336.549 378.485C333.509 366.627 329.163 355.158 326.361 343.244C325.538 339.778 324.876 336.286 324.376 332.768C330.081 348.14 336.179 363.393 338.686 379.675C339.512 385.118 339.934 390.658 339.793 396.184C339.27 390.188 338.022 384.203 336.549 378.485ZM343.285 356.161C346.283 361.636 348.359 367.67 348.217 373.969C348.061 380.642 345.869 387.028 343.609 393.223C342.769 395.522 341.934 397.806 341.159 400.123C342.798 384.71 339.312 368.938 334.453 354.257C332.083 347.079 329.349 339.975 326.688 332.856C332.044 340.749 338.682 347.766 343.285 356.161ZM377.106 383.824C376.804 381.683 375.741 379.56 374.638 377.908C372.389 374.574 369.053 372.152 366.117 369.459C360.545 364.359 355.929 358.193 352.55 351.448C351.624 349.585 350.794 347.68 350.079 345.737C349.702 344.708 349.357 343.688 349.036 342.641C348.872 342.099 348.737 341.513 348.578 340.955C349.561 341.322 350.529 341.684 351.497 342.046C357.837 344.467 364.101 347.434 368.772 352.498C372.684 356.741 375.496 362.012 376.879 367.62C378.19 372.918 378.209 378.487 377.106 383.824ZM362.028 342.671C366.051 343.869 369.912 345.677 373.158 348.367C379.702 353.813 381.535 362.29 380.726 370.437C380.547 372.261 380.231 374.083 379.866 375.891C379.855 368.177 377.185 360.386 372.661 354.262C368.742 348.953 363.426 345.209 357.447 342.525C356.189 341.965 354.919 341.452 353.643 340.956C354.009 341.002 354.378 341.033 354.739 341.095C357.195 341.479 359.642 341.962 362.028 342.671ZM400.557 130.253C401.678 130.364 402.766 130.725 403.767 131.285C404.122 132.393 404.502 133.474 404.692 134.624C404.934 136.029 404.999 137.454 404.963 138.87C404.87 141.782 404.199 144.607 403.255 147.36C401.275 153.149 398.634 158.778 396.082 164.329C391.03 175.305 385.402 185.991 379.281 196.406C376.874 200.518 374.368 204.552 371.83 208.577C374.378 198.681 375.985 188.516 378.192 178.545C380.723 167.047 384.061 155.611 389.68 145.216C392.616 139.768 396.281 134.74 400.557 130.253ZM389.458 182.904C392.296 177.31 395.046 171.659 397.624 165.944C400.211 160.197 402.868 154.383 404.863 148.409C405.905 145.288 406.672 142.042 406.695 138.75C406.704 137.242 406.547 135.585 406.147 134.001C407.037 135.167 407.967 136.309 408.772 137.538C409.882 139.227 410.83 141.009 411.692 142.855C411.823 143.199 411.938 143.539 412.069 143.883L411.988 143.93C408.161 147.318 406.058 152.027 404.645 156.852C403.087 162.222 402.089 167.742 400.562 173.12C397.538 183.833 393.212 194.403 385.835 202.902C383.952 205.06 381.902 207.069 379.655 208.854C377.861 210.297 375.928 211.548 374.008 212.819C373.198 213.151 372.383 213.5 371.584 213.853C378.066 203.826 384.053 193.529 389.458 182.904ZM415.713 158.616C416.036 164.524 415.043 170.475 413.471 176.151C411.968 181.57 410.111 186.963 407.84 192.107C405.514 197.392 402.471 202.535 397.97 206.258C391.557 207.184 385.222 208.715 379.087 210.848C381.301 209.312 383.336 207.488 385.189 205.632C388.762 202.038 391.789 197.921 394.289 193.524C397.203 188.415 399.391 182.939 401.183 177.34C402.92 171.88 404.141 166.3 405.493 160.737C406.808 155.319 408.617 149.656 412.751 145.697C412.839 145.944 412.939 146.212 413.028 146.458C413.639 148.151 414.206 149.883 414.74 151.606C415.22 153.916 415.571 156.259 415.713 158.616ZM421.796 292.708C419.529 293.543 417.18 294.167 414.823 294.634C400.244 276.936 385.03 259.051 375.918 237.804C373.951 233.223 372.26 228.511 370.88 223.727C374.36 226.824 377.825 229.917 381.113 233.22C385.303 237.451 389.338 241.813 393.185 246.364C400.93 255.533 407.845 265.423 413.835 275.822C416.951 281.242 419.786 286.811 422.541 292.426C422.278 292.51 422.043 292.619 421.796 292.708ZM295.716 157.437C297.646 155.876 300.414 156.566 302.611 157.086C321.626 161.685 338.942 173.264 351.316 188.293C354.786 192.52 357.937 197.04 360.641 201.817C362.005 204.227 363.279 206.715 364.424 209.237C365.138 210.802 365.795 212.387 366.452 213.971C366.417 214.168 366.345 214.372 366.294 214.564C366.115 214.654 365.92 214.739 365.742 214.828C359.12 205.446 351.327 196.968 342.597 189.494C333.351 181.571 322.777 175.08 311.604 170.247C305.492 167.613 299.186 165.511 292.748 163.837C293.297 161.597 293.926 158.863 295.716 157.437ZM292.555 164.816C304.093 167.771 315.24 172.51 325.47 178.618C335.875 184.841 345.515 192.319 353.803 201.187C357.606 205.263 361.082 209.595 364.252 214.172C362.625 212.808 360.908 211.592 359.107 210.491C352.61 204.937 345.12 200.526 337.377 196.991C328.489 192.925 319.043 190.171 309.361 188.812C304.115 188.076 298.812 187.805 293.523 187.934C292.58 184.916 291.92 181.802 291.614 178.646C291.185 174.032 291.501 169.325 292.555 164.816ZM303.178 204.586C299.019 200.175 295.896 194.907 293.916 189.224C312.889 188.848 332.132 194.005 348.305 203.955C350.384 205.234 352.405 206.6 354.397 208.01C343.991 203.263 331.862 202.193 320.534 202.747C314.751 203.051 308.916 203.617 303.178 204.586ZM274.629 217.819C286.32 209.05 301.498 206.369 315.708 204.991C323.785 204.202 331.968 204.042 340.006 205.32C347.746 206.553 355.065 209.236 361.657 213.476C362.608 214.091 363.514 214.747 364.392 215.445C364.315 215.476 364.234 215.523 364.157 215.554C352.679 211.345 340.09 211.096 328.003 211.79C315.22 212.52 302.447 214.3 289.969 217.224C283.393 218.759 276.761 220.502 270.382 222.777C271.172 220.79 272.865 219.149 274.629 217.819ZM270.088 226.373C269.935 225.662 269.947 224.979 270.018 224.328C275.983 222.509 281.897 220.625 287.957 219.158C294.042 217.663 300.183 216.407 306.372 215.42C312.617 214.415 318.906 213.696 325.211 213.239C331.741 212.774 338.32 212.511 344.864 212.891C350.97 213.239 357.021 214.243 362.811 216.155C352.21 221.111 341.539 225.945 330.427 229.665C318.527 233.637 306.133 236.377 293.532 236.297C286.914 236.258 280.312 235.519 274.189 233.054C272.382 231.144 270.632 228.958 270.088 226.373ZM275.659 234.616C275.58 234.526 275.485 234.432 275.402 234.358C280.175 236.221 285.431 236.857 290.514 237.051C296.766 237.302 302.987 236.839 309.174 235.921C322.018 234.005 334.367 229.896 346.347 224.984C352.578 222.429 358.724 219.68 364.858 216.91C364.998 216.965 365.154 217.024 365.294 217.078C365.287 217.231 365.297 217.388 365.342 217.538C365.247 217.959 365.107 218.351 364.98 218.763C363.387 219.71 361.813 220.714 360.283 221.746C357.641 223.528 355.063 225.396 352.513 227.289C347.488 231.043 342.523 234.899 337.31 238.396C327.324 245.096 316.027 250.535 303.704 249.74C296.935 249.3 290.468 246.966 285.242 242.628C285.059 242.476 284.875 242.65 284.881 242.823C281.603 240.313 278.511 237.561 275.659 234.616ZM293.882 248.516C293.763 248.45 293.627 248.379 293.508 248.312C301.294 251.361 310.465 251.105 318.382 248.796C330.41 245.305 340.619 237.84 350.551 230.507C353.485 228.339 356.438 226.16 359.435 224.078C361.014 222.99 362.608 221.974 364.239 220.952C362.002 226.672 357.893 231.564 353.512 235.8C348.249 240.898 342.52 245.872 336.075 249.417C329.655 252.934 322.5 254.64 315.19 254.364C307.727 254.081 300.484 251.951 293.882 248.516ZM320.514 256.735C320.551 256.66 320.573 256.579 320.578 256.495L320.683 256.489C320.657 256.585 320.647 256.685 320.621 256.781C320.594 256.757 320.562 256.748 320.514 256.735ZM322.034 256.318C325.388 255.912 328.704 255.135 331.949 253.858C339.182 251.022 345.424 246.186 351.191 241.069C355.9 236.887 360.588 232.338 363.893 226.921C361.005 234.562 357.693 242.055 353.79 249.253C348.412 259.198 341.986 268.57 334.747 277.26C330.801 281.99 326.617 286.519 322.203 290.814C320.302 280.859 320.093 270.551 321.561 260.519C321.777 259.135 321.845 257.728 322.034 256.318ZM322.659 292.894C330.912 284.974 338.437 276.24 344.869 266.784C351.329 257.283 356.927 247.157 361.394 236.573C363.045 232.653 364.528 228.654 365.851 224.612C366.567 235.469 363.084 246.162 359.533 256.339C357.394 262.464 355.158 268.631 352.049 274.341C349.101 279.768 345.261 284.681 341.061 289.205C338.672 291.776 336.137 294.188 333.546 296.551C330.964 298.881 328.231 301.069 325.728 303.489C325.683 303.528 325.671 303.577 325.658 303.625C324.651 300.779 323.778 297.883 323.083 294.966C322.946 294.259 322.8 293.585 322.659 292.894ZM334.027 317.512C331.618 316.248 330.048 313.646 328.897 311.276C327.722 308.866 326.69 306.374 325.771 303.844C325.842 303.897 325.938 303.923 326.044 303.848C328.526 301.955 330.864 299.833 333.204 297.764C335.544 295.695 337.837 293.545 340.071 291.361C344.502 287.002 348.58 282.29 351.824 276.977C355.287 271.293 357.74 265.15 360.089 258.944C362.336 253.055 364.52 247.148 366.091 241.026C367.577 235.225 368.385 229.259 367.906 223.291C368.406 225.332 368.855 227.375 369.231 229.434C369.453 238.733 367.417 248.062 364.361 256.843C362.02 263.532 359.131 270.022 356.202 276.467C353.249 282.94 350.307 289.433 347.349 295.922C344.032 303.242 340.703 310.542 337.509 317.912C337.471 317.988 337.486 318.061 337.501 318.133C336.316 318.262 335.14 318.102 334.027 317.512ZM361.847 287.958C359.242 293.58 356.134 298.964 352.517 304.005C350.729 306.514 348.805 308.952 346.774 311.276C345.039 313.267 343.263 315.281 341.049 316.749C340.134 317.345 339.141 317.783 338.119 318.007C344.398 304.955 350.4 291.777 356.431 278.624C362.17 266.114 367.936 253.37 369.885 239.621C370.04 238.529 370.131 237.42 370.222 236.311C370.432 238.154 370.559 239.991 370.664 241.84C370.66 241.856 370.667 241.892 370.663 241.908C370.631 243.823 370.599 245.738 370.635 247.654C370.648 248.825 370.697 249.989 370.729 251.148C370.709 251.675 370.704 252.206 370.667 252.728C370.166 261.456 368.449 270.046 365.655 278.297C365.275 278.367 364.945 278.896 365.236 279.283L365.299 279.369C364.292 282.293 363.146 285.163 361.847 287.958ZM367.473 279.78C369.324 274.471 370.736 269.01 371.674 263.457C372.419 268.946 373.639 274.391 375.58 279.583C376.92 283.17 378.633 286.583 380.789 289.754C380.761 289.73 380.713 289.717 380.681 289.708C375.736 287.078 371.513 283.61 367.473 279.78ZM381.211 289.971C381.466 289.919 381.677 289.58 381.496 289.292C378.028 283.519 375.614 277.084 374.308 270.483C373.324 265.565 372.861 260.564 372.659 255.547C372.904 252.71 373.016 249.855 373.028 246.99C373.901 250.143 374.887 253.258 375.986 256.335C379.368 265.76 383.779 274.808 389.133 283.284C391.775 287.461 394.69 291.454 397.841 295.269C392.024 294.483 386.417 292.654 381.211 289.971ZM398.817 295.342C387.163 279.871 378.479 262.413 374.028 243.514C373.427 240.949 372.879 238.38 372.408 235.781C372.312 234.982 372.213 234.2 372.113 233.418C374.597 239.596 377.595 245.586 380.946 251.345C386.969 261.683 394.042 271.307 401.604 280.581C405.558 285.436 409.704 290.154 413.837 294.851C408.894 295.741 403.817 295.909 398.817 295.342ZM416.514 259.091C419.226 263.39 421.564 267.932 423.46 272.648C424.411 274.998 425.248 277.386 425.967 279.829C426.721 282.401 427.725 285.383 427.088 288.081C426.611 290.117 425.027 291.289 423.263 292.105C418.648 281.508 412.75 271.409 406.316 261.836C399.599 251.844 392.138 242.323 383.876 233.548C379.666 229.071 375.283 224.599 370.611 220.564C371.222 220.848 371.821 221.112 372.427 221.412C372.388 221.813 372.534 222.23 372.969 222.467C376.57 224.411 380.36 226.097 384.102 227.769C397.013 235.729 408.317 246.161 416.514 259.091ZM443.247 243.466C437.941 246.029 432.336 247.978 426.577 249.217C423.807 249.814 420.969 250.41 418.142 250.511C416.165 250.583 414.093 250.371 412.362 249.46C408.89 245.112 405.035 241.039 400.881 237.315C398.998 235.626 397.053 234.04 395.063 232.493C395.699 232.749 396.314 233.017 396.949 233.273C404.958 236.519 413.068 239.517 421.287 242.235C426.005 243.791 430.769 245.171 435.576 246.46C436.105 246.601 436.432 245.83 435.895 245.652C419.496 240.329 403.386 234.311 387.668 227.214C384.353 225.037 380.922 223.036 377.412 221.202C379.786 221.701 382.164 222.184 384.529 222.714C389.956 223.929 395.368 225.138 400.778 226.417C411.764 229 422.722 231.748 433.629 234.689C439.349 236.222 445.06 237.787 450.785 239.304C450.577 239.437 450.374 239.555 450.183 239.692C447.943 241.067 445.632 242.319 443.247 243.466ZM456.399 234.695C455.214 236.232 453.637 237.441 452.009 238.516C441.337 235.02 430.502 232.065 419.647 229.19C408.759 226.306 397.812 223.578 386.829 221.115C382.616 220.175 378.4 219.183 374.174 218.29C383.937 217.936 393.729 218.242 403.481 218.829C409.313 219.173 415.14 219.601 420.983 220.034C426.931 220.46 432.882 220.938 438.765 221.863C445.162 222.856 451.586 224.389 457.634 226.748C458.431 229.417 458.311 232.236 456.399 234.695ZM457.347 225.898C446.683 221.151 434.941 219.79 423.407 218.743C411.535 217.673 399.623 216.627 387.695 216.281C384.268 216.187 380.824 216.157 377.395 216.2C379.946 215.973 382.501 215.731 385.048 215.52C390.491 215.073 395.929 214.71 401.379 214.367C406.828 214.025 412.28 213.803 417.731 213.649C423.298 213.51 428.868 213.422 434.433 213.866C437.395 214.093 440.345 214.489 443.252 215.114C446.042 215.724 448.649 216.698 451.297 217.648C452.4 218.596 453.44 219.647 454.382 220.81C455.597 222.303 456.674 224.052 457.347 225.898ZM428.863 208.698C435.503 209.808 442.662 211.675 448.433 215.455C447.285 215.061 446.124 214.715 444.97 214.406C442.418 213.74 439.815 213.265 437.184 212.955C431.659 212.299 426.106 212.322 420.565 212.365C409.398 212.446 398.212 212.728 387.07 213.486C384.008 213.696 380.926 213.918 377.864 214.196C377.283 214.246 376.683 214.309 376.103 214.359C392.754 207.779 411.16 205.74 428.863 208.698ZM415.137 200.829C414.642 202.294 414.131 203.754 413.603 205.21C410.071 205.19 406.532 205.324 403.026 205.655C401.913 205.769 400.797 205.899 399.68 206.029C403.365 203.17 406.125 199.341 408.247 195.204C410.913 189.994 412.915 184.382 414.597 178.805C416.118 173.769 417.243 168.609 417.532 163.363C417.558 163.524 417.599 163.69 417.629 163.835C419.763 176.188 419.14 188.901 415.137 200.829ZM369 209.399C368.802 206.289 368.375 203.203 368.178 200.094C367.773 193.785 367.819 187.46 368.471 181.178C369.705 169.264 373.227 157.465 379.738 147.325C382.861 142.461 386.654 137.982 391.087 134.258C392.992 132.656 395.187 131.132 397.624 130.497C390.512 138.26 385.568 147.806 382.031 157.677C377.805 169.477 375.57 181.861 373.259 194.139C372.172 199.928 371.001 205.71 369.765 211.476C369.77 211.46 369.758 211.44 369.762 211.424C369.758 211.182 369.572 211.046 369.347 210.986C369.236 210.63 369.13 210.258 369.008 209.882C369.019 209.713 369.009 209.556 369 209.399ZM328.926 125.584C328.28 122.612 327.864 119.615 327.641 116.601C327.88 116.992 328.102 117.378 328.309 117.759C329.305 119.555 330.301 121.35 331.297 123.145C333.328 126.781 335.36 130.417 337.387 134.069C341.374 141.234 345.378 148.404 349.448 155.522C350.593 157.53 351.742 159.521 352.904 161.532C353.443 162.467 353.971 163.381 354.531 164.304C354.652 164.491 354.754 164.69 354.875 164.877C341.733 155.602 332.324 141.299 328.926 125.584ZM356.435 165.913C356.321 165.316 356.007 164.82 355.715 164.243C355.255 163.33 354.755 162.441 354.276 161.539C353.28 159.744 352.3 157.953 351.304 156.157C349.293 152.51 347.282 148.862 345.287 145.219C341.335 138.046 337.424 130.85 333.575 123.618C332.49 121.576 331.418 119.554 330.333 117.512C329.799 116.493 329.265 115.474 328.731 114.455C328.501 114.032 328.295 113.582 328.069 113.144C341.6 122.764 348.646 138.769 353.287 154.267C354.449 158.134 355.482 162.034 356.511 165.951L356.435 165.913ZM408.361 97.9798C416.936 97.9595 424.171 103.196 431.471 107.162C428.653 106.338 425.817 105.578 422.959 104.898C417.276 103.546 411.466 102.607 405.623 102.432C400.853 102.288 396.15 102.727 391.582 103.753C396.705 100.592 402.297 97.9862 408.361 97.9798ZM386.679 106.99L386.912 106.829C387.478 106.637 388.049 106.43 388.627 106.258C399.212 103.222 410.429 104.236 421.036 106.563C424.295 107.282 427.516 108.145 430.723 109.057C433.627 109.886 436.567 110.898 439.556 111.407C440.188 111.868 440.907 112.198 441.651 112.432C435.508 114.529 429.155 116.193 422.646 115.874C413.882 115.448 406.137 111.089 397.89 108.603C394.247 107.524 390.477 106.788 386.679 106.99ZM395.222 68.818C397.364 63.7076 399.716 58.7736 403.098 54.3561C408.973 46.6568 417.004 40.6517 425.984 37.0649C429.29 35.7525 432.616 34.8751 436.038 34.2809C427.021 40.2452 418.894 47.4438 411.384 55.2201C409.312 57.3782 407.279 59.5812 405.274 61.8089C402.852 64.1824 400.549 66.6907 398.243 69.1466C396.288 71.2504 394.365 73.3627 392.45 75.5114C393.393 73.2739 394.284 71.0395 395.222 68.818ZM398.081 73.9807C400.319 71.2661 402.618 68.5846 404.927 65.9235C406.558 64.1966 408.144 62.4408 409.643 60.6271C417.205 52.401 425.383 44.6319 434.516 38.1665C435.64 37.3686 436.776 36.591 437.939 35.8381C438.541 35.4498 439.143 35.0616 439.745 34.6734C439.851 34.5987 440.386 34.3301 440.854 34.0604C440.852 34.3863 440.835 34.7079 440.833 35.0338C440.802 35.9186 440.792 36.7915 440.761 37.6763C440.702 39.2406 440.624 40.8167 440.513 42.3841C440.085 48.4692 439.09 54.5567 436.449 60.1175C434.146 64.9959 430.556 69.1686 425.8 71.7924C421.39 74.2169 416.476 75.4418 411.593 76.5546C406.581 77.7014 401.502 78.7102 396.702 80.6009C394.479 81.4648 392.336 82.5393 390.253 83.7154C392.906 80.4766 395.44 77.1714 398.081 73.9807Z" fill="#7B9E9D"/>
</svg>
