<svg width="329" height="311" viewBox="0 0 329 311" fill="none" xmlns="http://www.w3.org/2000/svg">
<path d="M281.288 252.782L281.37 252.991C280.746 261.099 283.417 268.761 285.759 276.395C286.952 280.271 288.035 284.214 288.452 288.259C288.812 291.755 288.677 295.319 288.092 298.785C287.419 302.737 286.141 306.581 284.322 310.134C284.072 310.637 283.401 310.766 283.032 310.3C276.585 302.238 271.299 292.621 271.21 282.049C271.175 277.132 272.394 272.393 274.032 267.784C275.68 263.161 277.753 258.693 279.101 253.958C280.16 250.249 280.923 246.35 280.774 242.49C280.592 240.473 280.216 238.496 279.573 236.577C277.777 233.8 276.123 230.933 274.639 227.982C272.228 223.201 270.33 218.18 269.022 213.014C266.81 218.597 266.213 224.504 266.064 230.458L266.068 230.47L266.183 230.708L266.189 230.732C269.948 238.385 273.199 247.354 271.231 255.95C269.498 263.508 263.816 269.353 257.337 273.23C253.069 275.784 248.435 277.641 243.802 279.407C243.034 279.703 242.508 278.792 242.847 278.239C242.722 278.106 242.697 277.869 242.86 277.761C243.036 277.65 243.211 277.539 243.387 277.428C243.435 277.274 243.565 277.136 243.774 277.054C243.926 277.001 244.076 276.935 244.225 276.87C245.105 276.275 245.948 275.639 246.686 274.851C247.805 273.666 248.726 272.265 249.465 270.81C251.129 267.542 251.792 263.939 252.291 260.342C252.799 256.639 253.202 252.927 254.22 249.306C255.135 246.02 256.432 242.864 258.064 239.861C259.895 236.497 262.155 233.39 264.735 230.57C264.774 229.328 264.837 228.08 264.927 226.837C265.318 221.69 266.328 216.558 268.785 211.987C268.128 209.251 267.619 206.488 267.3 203.674C266.775 199.081 266.705 194.469 266.97 189.856C264.227 201.303 260.596 212.743 252.701 221.721C250.329 224.408 247.642 226.783 244.624 228.733C244.187 229.017 243.447 228.843 243.422 228.221C243.408 227.929 243.418 227.632 243.416 227.337L243.413 227.184C243.233 214.07 248.635 201.103 257.876 191.83C260.525 189.171 263.461 186.819 266.654 184.848C266.841 184.734 267.027 184.71 267.199 184.728C267.255 184.508 267.315 184.299 267.371 184.079L267.515 183.848C267.726 182.149 267.95 180.447 268.24 178.753C269.505 171.269 271.482 163.902 274.03 156.754C274.158 155.604 274.259 154.448 274.245 153.297C273.435 155.49 272.434 157.643 271.374 159.672C269.604 163.071 267.563 166.324 265.237 169.372C260.567 175.497 254.876 180.831 248.497 185.131C242.115 189.418 235.025 192.548 227.58 194.452C225.826 194.896 224.015 195.368 222.197 195.047C220.192 194.699 219.066 193.178 218.377 191.375C217.025 187.862 216.451 184.001 216.487 180.258C216.546 172.725 219.049 165.217 223.72 159.284C224.141 158.748 224.607 158.238 225.061 157.731C224.087 157.543 223.116 157.367 222.159 157.149C216.706 155.902 211.362 154.011 206.618 151.009C204.299 149.539 201.704 147.758 200.694 145.091C199.738 142.576 200.62 140.03 202.082 137.92C203.664 135.636 205.789 133.656 207.837 131.773C210.081 129.71 212.484 127.809 215.041 126.149C219.728 123.099 225.059 120.875 230.559 119.852C230.393 119.858 230.225 119.851 230.063 119.869C227.104 120.033 224.157 120.476 221.264 121.173C215.551 122.549 210.052 124.958 205.196 128.286C201.879 130.559 198.954 133.241 196.225 136.127C193.448 141.322 192.511 147.256 190.167 152.63C187.8 158.062 183.674 162.387 178.206 164.775C175.186 166.097 171.929 166.725 168.636 166.645C168.302 166.644 168.006 166.211 168.079 165.909C170.722 155.477 177.441 146.366 186.482 140.558C188.858 139.036 191.389 137.756 194.029 136.741C196.816 133.544 199.834 130.542 203.234 128.003C208.005 124.455 213.455 121.764 219.17 120.156C222.38 119.258 225.659 118.662 228.977 118.402C231.517 118.21 234.159 118.157 236.724 118.393C235.039 117.754 233.34 117.208 231.554 116.866C228.903 116.357 226.192 116.198 223.484 116.294C217.665 116.505 212.031 117.937 206.55 119.841C206.325 119.914 206.116 119.996 205.895 120.08C205.79 120.455 205.417 120.786 204.94 120.631C201.249 122.466 198.009 124.835 194.925 127.547C191.705 130.372 188.572 133.327 184.817 135.449C177.161 139.77 167.813 140.605 159.52 137.669C155.579 136.274 151.796 134.08 148.912 131.029L148.647 130.998C148.62 130.992 148.617 130.98 148.589 130.975C148.577 130.978 148.578 130.978 148.562 130.969C148.406 130.96 148.249 130.95 148.084 130.956C147.786 130.946 147.459 130.777 147.334 130.503C147.268 130.353 147.282 130.119 147.403 129.996L147.516 129.889L147.782 129.78L147.901 129.748C147.913 129.744 147.928 129.753 147.952 129.747C147.975 129.638 148.039 129.544 148.189 129.529C150.284 129.494 152.373 129.487 154.453 129.25C156.496 129.024 158.507 128.627 160.497 128.107C164.454 127.073 168.302 125.632 172.11 124.137C179.068 121.427 186.151 118.556 193.677 117.913C197.564 117.578 201.466 117.918 205.161 119.161C210.715 117.289 216.369 115.788 222.31 115.454C225.319 115.29 228.343 115.416 231.314 115.968C232.828 116.255 234.367 116.638 235.847 117.179L235.769 117.033C235.481 116.199 235.229 115.355 235.002 114.506C230.855 110.048 226.121 106.172 220.973 102.907C220.418 103.325 219.859 103.731 219.268 104.107C215.183 106.818 210.588 108.728 205.764 109.635C203.528 110.054 200.986 110.478 198.737 109.939C197.529 109.646 196.502 108.972 195.882 108.048C195.87 108.051 195.849 108.069 195.837 108.072C195.768 108.579 195.206 108.78 194.836 108.597C192.366 109.913 189.698 110.922 187.03 111.688C183.541 112.699 179.942 113.342 176.323 113.58C172.617 113.828 168.89 113.659 165.218 113.077C163.409 112.792 161.623 112.398 159.862 111.907C158.17 111.437 156.418 110.931 154.844 110.134C153.362 109.389 151.834 108.284 151.223 106.678C150.688 105.256 150.987 103.739 151.853 102.519C152.72 101.299 154.031 100.448 155.333 99.7529C157.001 98.8444 158.74 98.0579 160.489 97.3073C167.76 94.1802 175.487 92.0854 183.337 91.0736C183.946 91.0003 184.559 90.939 185.171 90.8776C181.393 90.4268 177.586 90.2018 173.779 90.4518C169.241 90.756 164.752 91.5734 160.409 92.9414C156.079 94.3062 151.926 96.188 148.086 98.6146C144.08 101.137 140.524 104.193 137.165 107.505C135.441 109.21 133.747 110.934 132.027 112.652C131.134 113.532 130.247 114.437 129.317 115.276C128.711 115.836 127.998 116.335 127.2 116.613C125.648 117.144 124.346 116.402 123.95 115.02C122.278 119.791 121.003 124.751 119.614 129.523C118.026 134.99 116.185 140.422 113.298 145.351C112.109 147.376 110.435 150.608 107.737 150.74C105.1 150.856 103.758 148.15 102.792 146.125C100.626 141.586 99.3936 136.656 99.0414 131.658C98.477 132.951 97.7977 134.197 97.0456 135.412C95.2396 138.295 92.9381 140.861 90.2831 142.97C88.9808 143.999 87.5952 144.909 86.1416 145.709C84.8668 146.409 83.2801 147.334 81.781 146.863C79.9919 146.316 79.6911 143.998 79.3218 142.429C78.8714 140.51 78.5679 138.564 78.4024 136.607C78.2207 134.398 78.2761 132.164 78.4791 129.954C78.5807 128.85 78.7333 127.744 78.9402 126.65C79.1384 125.57 79.2981 124.347 79.8197 123.374C78.553 122.956 77.283 122.526 76.0274 122.054C74.457 121.461 72.8786 120.742 71.5679 119.682C70.3211 118.669 69.3725 117.332 69.0958 115.726C68.8013 113.957 69.4384 112.17 70.1996 110.607C71.9544 107.007 74.2756 103.653 76.9918 100.719C78.3558 99.2503 79.8086 97.8735 81.3533 96.6003C81.9108 96.1432 82.4834 95.6948 83.0712 95.2551C78.3003 96.507 73.7546 98.4555 69.2338 100.449C65.9513 101.892 62.6448 103.342 59.2461 104.496L59.0467 104.613L59.0207 104.851C58.3696 106.347 57.8741 107.801 57.6399 109.416C57.4057 111.031 57.352 112.649 57.2112 114.277C56.9121 117.565 56.0557 120.783 54.6785 123.782C51.8174 130.051 46.8536 135.178 40.6456 138.2C38.809 139.102 36.8667 139.802 34.8851 140.307C33.2897 140.721 31.5227 141.117 29.8302 141.122C29.6418 141.185 29.4687 141.257 29.2771 141.308C28.7776 141.455 28.0833 141.115 28.235 140.484C31.1376 128.148 38.0704 115.914 48.7413 108.72C50.1859 107.743 51.6984 106.876 53.267 106.123L53.2997 106.101C52.9102 106.18 52.5359 106.267 52.1432 106.334C51.7026 106.413 51.2676 106.466 50.8206 106.521C50.6322 106.584 50.4319 106.651 50.2436 106.714C47.9565 107.468 45.6534 108.161 43.3062 108.739C39.0787 109.768 34.7563 110.348 30.3875 110.133C26.3164 109.927 22.2659 108.985 18.6182 107.152C15.1766 105.418 12.1293 103.002 9.38983 100.297C6.23144 97.1788 3.50054 93.7409 0.887632 90.1687C0.687693 89.9015 0.972159 89.4789 1.2965 89.6358L1.30846 89.6326L1.37301 89.5384C1.37017 89.1928 1.57169 88.8437 2.02512 88.8121C9.55436 88.1814 17.3008 87.5951 24.5961 90.0161C27.9068 91.118 30.9156 92.8651 33.4958 95.2146C36.1951 97.6732 38.4934 100.598 41.4964 102.706C43.4254 104.063 45.7907 105.084 48.1555 105.195C48.8851 105.141 49.5996 105.078 50.3228 105C52.3161 104.299 54.2935 103.539 56.3478 103.065C59.4115 102.194 62.4616 101.223 65.4436 100.142C66.1937 99.8773 66.9374 99.5883 67.6659 99.2906L67.543 99.3107C65.2466 99.6947 62.9036 99.809 60.5682 99.6647C55.8855 99.3792 51.2421 98.0441 47.1531 95.7138C46.033 95.0773 44.9511 94.392 43.9098 93.6189C42.8989 92.8634 41.7569 92.0018 41.0594 90.9314L41.0273 90.8117L40.7838 90.8127C40.5099 90.7963 40.496 90.5049 40.6347 90.3523C40.4604 90.1809 40.674 89.8287 40.9136 89.9569C41.0351 90.027 41.1652 90.082 41.2987 90.1489C43.2636 89.7253 45.3544 89.6273 47.3485 89.5038C49.4959 89.3778 51.6571 89.3507 53.8032 89.5072C58.1467 89.8194 62.2926 91.0696 66.269 92.7886C68.4314 93.7233 70.5596 94.7698 72.6551 95.8379C72.8922 95.8129 73.1173 95.7911 73.3511 95.7541C74.8989 95.5449 76.4306 95.2759 77.9517 94.9199C78.7243 94.7386 79.4937 94.5454 80.2446 94.3315C81.0435 94.1048 81.7778 93.9723 82.588 93.8836C82.786 93.8562 82.9506 93.9918 83.0466 94.1585C83.4394 94.0918 83.8201 94.0283 84.216 93.9736C77.3829 92.7502 70.9663 88.965 66.2016 84.0191C63.8545 81.5816 60.797 77.4998 63.4225 74.1798C64.5997 72.6843 66.5037 72.0333 68.285 71.5948C70.5093 71.0377 72.7905 70.6449 75.0742 70.4054C79.8581 69.9197 84.6965 70.1635 89.4024 71.1098L89.3721 71.0923C87.5846 69.9289 85.8737 68.668 84.2273 67.3129C80.9529 64.6234 77.9846 61.544 75.3848 58.2121C74.2324 56.7375 72.9774 54.8799 73.3979 52.9071C73.7574 51.233 75.1642 50.1635 76.7187 49.6446C78.5095 49.0496 80.4566 48.99 82.3263 48.9768C84.3493 48.9611 86.3749 49.0986 88.3824 49.4077C96.8251 50.7004 104.261 54.8413 110.414 60.6597C116.873 66.7556 122.057 74.078 128.607 80.0852C129.322 80.7405 130.057 81.3775 130.813 81.9961C127.337 78.0776 124.695 73.4869 122.174 68.9153C119.751 64.5224 117.227 60.1822 114.609 55.9188C104.638 48.2104 94.437 40.1662 88.0172 29.0953C86.3017 26.1423 84.7902 22.9935 84.0961 19.6387L84.1239 19.503C83.9169 19.3532 84.0912 18.9986 84.3499 19.0063C84.6206 19.0108 84.8857 19.0424 85.1475 19.0621L85.375 19.0012L85.5116 19.0801C88.303 19.346 91.0633 20.2617 93.637 21.3429C96.5894 22.592 99.4041 24.2372 101.941 26.1876C107.448 30.4088 111.677 36.1782 114.123 42.6688C115.577 46.5128 116.397 50.5778 116.548 54.6811C116.565 55.1257 116.266 55.3982 115.922 55.5031L115.902 55.5726C117.768 58.5621 119.578 61.5797 121.322 64.6404C122.804 67.2456 124.259 69.8964 125.812 72.4824C124.817 69.6827 124.241 66.7197 123.938 63.7731C123.56 60.0644 123.695 56.308 124.083 52.5865C123.941 52.3935 123.913 52.1445 124.089 51.8921C116.702 40.3233 123.714 26.7587 126.067 14.8138C126.773 11.2253 127.099 7.55889 126.598 3.92134C126.516 3.32758 127.313 2.80631 127.78 3.25837C128.342 3.77498 128.803 4.34438 129.243 4.93216C130.155 5.89378 130.961 6.9864 131.701 8.07112C132.74 9.6017 133.643 11.2458 134.405 12.9403C135.97 16.4338 136.945 20.2137 137.259 24.0167C137.853 31.016 136.11 37.9613 132.587 44.0105C131.64 45.6494 130.557 47.2094 129.347 48.6753C128.221 50.0287 126.946 51.5889 125.46 52.6026C125.169 55.2976 125.01 58.0083 125.09 60.7452C125.253 66.3331 126.426 71.6636 128.584 76.7944C129.626 78.2858 130.741 79.7189 131.964 81.0721C134.041 83.3638 136.475 85.4061 139.196 86.8966C140.55 87.6374 141.973 88.2569 143.454 88.707C143.581 88.75 143.702 88.769 143.829 88.812C144.446 88.8648 145.06 88.9056 145.674 88.9465C147.164 89.0478 148.677 89.0917 150.158 89.4006C150.36 89.4363 150.489 89.5814 150.546 89.7458C151.883 89.7084 153.234 89.6287 154.558 89.4924C155.944 89.352 157.331 89.2116 158.707 88.9843C158.854 88.9578 158.931 89.0527 158.96 89.1604C161.971 88.9568 165.001 88.9152 167.996 88.9343C163.988 88.3911 159.995 87.6643 156.069 86.6117C152.186 85.5735 148.352 84.1497 145.042 81.8035C143.471 80.6845 141.924 79.3157 141.169 77.5039C140.448 75.7726 140.768 73.9037 142.096 72.5861C143.402 71.2869 145.248 70.703 146.954 70.1305C148.096 69.7477 149.251 69.4128 150.409 69.0899C149.844 68.895 149.289 68.6457 148.758 68.339C146.55 67.0443 145.033 64.9747 144.211 62.5779C143.18 59.5954 143.186 56.3612 143.211 53.2499C143.231 49.9733 143.254 46.7088 143.277 43.4442C143.31 40.2666 143.262 37.0724 143.373 33.8995C143.464 31.4634 143.835 28.8753 145.414 26.9132C147.145 24.7563 149.888 23.7907 152.484 23.1342C155.019 22.4937 157.633 22.1916 160.261 22.2318C166.031 22.3158 171.691 23.9946 176.554 27.1054C176.641 26.2353 176.744 25.374 176.846 24.5126C177.199 21.5702 177.531 18.595 178.086 15.6882C178.55 13.2549 179.415 10.7397 181.515 9.24085C185.974 6.05849 192.461 8.52901 196.654 10.9597C199.739 12.7507 202.517 15.0728 204.972 17.6738L204.975 17.6857C206.267 19.0588 207.476 20.5054 208.587 22.0167C213.486 28.6586 216.641 36.55 217.729 44.7253C219.819 34.6214 224.476 25.0486 231.352 17.2932C233.471 14.9044 236.341 12.0191 239.829 12.2523C243.787 12.5139 244.82 17.0863 245.535 20.2303C247.324 28.0513 246.842 36.3521 244.232 43.94C241.533 51.7699 235.649 58.4897 234.335 66.7953C235.277 71.1228 235.434 75.6348 234.761 80.0614C234.169 83.9787 232.867 87.6884 231.028 91.1186C230.933 91.3877 230.83 91.6719 230.693 91.9267C230.643 92.0297 230.569 92.0881 230.477 92.1257C229.107 94.481 227.478 96.6873 225.612 98.6752C227.256 100.788 228.747 103.044 230.254 105.27C230.612 105.457 230.895 105.792 231.188 106.072C231.714 106.598 232.207 107.146 232.701 107.694C233.035 108.079 233.345 108.471 233.647 108.878C233.565 107.95 233.519 107.013 233.512 106.079C233.228 102.242 233.342 98.3627 233.744 94.5989C234.573 86.9235 236.554 79.4273 238.994 72.1157C239.441 70.7647 239.911 69.4073 240.396 68.0587C240.856 59.5329 243.295 51.2595 245.876 43.1792C248.663 34.4792 251.587 25.7679 252.702 16.6691C253.153 12.9435 253.207 9.22157 252.928 5.49917C252.675 4.27105 252.39 3.06452 252.042 1.86204C251.944 1.54208 252.264 1.30228 252.5 1.36747C252.515 1.18388 252.661 1.1063 252.821 1.12768C252.862 0.757278 253.405 0.81735 253.47 1.15891C253.961 3.65747 254.481 6.12246 255.21 8.55691C255.949 10.9762 256.84 13.3418 257.722 15.7226C259.439 20.3558 261.208 25.0903 261.602 30.0521C262.385 39.8616 256.781 48.0586 251.099 55.4814C248.884 58.3708 246.618 61.2611 244.674 64.3473C248.666 60.764 254.057 58.6661 259.193 56.7649C259.301 55.5428 259.917 54.2491 260.337 53.136C260.817 51.8655 261.34 50.6094 261.908 49.3796C263.028 46.9504 264.362 44.6047 265.861 42.3945C267.407 40.1204 269.156 37.9842 271.08 36.0194C273.104 33.9507 275.447 32.2074 277.456 30.1299C278.59 28.9538 279.603 27.6564 280.251 26.1488C280.902 24.6531 280.984 23.1429 280.99 21.5377C280.991 21.2552 281.341 21.1231 281.49 21.3911C281.745 21.1945 282.133 21.206 282.29 21.6002C282.396 21.8539 282.479 22.114 282.574 22.3709L282.592 22.3916C283.379 24.1308 283.9 25.9796 284.395 27.8229C284.876 29.6182 285.265 31.4513 285.515 33.2956C285.944 36.4263 285.912 39.655 285.134 42.7368C284.368 45.7643 282.881 48.4973 280.645 50.6867C278.389 52.8945 275.569 54.4836 272.607 55.5459C270.596 56.2768 268.501 56.7868 266.415 57.1913C264.294 57.6055 262.044 58.1179 259.875 58.2113C259.671 58.2147 259.502 58.1574 259.386 58.0601C256.962 58.9272 254.542 59.8062 252.207 60.9062C248.631 62.595 245.091 64.8513 242.601 67.9557C242.592 67.9709 242.592 67.9709 242.583 67.9861C240.51 74.4679 238.498 80.9848 237.144 87.6591C236.154 92.5298 235.4 97.5679 235.245 102.587C235.26 102.98 235.252 103.38 235.268 103.774C235.436 107.128 235.942 110.405 236.71 113.651C236.883 113.963 237.024 114.298 237.186 114.613C237.42 114.91 237.653 115.207 237.887 115.503C238.334 116.025 238.761 116.565 239.185 117.093C237.53 109.197 237.868 100.743 239.425 92.911C240.308 88.4538 241.65 84.0791 243.455 79.9011C244.988 76.3348 247.313 71.6071 251.858 71.7115C256.002 71.8076 259.096 75.8798 261.51 78.761C264.606 82.4603 267.311 86.4699 269.634 90.6841C271.415 93.9276 272.948 97.3014 274.224 100.77C276.56 98.0917 279.474 95.8488 282.489 94.0281C286.11 91.8396 290.091 90.2733 294.225 89.3717C298.37 88.4668 302.675 88.2507 306.907 88.721C309.021 88.9502 311.108 89.3662 313.159 89.9331C315.032 90.4578 317.056 91.0191 318.651 92.1828C322.368 94.8949 320.747 99.8574 319.603 103.486C318.399 107.324 316.803 111.035 314.875 114.566C313.248 117.542 311.393 120.386 309.356 123.074C311.596 122.385 314.322 122.745 316.474 123.067C320.576 123.674 324.612 124.8 328.468 126.308C332.311 127.819 336.107 129.727 339.47 132.123C341.135 133.307 342.726 134.792 343.454 136.74C344.143 138.595 343.988 140.599 343.367 142.446C340.893 149.92 332.745 153.796 325.672 155.6C320.58 156.899 315.288 157.547 310.004 157.653C312.15 161.825 313.305 166.519 313.895 171.159C314.511 175.946 314.467 180.806 313.902 185.589C313.401 189.751 312.485 193.845 311.278 197.863C310.931 199.393 310.518 200.914 309.978 202.393C309.561 203.518 309.083 204.608 308.551 205.687C307.787 207.573 306.934 209.417 305.747 211.069C304.625 212.627 303.155 214.034 301.324 214.717C300.717 214.943 300.097 215.071 299.482 215.12C299.274 215.253 299.025 215.281 298.809 215.147C297.693 215.15 296.589 214.907 295.53 214.498C293.62 213.739 291.957 212.466 290.428 211.118C288.749 209.643 287.201 208.031 285.768 206.323C279.907 199.298 276.276 190.636 274.549 181.708C273.614 176.878 273.229 171.952 273.257 167.031C273.27 165.45 273.321 163.871 273.412 162.295C272.151 166.827 271.001 171.394 270.154 176.034C268.673 184.102 268.01 192.349 268.654 200.541C269.195 207.439 270.755 214.166 273.26 220.59C277.005 224.795 281.695 228.171 286.902 230.317C286.958 230.238 287.047 230.188 287.177 230.192C293.859 230.519 299.943 227.466 306.075 225.26C309.081 224.172 312.186 223.264 315.391 223.06C318.544 222.857 321.713 223.24 324.783 223.97C328.357 224.809 331.805 226.041 335.244 227.288C336.082 227.59 335.619 228.689 334.855 228.662C327.61 228.486 321.598 233.482 315.442 236.555C312.353 238.1 308.991 239.296 305.508 239.318C302.538 239.343 299.63 238.595 296.916 237.423C293.767 236.06 290.864 234.182 288.059 232.239L287.863 232.035C285.54 231.169 283.3 230.089 281.166 228.736C278.549 227.063 276.185 225.041 274.129 222.73C274.404 223.375 274.68 224.02 274.97 224.673C278.2 231.646 282.443 238.092 287.149 244.157C289.63 245.994 292.308 247.56 295.137 248.779C298.949 250.413 302.95 251.266 306.987 252.109C310.776 252.891 314.632 253.731 318.134 255.449C321.914 257.297 324.903 260.166 326.976 263.831C329.291 267.919 330.353 272.549 330.825 277.181C331.077 279.654 331.168 282.144 331.234 284.641C331.258 285.545 331.565 286.977 330.613 287.54C330.181 287.796 329.726 287.726 329.278 287.538C325.838 287.343 322.366 286.451 319.157 285.296C315.69 284.044 312.378 282.314 309.357 280.185C302.955 275.69 298.182 269.515 295.117 262.344C293.674 258.971 292.531 255.429 291.118 252.023C290.373 251.158 289.619 250.307 288.886 249.439C286.458 246.51 284.122 243.492 281.941 240.382C282.301 243.21 282.126 246.002 281.638 248.776C281.678 250.073 281.503 251.429 281.288 252.782ZM276.521 264.912C274.783 269.482 273.163 274.162 272.744 279.059C272.297 284.234 273.293 289.432 275.151 294.258C276.507 297.782 278.318 301.094 280.416 304.227C279.406 301.611 278.606 298.913 277.944 296.204C276.75 291.367 276.097 286.397 275.977 281.401C275.853 276.392 276.276 271.366 277.238 266.438C277.781 263.676 278.45 260.957 279.086 258.208C278.256 260.47 277.368 262.709 276.521 264.912ZM279.055 263.451C277.961 268.464 277.256 273.541 277.211 278.684C277.175 283.671 277.69 288.652 278.705 293.537C279.768 298.653 281.531 303.505 283.5 308.314C286.323 302.286 287.586 295.559 286.999 288.917C286.291 280.871 282.921 273.422 281.255 265.581C280.687 262.936 280.329 260.261 280.356 257.586C279.939 259.57 279.476 261.529 279.055 263.451ZM264.161 265.899C266.558 263.308 268.491 260.276 269.518 256.883C270.683 253.043 270.586 248.9 269.858 244.99C269.068 240.75 267.491 236.734 266.033 232.685C266.008 235.655 266.046 238.621 266.039 241.561C266.02 246.659 265.777 251.83 264.475 256.784C263.227 261.557 260.975 265.983 257.676 269.663C256.372 271.115 254.925 272.465 253.352 273.681C257.347 271.688 261.087 269.224 264.161 265.899ZM255.515 249.446C253.471 256.562 254.073 264.406 250.714 271.117C250.019 272.496 249.105 273.921 247.984 275.145C250.797 273.673 253.399 271.847 255.627 269.532C259.022 266.018 261.463 261.773 262.824 257.085C265.09 249.217 264.565 240.994 264.668 232.858C260.407 237.591 257.272 243.319 255.515 249.446ZM172.421 157.934C171.315 160.129 170.416 162.422 169.738 164.772C178.597 157.999 184.551 148.336 191.48 139.771C191.76 139.427 192.043 139.094 192.322 138.75C183.751 142.623 176.667 149.511 172.421 157.934ZM182.741 152.592C178.91 157.3 174.743 161.764 169.81 165.33L169.714 165.356C175.046 165.236 180.272 163.003 184.124 159.329C188.422 155.214 190.13 149.523 192 144.058C192.691 142.038 193.454 140.051 194.396 138.156C190.295 142.77 186.632 147.817 182.741 152.592ZM158.844 136.105C162.678 137.58 166.808 138.245 170.914 138.005C175.358 137.738 179.741 136.475 183.634 134.291C187.302 132.23 190.383 129.315 193.517 126.551C194.764 125.46 196.028 124.339 197.367 123.301C194.26 124.492 191.151 125.671 187.994 126.722C182.065 128.681 175.942 130.103 169.735 130.88C166.222 131.32 162.681 131.563 159.141 131.613C156.252 131.655 153.347 131.586 150.473 131.253C153.05 133.205 155.797 134.933 158.844 136.105ZM183.577 121.349C176.099 123.608 169.049 127.125 161.46 129.067C159.622 129.534 157.697 129.96 155.753 130.224C156.655 130.239 157.545 130.257 158.453 130.245C161.63 130.228 164.814 130.042 167.968 129.698C174.33 129.021 180.622 127.746 186.722 125.805C192.125 124.089 197.434 121.923 202.798 120.012C196.469 118.422 189.747 119.479 183.577 121.349ZM50.3942 109.573C47.8871 111.181 45.5657 113.098 43.4824 115.234C39.1443 119.68 35.708 125 33.1975 130.663C31.923 133.518 30.909 136.484 30.1274 139.503C36.0857 137.176 40.0166 131.595 42.8451 126.065C46.0343 119.823 48.5402 112.994 53.4704 107.838C52.4093 108.379 51.3786 108.937 50.3942 109.573ZM56.6038 106.461C48.0125 113.61 45.961 127.206 38.4162 135.436C37.1645 136.797 35.7786 138.041 34.2567 139.064C35.9543 138.648 37.6221 138.073 39.2242 137.349C42.4437 135.91 45.4364 133.864 47.8976 131.319C52.3416 126.742 55.1647 120.714 55.8781 114.378C56.0738 112.619 56.1337 110.833 56.4499 109.093C56.6347 108.107 56.8935 107.063 57.3378 106.136C57.0873 106.254 56.8487 106.369 56.6038 106.461ZM34.9456 98.8032C32.3675 96.2223 29.7307 93.9009 26.3565 92.4183C23.1125 90.9907 19.6132 90.2857 16.1033 90.0197C12.0153 89.7032 7.90732 89.9823 3.82738 90.3179C5.91644 91.3621 7.90677 92.6123 9.92808 93.7387C12.4807 95.1719 15.0564 96.5475 17.6759 97.8473C22.8271 100.406 28.2005 102.598 33.7971 103.947C36.8973 104.695 40.0769 105.165 43.2634 105.325C39.9683 103.898 37.4501 101.301 34.9456 98.8032ZM19.0015 100.494C15.9411 99.0816 12.9684 97.5172 10.0275 95.8801C7.79688 94.6429 5.47602 93.4043 3.33536 91.9763C7.69623 97.0432 12.161 102.211 18.0811 105.436C25.3393 109.393 33.7531 109.334 41.6457 107.618C42.4933 107.43 43.3345 107.217 44.1757 107.005C35.4718 106.796 26.8612 104.111 19.0015 100.494ZM57.3271 91.3089C54.624 90.7499 51.8702 90.5764 49.1199 90.6074C46.9947 90.6248 44.8435 90.8802 42.7128 90.9248C51.1312 95.0462 60.5501 96.8216 69.8741 96.1849C65.8565 94.1691 61.7712 92.2355 57.3271 91.3089ZM66.2388 97.7485C60.5073 97.6669 54.828 96.5835 49.4525 94.6234C47.3774 93.8706 45.3692 92.9844 43.4159 91.968C43.6445 92.1506 43.885 92.3299 44.1104 92.5005C45.0174 93.1556 45.9451 93.7923 46.9134 94.3412C48.8413 95.4542 50.9301 96.306 53.0578 96.9678C57.3371 98.2849 61.9369 98.6439 66.3725 98.0078C66.9272 97.9234 67.4788 97.827 68.0271 97.7186C67.4259 97.7257 66.8312 97.7566 66.2388 97.7485ZM85.0408 19.8604C86.1477 22.553 87.2545 25.2457 88.6805 27.7887C90.1809 30.4658 91.9494 32.9941 93.887 35.3873C97.7956 40.2033 102.511 44.3415 107.323 48.2227C108.93 49.5243 110.562 50.7805 112.195 52.0367C108.285 45.8742 104.154 39.8476 99.7379 34.0002C95.9151 28.9303 91.7665 23.7937 86.4392 20.2428C85.9832 20.1212 85.512 19.9908 85.0408 19.8604ZM108.666 35.1886C105.05 29.9349 100.042 25.7084 94.2811 22.9792C92.284 22.0388 90.2129 21.349 88.122 20.7287C92.1581 23.4836 95.5342 27.031 98.5993 30.8542C102.822 36.1248 106.788 41.6311 110.559 47.2278C112.074 49.4778 113.546 51.7646 114.995 54.0578C114.671 47.3455 112.482 40.7605 108.666 35.1886ZM128.364 6.10404C128.961 18.0928 121.766 29.0636 122.337 41.0979C122.481 44.1252 123.137 47.144 124.517 49.8531C124.569 49.5186 124.608 49.1873 124.663 48.8648C126.22 38.7366 129.544 28.9306 130.565 18.7152C130.977 14.5124 130.853 9.64525 128.364 6.10404ZM127.832 48.337C128.909 47.1377 129.9 45.8588 130.797 44.5153C132.588 41.8163 133.954 38.8209 134.866 35.7158C136.882 28.8772 136.489 21.4777 133.914 14.8421C133.257 13.1578 132.475 11.5328 131.583 9.97571C132.007 11.748 132.179 13.5876 132.171 15.4242C132.138 20.3722 131.107 25.3308 130.064 30.1513C128.62 36.824 126.833 43.5115 125.877 50.2842C126.537 49.633 127.206 49.0177 127.832 48.337ZM229.509 91.4355C228.304 91.63 226.96 91.451 225.794 91.3142C224.246 91.1387 222.713 90.8306 221.2 90.4021C219.671 89.9647 218.17 89.3917 216.728 88.7004C216.022 88.3635 215.345 87.9931 214.674 87.5956C214.385 87.4291 214.007 87.261 213.666 87.0443C213.124 88.9469 212.371 90.778 211.327 92.5327C214.446 93.4935 217.717 93.8747 220.981 93.6038C223.956 93.3587 226.689 92.4985 229.465 91.5114C229.471 91.4842 229.491 91.4658 229.509 91.4355ZM229.996 90.5737C229.526 85.7094 228.609 80.9005 227.213 76.2199C225.919 71.8713 224.354 67.3768 221.92 63.5131C220.823 61.7671 219.439 60.098 217.829 58.7843C217.734 58.8611 217.645 58.9106 217.529 58.9547C216.986 59.9466 216.55 60.9999 216.216 62.0514C214.625 67.1216 215.012 72.5855 214.89 77.8264C214.828 80.5627 214.576 83.26 213.965 85.8611C214.335 86.0443 214.686 86.348 215.011 86.556C215.692 86.9894 216.411 87.3742 217.135 87.7318C218.497 88.4063 219.916 88.9628 221.366 89.3954C222.847 89.8456 224.383 90.1656 225.913 90.3714C227.215 90.536 228.606 90.4587 229.897 90.7287C229.944 90.6648 229.97 90.6193 229.996 90.5737ZM142.642 74.2872C146.837 76.4865 151.274 78.2488 155.858 79.4587C160.469 80.6741 165.186 81.3738 169.93 81.8867C179.007 82.8682 188.219 83.2494 197.078 85.6623C200.787 86.6703 204.376 88.0441 207.702 89.9242C208.115 89.4544 208.44 88.893 208.661 88.2821C203.247 83.0224 196.359 79.4404 189.186 77.1407C179.752 74.1122 169.752 73.3775 159.9 73.0011C154.326 72.7876 148.51 72.3437 143.047 73.7424C142.891 73.9254 142.759 74.1019 142.642 74.2872ZM152.421 104.971C154.689 106.301 157.003 107.465 159.515 108.267C162.066 109.072 164.731 109.539 167.389 109.738C173.377 110.2 179.349 109.216 185.143 107.716C188.346 106.884 191.494 105.849 194.669 104.96C195.963 102.561 197.633 100.318 199.502 98.3419C199.561 98.2748 199.632 98.2044 199.694 98.1493C199.417 98.2621 199.127 98.3782 198.846 98.4791C195.37 99.8206 191.805 100.929 188.204 101.855C180.855 103.733 173.382 104.669 165.796 104.943C161.538 105.096 157.265 104.996 153.022 104.58C152.799 104.562 152.656 104.459 152.566 104.317C152.483 104.532 152.441 104.761 152.421 104.971ZM153.207 103.26C160.612 104.176 168 104.263 175.414 103.394C182.84 102.522 190.164 100.791 197.195 98.2542C198.247 97.8699 199.28 97.4649 200.298 97.0511C200.364 96.8667 200.445 96.691 200.496 96.4978C200.353 95.869 200.13 95.2746 199.814 94.7178C198.698 94.6703 197.576 94.65 196.455 94.6807C193.089 94.761 189.737 95.1326 186.418 95.6239C179.386 96.6731 172.501 98.4652 165.594 100.123C161.737 101.053 157.86 102.001 153.927 102.451C153.633 102.697 153.358 102.963 153.132 103.267C153.156 103.261 153.18 103.254 153.207 103.26ZM220.947 94.4339C217.527 94.6955 214.09 94.32 210.8 93.341C209.914 94.6813 208.898 95.9156 207.751 97.0439C208.528 96.9768 209.425 97.2113 210.175 97.2799C211.163 97.3746 212.141 97.4334 213.139 97.4228C214.978 97.3921 216.823 97.1418 218.62 96.7631C222.17 96.0306 225.384 94.6183 228.563 92.9331C228.637 92.8237 228.71 92.7142 228.783 92.6048C226.331 93.6978 223.562 94.234 220.947 94.4339ZM218.843 97.4988C216.911 97.9008 214.96 98.0897 212.983 98.1828C212.097 98.2277 211.201 98.2366 210.302 98.2336C209.427 98.2242 208.187 98.287 207.39 97.8975C207.256 97.8306 207.203 97.7293 207.171 97.6096C207.029 97.7503 206.875 97.8941 206.73 98.0227C204.87 99.6499 202.779 100.8 200.566 101.88C199.398 102.449 198.185 103.095 197.413 104.187C197.134 104.582 196.937 105.045 196.819 105.513C199.036 105.407 201.227 105.397 203.432 105.102C205.736 104.793 208.037 104.331 210.268 103.656C214.635 102.333 218.774 100.352 222.595 97.8539C224.037 96.9161 225.442 95.8858 226.779 94.7964C224.272 96.0706 221.527 96.934 218.843 97.4988ZM154.015 108.047C155.365 109.109 157.031 109.676 158.645 110.193C160.332 110.742 162.053 111.18 163.788 111.523C167.245 112.214 170.768 112.528 174.287 112.445C178.202 112.359 182.122 111.809 185.902 110.784C188.904 109.968 191.749 108.808 194.577 107.537C194.595 107.173 194.64 106.815 194.716 106.474C194.652 106.427 194.588 106.38 194.533 106.318C191.895 107.152 189.202 107.874 186.519 108.541C183.343 109.327 180.119 109.985 176.861 110.37C171.325 111.019 165.698 110.896 160.318 109.348C157.55 108.55 154.789 107.39 152.466 105.665C152.599 106.591 153.22 107.426 154.015 108.047ZM165.591 96.9546C162.197 98.1715 158.684 99.5226 155.552 101.336C155.373 101.435 155.189 101.562 155.002 101.676C158.086 100.978 161.181 100.316 164.253 99.5709C167.839 98.6874 171.422 97.7409 175.009 96.8574C181.709 95.1915 188.488 93.7738 195.406 93.4479C196.536 93.402 197.672 93.38 198.814 93.3819C198.365 92.9506 197.869 92.5832 197.308 92.31C197.162 92.2463 197.017 92.1826 196.863 92.1341C186.244 91.7704 175.581 93.3943 165.591 96.9546ZM126.982 115.132C127.805 114.757 128.45 114.097 129.095 113.488C129.994 112.632 130.866 111.77 131.747 110.892C133.376 109.263 134.999 107.61 136.664 106.022C139.946 102.898 143.444 100.012 147.349 97.6831C151.01 95.4969 154.918 93.7064 158.972 92.3643C161.528 91.513 164.198 90.8492 166.89 90.3594C165.146 90.3645 163.397 90.3967 161.66 90.4768C150.861 92.5478 140.658 97.7558 133.077 105.802C130.402 108.648 128.052 111.753 126.038 115.102C125.994 115.178 125.932 115.233 125.866 115.277C126.186 115.37 126.591 115.301 126.982 115.132ZM107.576 149.18C108.93 149.253 109.939 147.944 110.634 146.95C111.395 145.861 112.091 144.725 112.714 143.557C117.861 134.136 119.344 123.348 123.228 113.43C123.603 112.483 124.02 111.55 124.441 110.63C122.891 113.225 121.494 115.909 120.275 118.685C117.409 125.225 115.793 132.355 112.139 138.542C110.295 141.665 107.941 144.464 104.982 146.59C105.091 146.805 105.191 147.035 105.309 147.234C105.783 148.095 106.499 149.135 107.576 149.18ZM77.7879 51.0003C76.6594 51.2897 75.6845 51.7689 75.1833 52.5317C79.8168 52.3941 84.292 55.1598 88.1358 57.3889C92.8145 60.1001 97.4001 62.9901 101.909 65.9776C110.079 71.3716 118.076 77.0811 126.509 82.0709C123.316 79.5905 120.301 76.9087 117.323 74.1781C113.454 70.6089 109.697 66.9326 105.7 63.5127C101.75 60.1191 97.5236 56.7993 92.9155 54.3515C90.4461 53.0372 87.8269 51.9297 85.0837 51.3173C82.6719 50.7444 80.2329 50.692 77.7879 51.0003ZM94.9797 74.1576L94.8918 74.117C89.8674 74.4234 84.8428 75.7817 80.1707 77.5459C80.0303 77.5964 79.8811 77.662 79.7319 77.7276C80.091 77.6314 80.4621 77.532 80.8125 77.451C83.1988 76.8762 85.6694 76.6636 88.1324 76.7096C93.0943 76.792 97.9514 77.9673 102.655 79.4787C107.57 81.0618 112.354 83.0648 117.269 84.6479C120.963 85.8396 124.752 86.7622 128.592 87.3502C128.008 87.1346 127.421 86.9069 126.846 86.6761C121.76 84.5999 117.247 81.5494 112.502 78.8303C110.137 77.4752 107.711 76.2263 105.128 75.3527C102.434 74.4449 99.5653 74.0329 96.7248 74.0623C96.2769 74.0668 95.8116 74.1016 95.3669 74.1181C95.2416 74.1773 95.1131 74.2245 94.9797 74.1576ZM75.7543 81.2686C79.9875 82.7008 84.1847 84.1425 88.5458 85.1427C93.1513 86.1929 97.817 86.8934 102.518 87.392C112.249 88.4167 122.029 89.1461 131.781 89.96C135.05 90.239 138.322 90.4789 141.589 90.6047C141.203 90.503 140.822 90.3741 140.432 90.2604C138.928 90.06 137.421 89.7967 135.936 89.4758C135.62 89.445 135.304 89.4143 134.996 89.3683C132.46 89.047 129.941 88.554 127.426 88.0731C124.91 87.5921 122.408 87.0177 119.952 86.3283C110.183 83.582 101.008 78.4573 90.7736 77.5161C88.0126 77.2677 85.2144 77.3114 82.4687 77.7901C81.1198 78.023 79.7878 78.3669 78.4999 78.8272C77.8782 79.045 77.2934 79.3042 76.703 79.5906C76.2422 80.0732 75.8876 80.6172 75.7543 81.2686ZM78.5707 86.5567C86.8019 89.7405 95.5416 91.7105 104.322 92.5407C113.696 93.4301 123.146 93.119 132.488 92.1183C134.285 91.932 136.07 91.6978 137.864 91.4484C136.56 91.3229 135.241 91.1887 133.937 91.0632C128.932 90.5817 123.916 90.1545 118.905 89.6491C109.223 88.6626 99.4863 87.9987 89.9115 86.0727C85.0969 85.1041 80.2132 83.782 75.7031 81.7955C75.6993 81.9248 75.6651 82.0366 75.6765 82.1746C75.7833 83.8651 76.9292 85.3157 78.2457 86.5411C78.3535 86.5122 78.4557 86.5105 78.5707 86.5567ZM142.808 90.5092C142.757 90.5101 142.703 90.499 142.652 90.4998C142.625 90.5453 142.614 90.5996 142.573 90.6364C142.808 90.6505 143.048 90.6375 143.283 90.6516C143.132 90.615 142.981 90.5785 142.827 90.5299L142.808 90.5092ZM141.489 91.7606C139.039 92.1472 136.588 92.4826 134.128 92.7822C129.295 93.3709 124.453 93.7824 119.588 93.9178C110.549 94.183 101.379 93.6238 92.5096 91.7912C88.4489 90.9543 84.4405 89.834 80.5387 88.4414C88.6586 94.9905 98.9968 98.3285 109.336 98.8952C121.343 99.5542 133.187 96.498 144.185 91.9109C143.279 91.884 142.383 91.8418 141.489 91.7606ZM88.7241 124.235C89.5202 124.381 90.3252 124.512 91.1356 124.615C104.125 122.574 113.599 112.019 123.332 104.102C124.987 102.761 126.687 101.446 128.459 100.253C128.243 100.311 128.046 100.389 127.831 100.447C126.295 100.845 124.76 101.102 123.22 101.245C120.097 102.518 117.065 104.035 114.178 105.757C110.934 107.678 107.844 109.84 104.941 112.221C101.947 114.69 99.2311 117.483 96.1846 119.902C94.5441 121.201 92.7965 122.387 90.912 123.303C90.2346 123.599 89.4949 123.951 88.7241 124.235ZM124.336 104.115C121.768 106.214 119.345 108.518 116.887 110.741C111.96 115.19 106.912 119.57 100.984 122.632C99.2495 123.533 97.4493 124.284 95.5891 124.86C97.9514 124.817 100.288 124.487 102.568 123.709C109.537 121.368 114.72 115.721 119.424 110.344C122.303 107.058 125.267 103.712 128.62 100.902C127.164 101.934 125.727 102.986 124.336 104.115ZM100.824 125.818C100.868 125.935 100.889 126.057 100.876 126.202C100.767 127.758 100.76 129.312 100.844 130.867C103.34 130.225 105.579 129.099 107.626 127.499C109.887 125.739 111.82 123.618 113.592 121.373C116.444 117.748 118.827 113.762 121.614 110.091C121.408 110.326 121.202 110.56 121.007 110.792C116.128 116.473 110.752 122.454 103.502 125.037C102.615 125.364 101.732 125.614 100.824 125.818ZM129.929 101.334C128.691 102.41 127.517 103.584 126.377 104.787C127.079 104.15 127.805 103.558 128.562 102.983C129 102.417 129.457 101.871 129.929 101.334ZM104.435 145.505C110.074 141.75 113.163 135.227 115.509 129.095C116.816 125.692 117.939 122.223 119.388 118.871C120.241 116.885 121.21 114.946 122.239 113.041C122.095 113.272 121.925 113.497 121.796 113.737C121.043 115.042 120.426 116.425 119.642 117.713C118.776 119.125 118.101 120.627 117.326 122.092C116.604 123.466 115.851 124.822 115.083 126.169C113.573 128.767 111.957 131.304 110.088 133.665C107.968 136.336 105.53 138.631 102.823 140.69C102.77 140.73 102.713 140.758 102.65 140.762C102.93 141.662 103.237 142.568 103.576 143.452C103.846 144.123 104.135 144.816 104.435 145.505ZM102.417 139.99C107.563 136.739 111.289 131.444 114.391 126.316C115.228 124.937 116.031 123.529 116.822 122.124C117.551 120.826 118.39 119.549 119.031 118.21C119.69 116.841 120.417 115.53 121.225 114.236C122.068 112.881 122.704 111.428 123.566 110.094C124.52 108.581 125.587 107.154 126.721 105.785C126.879 105.512 127.025 105.242 127.198 104.978C120.029 111.785 116.448 121.878 108.648 128.2C106.394 130.035 103.771 131.546 100.974 132.359C101.192 134.943 101.687 137.505 102.417 139.99ZM81.0752 126.142C80.8864 127.065 80.7247 127.993 80.6022 128.924C80.3467 130.699 80.2149 132.504 80.2213 134.299C80.2253 136.132 80.3347 137.976 80.567 139.799C80.6775 140.642 80.8151 141.49 80.9767 142.332C81.1447 143.198 81.2674 144.23 81.6356 145.029C82.3466 146.532 84.47 145.168 85.4441 144.638C86.8027 143.915 88.087 143.058 89.2976 142.118C91.719 140.238 93.83 137.967 95.5519 135.44C96.9511 133.385 98.0251 131.122 98.9298 128.801C98.9239 127.918 98.9571 127.037 99.0054 126.164C96.0154 126.593 92.983 126.481 89.9783 126.041C89.9663 126.045 89.9511 126.036 89.9511 126.036C87.0637 125.603 84.2134 124.878 81.454 124.014C81.4118 124.718 81.2251 125.409 81.0752 126.142ZM76.2482 120.533C77.8824 121.173 79.5573 121.725 81.217 122.268C83.0699 122.862 84.9763 123.417 86.9049 123.862C87.1444 123.798 87.375 123.749 87.6112 123.673C88.5473 123.384 89.4522 123.026 90.3258 122.6C92.0643 121.762 93.6756 120.69 95.1917 119.501C98.2598 117.114 100.984 114.307 103.957 111.804C109.029 107.56 114.643 104.094 120.621 101.313C119.966 101.309 119.319 101.289 118.654 101.249L118.508 101.186C117.491 101.266 116.481 101.331 115.463 101.36C112.463 101.945 109.478 102.629 106.518 103.409C98.6669 105.473 90.8975 108.079 83.458 111.341C81.3451 112.266 79.2452 113.239 77.17 114.257C75.2081 115.218 73.2958 116.269 71.3275 117.207C71.5251 117.513 71.7706 117.806 72.052 118.09C73.2319 119.237 74.768 119.941 76.2482 120.533ZM71.0602 116.688C74.4129 114.597 78.0824 112.922 81.6624 111.296C85.4484 109.577 89.2903 107.971 93.1924 106.541C98.7319 104.519 104.392 102.849 110.12 101.482L109.927 101.482C106.375 101.587 102.821 101.73 99.2755 102C95.6513 102.265 92.0233 102.659 88.4379 103.26C84.9993 103.834 81.4291 104.444 78.1679 105.728C75.964 106.6 73.8055 108.025 72.371 109.948C71.6853 111.171 71.0187 112.466 70.7411 113.823C70.542 114.851 70.6487 115.823 71.0602 116.688ZM82.9049 97.5062C81.5404 98.59 80.2222 99.7512 79.0048 101.001C77.285 102.77 75.7212 104.69 74.3427 106.726C77.5212 104.464 81.9475 103.458 85.5639 102.734C92.7184 101.28 99.9881 100.59 107.279 100.267C100.287 99.5994 93.3764 97.704 87.1553 94.4565L87.0923 94.4606L87.026 94.4527C85.719 95.5596 84.252 96.4527 82.9049 97.5062ZM77.6619 71.7778C75.5679 71.8639 73.5005 72.0968 71.4444 72.4678C69.6103 72.805 67.5925 73.1273 65.9547 74.0533C64.3376 74.961 63.5948 76.5454 64.0913 78.3495C64.5622 80.0579 65.7441 81.4989 66.9321 82.7715C69.3946 85.4476 72.3251 87.716 75.5057 89.4813C78.4314 91.1096 81.5808 92.2803 84.8153 93.1461C84.0195 92.6664 83.2357 92.1836 82.4662 91.6584C80.2671 90.1562 78.0439 88.4681 76.2841 86.4506C74.8249 84.7888 73.8648 82.5956 74.4999 80.5141C74.3785 80.444 74.3271 80.2525 74.4667 80.151C74.5409 80.0926 74.6182 80.0462 74.6924 79.9879C74.8055 79.7395 74.9185 79.4912 75.0859 79.2539C76.4229 77.2538 78.9605 76.3819 81.1214 75.6365C83.9073 74.6852 86.7523 73.8592 89.656 73.2997C90.0095 73.2307 90.3696 73.1856 90.7144 73.1318L90.6808 73.1023L90.5985 73.0345L90.4954 72.9851L90.4443 72.986C86.2461 72.0192 81.9488 71.592 77.6619 71.7778ZM75.1139 55.0005C75.8245 56.8371 77.3666 58.4254 78.6331 59.8951C80.0099 61.4892 81.4817 63.0065 83.0332 64.4384C85.9347 67.1251 89.1096 69.4435 92.3762 71.6733L92.5088 71.6891C92.6837 71.7193 92.8138 71.7742 92.9689 71.8738C93.0903 71.9439 93.1647 72.0779 93.2033 72.2216C93.4797 72.3913 93.7442 72.5642 94.0206 72.7339C98.3441 72.3972 102.669 72.8299 106.79 74.4202C112.116 76.4833 116.706 79.9624 121.647 82.7443C125.863 85.1175 130.394 86.8933 135.089 88.0863C134.013 87.5663 132.975 86.9975 131.964 86.4343C127.193 83.7608 122.571 80.8293 118.007 77.8307C108.82 71.7984 99.9992 65.219 90.5951 59.527C88.0376 57.9797 85.4648 56.4236 82.7735 55.1431C80.2731 53.9525 77.7142 53.2138 74.9628 53.0012C74.7703 53.5274 74.7935 54.1883 75.1139 55.0005ZM94.3501 52.4279C91.3597 51.4199 88.223 50.823 85.0628 50.6173C86.985 51.0391 88.8628 51.678 90.6074 52.4423C95.3291 54.5005 99.7103 57.394 103.753 60.5576C111.068 66.2574 117.614 72.8688 124.831 78.6845C121.184 74.9402 117.856 70.854 114.37 66.9898C108.735 60.7629 102.429 55.1394 94.3501 52.4279ZM152.291 91.4208C150.12 91.7967 147.974 92.3075 145.88 92.9707C144.379 93.642 142.847 94.2446 141.324 94.8321C141.196 94.8794 141.055 94.9298 140.927 94.977C135.64 97.5601 130.878 101.478 127.974 106.579C127.083 108.139 126.366 109.819 125.881 111.552C125.731 112.093 125.552 112.718 125.457 113.321C129.153 107.725 133.996 103.055 139.44 99.1467C144.769 95.3337 150.805 92.4345 157.144 90.7627C155.742 90.8943 154.338 91.0651 152.95 91.2956C152.707 91.3478 152.501 91.3903 152.291 91.4208ZM145.417 80.3304C148.511 82.6833 152.194 84.1216 155.909 85.1536C163.977 87.3934 172.416 88.097 180.742 88.7154C187.903 89.248 195.108 89.7047 202.207 90.8185C203.062 90.8974 203.927 91.0122 204.776 91.1182C204.788 91.115 204.797 91.0999 204.812 91.1086C205.274 91.0107 205.736 90.964 206.204 90.9411C206.557 90.821 206.882 90.6442 207.167 90.4141C200.344 86.7889 192.63 85.1985 184.991 84.3192C175.608 83.2526 166.044 83.235 156.813 81.0117C151.754 79.8008 146.859 77.9559 142.251 75.5592C142.254 75.5711 142.243 75.5743 142.246 75.5863C142.189 77.577 143.967 79.2305 145.417 80.3304ZM145.609 72.1457C145.11 72.3434 144.576 72.6018 144.091 72.8984C148.473 71.7763 153.103 71.9604 157.609 72.0625C162.796 72.1742 168 72.3458 173.173 72.8335C182.641 73.7363 192.116 75.8173 200.467 80.5471C203.55 82.2869 206.418 84.3671 208.981 86.7979L208.997 86.4731C209.008 85.1744 208.653 83.8969 208.13 82.7154C207.852 82.0588 207.54 81.4238 207.217 80.792C207.087 80.5447 206.956 80.2974 206.841 80.0589C206.006 79.3845 205.141 78.7437 204.241 78.1636C200.016 75.4209 195.291 73.5431 191.071 70.7732C190.977 70.8499 190.857 70.8819 190.724 70.8661C189.03 70.5758 187.439 70.0013 185.804 69.5026C181.179 68.5218 176.499 67.9147 171.759 67.7985C170.672 68 169.577 68.1776 168.485 68.3161C167.369 68.4609 166.268 68.5635 165.145 68.6333C164.211 68.691 162.863 68.8338 162.054 68.3063C162.039 68.2975 162.033 68.2736 162.018 68.2648C160.424 68.4477 158.841 68.6665 157.264 68.9604C153.323 69.6694 149.326 70.6499 145.609 72.1457ZM182.133 61.698C182.311 61.8814 182.488 62.0648 182.666 62.2481C182.474 61.9658 182.307 61.677 182.128 61.3915C182.142 61.4904 182.131 61.5958 182.133 61.698ZM184.743 66.1689L184.786 66.1833C184.722 66.1362 184.667 66.074 184.603 66.027C184.597 66.0542 184.591 66.0813 184.586 66.1084C184.628 66.1228 184.686 66.1459 184.743 66.1689ZM148.237 66.3489C149.508 67.548 151.197 68.3914 152.934 68.5037L153.077 68.4652C157.227 67.4822 161.465 66.8734 165.715 66.6461C167.004 66.5704 168.296 66.5579 169.577 66.5485C169.957 66.485 170.345 66.4455 170.713 66.3852L170.895 66.298C171.159 66.2275 171.428 66.1809 171.683 66.1256C171.067 65.9826 170.458 65.8635 169.842 65.7205C163.655 64.2729 157.499 62.5603 151.99 59.289C149.29 57.6899 146.75 55.7276 144.813 53.2441C144.791 54.9307 144.808 56.6196 144.959 58.2853C145.246 61.223 146.037 64.2696 148.237 66.3489ZM144.888 49.6451C144.87 50.5351 144.855 51.437 144.837 52.327C146.924 54.5134 149.225 56.4888 151.804 58.0687C154.462 59.7045 157.351 60.9577 160.303 61.9634C165.135 63.62 170.141 64.5373 175.141 65.4817C175.375 65.4447 175.621 65.4046 175.855 65.3676C176.397 65.2353 176.932 65.0791 177.461 64.8989C174.576 63.7088 171.735 62.4427 168.954 61.0194C162.683 57.8239 156.768 53.853 151.753 48.8842C149.151 46.3097 146.773 43.4699 144.97 40.284C144.965 40.3622 144.975 40.4492 144.971 40.5274C144.956 43.5844 144.936 46.6175 144.888 49.6451ZM145.176 32.3906C144.91 34.7966 144.975 37.2421 144.971 39.6678C145.022 39.6669 145.08 39.69 145.108 39.7467C147.05 42.5877 149.152 45.3088 151.59 47.7478C153.994 50.1572 156.673 52.3006 159.48 54.2045C165.505 58.2998 172.2 61.3559 178.971 64.0201C179.04 64.04 179.101 64.075 179.17 64.0949C179.898 63.5538 180.438 62.7933 180.364 61.9409C177.824 59.17 175.575 56.1418 173.547 52.9776C171.098 49.1562 168.95 45.1644 166.858 41.1447C164.873 37.3275 162.818 33.3493 159.611 30.3851C156.676 27.6689 152.71 25.8446 148.663 26.351C148.586 26.3974 148.505 26.4318 148.44 26.4749C146.337 27.8206 145.459 29.9542 145.176 32.3906ZM162.633 23.9956C160.251 23.7739 157.847 23.8531 155.481 24.2173C153.757 24.4865 151.921 24.8629 150.258 25.5519C153.132 25.4107 155.964 26.4485 158.376 28.0733C161.821 30.3963 164.187 33.9576 166.196 37.5249C168.446 41.5149 170.497 45.6225 172.893 49.535C175.196 53.2927 177.744 56.9081 180.689 60.1862C180.534 59.4193 180.284 58.6781 180.046 57.9336C179.92 57.557 179.832 57.1828 179.741 56.7966C177.861 52.4637 176.753 47.7572 176.319 43.0756C175.875 38.3581 176.038 33.6063 176.467 28.8863L176.236 28.7939C172.195 26.0661 167.474 24.4437 162.633 23.9956ZM179.86 15.5083C179.281 18.2802 178.987 21.1556 178.638 23.9687C177.888 29.9295 177.398 35.9491 177.851 41.9469C178.61 51.9552 182.344 62.0521 190.393 68.3379C190.469 68.3817 190.541 68.4135 190.617 68.4573L190.728 68.5817C191.084 68.8583 191.453 69.1317 191.83 69.3899C195.44 71.8484 199.448 73.6359 203.192 75.8788C203.279 75.8683 203.373 75.8818 203.474 75.9702C203.645 76.1297 203.836 76.2708 204.025 76.3999L204.04 76.4086C205.187 77.192 206.612 77.58 207.997 77.4787C206.625 75.1391 205.123 72.8859 203.564 70.6607C200.157 65.8003 196.482 61.1397 193.024 56.3312C186.589 47.3555 180.739 37.4533 179.827 26.2031C179.4 20.8782 180.118 15.516 182.469 10.6917C180.991 11.8315 180.255 13.6322 179.86 15.5083ZM184.024 9.83916C183.799 9.91204 183.597 10.0176 183.406 10.12C183.407 10.1711 183.411 10.2341 183.376 10.2948C179.154 19.6229 180.485 30.4272 184.479 39.5819C188.921 49.7842 196.226 58.2705 202.649 67.2495C200.737 63.8489 198.922 60.3836 197.269 56.8494C192.703 47.1422 188.966 36.9822 187.636 26.2801C186.953 20.767 186.699 14.9853 187.501 9.45947C186.297 9.37137 185.126 9.45405 184.024 9.83916ZM188.04 9.50757C187.639 14.5668 187.564 19.5515 188.2 24.6025C188.863 29.8514 190.045 35.0255 191.64 40.0635C194.965 50.5519 200.084 60.265 205.67 69.7118C207.06 72.0721 208.513 74.4283 209.79 76.8446C209.834 76.8198 209.861 76.7743 209.917 76.7463C210.206 76.5792 210.514 76.4838 210.826 76.4516C211.105 76.2485 211.363 76.0128 211.602 75.7563C209.665 69.6811 206.194 63.914 203.679 58.2633C199.493 48.8262 196.51 38.849 194.808 28.6701C193.838 22.9003 193.276 17.0726 193.183 11.2221C193.188 11.1439 193.211 11.0864 193.219 11.0201C192.74 10.8147 192.25 10.6125 191.754 10.4374C190.593 10.03 189.318 9.67859 188.04 9.50757ZM194.665 11.7233C194.929 21.9924 196.374 32.2147 199.133 42.1234C200.529 47.1377 202.248 52.0654 204.277 56.8586C206.326 61.7237 208.891 66.3607 210.903 71.2354C211.236 72.0444 211.544 72.8598 211.829 73.6816C210.895 67.3762 210.207 61.0307 209.82 54.656C209.571 50.6175 209.487 46.5733 209.428 42.5226C209.375 38.5469 209.266 34.5482 208.709 30.605C208.286 27.6394 207.565 24.6638 206.477 21.8506C204.219 18.9788 201.619 16.3652 198.681 14.2141C197.415 13.2704 196.075 12.4362 194.665 11.7233ZM209.431 26.0243C208.964 25.2896 208.474 24.5614 207.975 23.8484C209.763 29.1296 210.178 34.8425 210.342 40.4304C210.454 44.5313 210.511 48.6211 210.746 52.7019C210.983 56.7947 211.356 60.8642 211.87 64.9344C212.207 67.6278 212.607 70.3173 213.071 73.0026C213.109 72.7615 213.147 72.5204 213.185 72.2794C213.229 69.5735 213.352 66.8723 213.865 64.1947C214.33 61.8124 215.162 59.4601 216.402 57.3835C216.33 57.2614 216.289 57.1058 216.316 56.919C217.659 46.2324 215.147 35.1412 209.431 26.0243ZM233.746 17.127C228.896 22.2486 225.088 28.3356 222.424 34.8604C220.094 40.5771 218.685 46.6631 218.257 52.8199C219.951 47.8893 221.934 43.035 224.072 38.2804C226.56 32.7264 229.318 27.2671 232.37 21.9982C233.854 19.4456 235.42 16.9608 237.09 14.5253C235.769 15.1996 234.567 16.2657 233.746 17.127ZM237.982 14.1197C234.993 19.2432 232.038 24.3963 229.392 29.6974C226.702 35.0745 224.318 40.5877 222.21 46.2195C221.322 48.5998 220.506 51.012 219.702 53.421C220.475 52.7648 221.331 52.1764 222.267 51.6949C222.347 51.6605 222.428 51.6261 222.505 51.5797C223.263 50.8637 224.017 50.1358 224.741 49.3903C226.954 47.1171 229.011 44.6421 230.813 42.0301C234.428 36.8029 237.136 30.9206 238.83 24.7968C239.791 21.3452 240.419 17.803 240.864 14.2459C240.875 14.1916 240.896 14.1732 240.925 14.1397C240.007 13.6801 238.986 13.7483 237.982 14.1197ZM241.414 14.4321C241.135 20.8569 239.379 27.2282 236.809 33.0992C234.228 39.0245 230.712 44.6227 226.441 49.4611C226.078 49.8789 225.685 50.2792 225.307 50.6883C225.502 50.649 225.697 50.6097 225.895 50.5823C226.714 50.4785 227.035 51.3418 226.753 51.9175C226.883 51.7801 227.114 51.7312 227.27 51.9329C229.25 54.3405 230.877 57.0094 232.121 59.8321C232.24 54.5791 234.247 49.5261 236.481 44.7969C239.305 38.8194 242.766 32.9667 243.841 26.3542C244.144 24.5157 244.256 22.6382 244.12 20.789C244.038 20.4387 243.984 20.0939 243.903 19.7436C243.481 18.0735 243.058 15.9676 241.765 14.7358C241.655 14.6114 241.539 14.5141 241.414 14.4321ZM241.234 47.5909C244.465 40.6449 245.74 32.8629 244.905 25.2484C244.898 25.2244 244.895 25.2125 244.901 25.1853C244.592 28.103 243.775 30.9901 242.721 33.7098C240.318 39.8696 236.667 45.4911 234.709 51.8267C233.638 55.2952 233.102 58.9921 233.533 62.6098C233.557 62.7957 233.497 62.953 233.4 63.0689C233.552 63.5412 233.704 64.0136 233.845 64.4892C234.996 58.4465 238.652 53.1315 241.234 47.5909ZM228.77 55.2773C228.14 54.2659 227.465 53.2793 226.736 52.3326C226.659 52.2377 226.654 52.1236 226.683 52.0389C226.559 52.2003 226.375 52.3266 226.114 52.358C224.626 52.5512 223.286 53.1026 222.09 53.859C221.291 54.6117 220.454 55.4132 219.548 56.0535C219.038 56.6391 218.561 57.2542 218.136 57.9196L218.134 58.151C218.132 58.1902 218.118 58.2325 218.115 58.2716C221.427 60.4766 223.484 63.8897 225.084 67.5149C227.148 72.1964 228.674 77.1243 229.745 82.1229C230.172 84.0995 230.504 86.1018 230.772 88.1081L230.814 87.9301C231.049 86.6998 231.214 85.4497 231.332 84.2124C231.568 81.6476 231.551 79.048 231.3 76.4853C230.786 71.3632 229.31 66.3833 227.002 61.7931C225.682 59.1701 224.086 56.66 222.285 54.3456C222.11 54.1231 222.442 53.8801 222.638 54.0843C229.754 61.8644 233.071 72.7527 232.472 83.2015C232.434 83.9686 232.365 84.7182 232.276 85.4861C232.571 84.6245 232.839 83.7574 233.062 82.864C235.322 73.6378 233.766 63.3814 228.77 55.2773ZM226.109 96.2203C223.607 98.327 220.893 100.17 217.949 101.677C213.773 103.808 209.265 105.323 204.659 106.185C202.276 106.63 199.772 106.955 197.333 106.902C197.359 107.049 197.322 107.2 197.168 107.293L197.07 107.358L197.113 107.423C198.314 109.128 201.132 108.823 202.906 108.643C207.551 108.168 212.066 106.677 216.155 104.415C219.944 102.323 223.336 99.5157 226.109 96.2203ZM251.668 28.2222C249.398 37.0789 246.152 45.6452 244.06 54.544C243.446 57.1331 242.952 59.7413 242.578 62.3685C246.839 50.8877 251.393 39.4952 253.265 27.3329C253.881 23.268 254.196 19.1299 254.09 15.0018C253.7 19.4808 252.768 23.9508 251.668 28.2222ZM256.704 44.8979C258.943 40.8088 260.493 36.3014 260.387 31.5963C260.269 26.6118 258.631 21.8421 256.941 17.2145C256.314 15.4967 255.69 13.7909 255.11 12.0602C256.336 23.5726 253.734 35.3533 250.105 46.3186C248.335 51.6803 246.293 56.9864 244.306 62.3036C248.307 56.4087 253.265 51.1681 256.704 44.8979ZM281.971 24.2385C281.745 25.8383 280.952 27.4235 280.128 28.6576C278.447 31.1473 275.955 32.9563 273.762 34.9677C269.599 38.7763 266.151 43.3815 263.627 48.4192C262.935 49.8103 262.316 51.2333 261.781 52.685C261.499 53.4532 261.242 54.2149 261.003 54.9974C260.88 55.4022 260.779 55.8397 260.66 56.2565C261.395 55.9827 262.118 55.7121 262.841 55.4416C267.578 53.6342 272.258 51.4189 275.747 47.6366C278.67 44.4679 280.771 40.5314 281.803 36.3422C282.782 32.3854 282.796 28.2253 281.971 24.2385ZM270.71 54.9765C273.716 54.0817 276.6 52.732 279.025 50.7228C283.914 46.6556 285.283 40.3238 284.678 34.2383C284.543 32.876 284.307 31.5153 284.034 30.1643C284.027 35.9264 282.033 41.7456 278.653 46.3197C275.726 50.285 271.754 53.0805 267.287 55.0848C266.347 55.5032 265.398 55.8858 264.445 56.2564C264.718 56.2218 264.994 56.1991 265.264 56.1525C267.099 55.8664 268.927 55.5052 270.71 54.9765ZM299.523 213.647C300.36 213.564 301.173 213.295 301.921 212.876C302.187 212.048 302.47 211.241 302.612 210.382C302.793 209.333 302.841 208.268 302.814 207.211C302.744 205.036 302.242 202.925 301.537 200.869C300.057 196.545 298.083 192.34 296.176 188.193C292.399 179.994 288.193 172.012 283.618 164.231C281.819 161.16 279.946 158.146 278.049 155.139C279.954 162.531 281.156 170.125 282.807 177.572C284.699 186.161 287.195 194.704 291.394 202.469C293.588 206.538 296.328 210.295 299.523 213.647ZM291.224 174.318C293.345 178.496 295.4 182.718 297.328 186.987C299.261 191.28 301.247 195.623 302.738 200.086C303.518 202.417 304.091 204.842 304.108 207.3C304.115 208.427 303.998 209.665 303.699 210.848C304.364 209.977 305.059 209.124 305.66 208.206C306.489 206.945 307.197 205.614 307.841 204.235C307.939 203.978 308.025 203.724 308.123 203.467L308.062 203.432C305.202 200.901 303.631 197.384 302.574 193.779C301.409 189.768 300.663 185.645 299.522 181.627C297.261 173.625 294.027 165.729 288.514 159.38C287.107 157.768 285.575 156.267 283.896 154.933C282.555 153.855 281.111 152.921 279.676 151.971C279.071 151.722 278.462 151.462 277.865 151.199C282.709 158.689 287.184 166.381 291.224 174.318ZM310.844 192.463C311.085 188.05 310.342 183.605 309.167 179.365C308.043 175.317 306.655 171.289 304.957 167.446C303.219 163.498 300.944 159.656 297.581 156.875C292.789 156.182 288.056 155.038 283.471 153.443C285.126 154.591 286.646 155.954 288.032 157.341C290.702 160.025 292.964 163.101 294.832 166.385C297.01 170.202 298.646 174.293 299.985 178.475C301.284 182.554 302.196 186.722 303.208 190.877C304.19 194.925 305.543 199.155 308.632 202.112C308.698 201.928 308.773 201.728 308.839 201.544C309.296 200.28 309.719 198.986 310.118 197.699C310.476 195.974 310.738 194.223 310.844 192.463ZM315.373 92.3036C313.679 91.6797 311.924 91.2131 310.163 90.8638C299.272 104.081 287.906 117.439 281.101 133.309C279.632 136.73 278.368 140.249 277.338 143.822C279.938 141.51 282.526 139.2 284.983 136.733C288.113 133.573 291.127 130.316 294.001 126.917C299.787 120.069 304.953 112.682 309.427 104.916C311.754 100.867 313.872 96.708 315.93 92.5137C315.733 92.4509 315.558 92.3697 315.373 92.3036ZM221.185 193.329C222.627 194.496 224.695 193.98 226.336 193.592C240.543 190.16 253.48 181.513 262.724 170.288C265.316 167.131 267.67 163.755 269.69 160.187C270.709 158.388 271.66 156.529 272.515 154.645C273.049 153.476 273.54 152.293 274.031 151.109C274.004 150.963 273.951 150.81 273.912 150.666C273.779 150.6 273.633 150.536 273.5 150.469C268.553 157.477 262.732 163.808 256.209 169.39C249.302 175.306 241.402 180.154 233.054 183.762C228.488 185.729 223.776 187.299 218.966 188.548C219.377 190.222 219.847 192.264 221.185 193.329ZM218.822 187.817C227.443 185.611 235.77 182.073 243.414 177.512C251.187 172.864 258.389 167.28 264.581 160.657C267.422 157.613 270.019 154.377 272.387 150.959C271.171 151.978 269.888 152.886 268.543 153.708C263.689 157.856 258.093 161.15 252.308 163.79C245.668 166.825 238.61 168.882 231.376 169.895C227.456 170.444 223.494 170.646 219.542 170.55C218.838 172.804 218.345 175.129 218.118 177.487C217.797 180.933 218.034 184.449 218.822 187.817ZM226.754 158.112C223.647 161.407 221.315 165.341 219.836 169.586C234.012 169.869 248.39 166.019 260.473 158.589C262.026 157.634 263.536 156.614 265.024 155.561C257.25 159.105 248.187 159.903 239.723 159.488C235.402 159.26 231.042 158.837 226.754 158.112ZM205.422 148.225C214.158 154.775 225.499 156.78 236.117 157.811C242.152 158.402 248.266 158.522 254.271 157.568C260.055 156.648 265.523 154.645 270.448 151.479C271.158 151.019 271.835 150.53 272.491 150.008C272.433 149.985 272.373 149.95 272.315 149.927C263.74 153.07 254.333 153.254 245.303 152.734C235.751 152.188 226.208 150.856 216.884 148.67C211.97 147.523 207.015 146.22 202.248 144.521C202.838 146.005 204.104 147.231 205.422 148.225ZM202.028 141.834C201.914 142.365 201.922 142.876 201.976 143.362C206.433 144.721 210.852 146.129 215.38 147.226C219.927 148.343 224.515 149.282 229.14 150.02C233.806 150.771 238.505 151.309 243.216 151.651C248.095 151.999 253.011 152.197 257.9 151.914C262.463 151.654 266.983 150.905 271.309 149.478C263.388 145.775 255.414 142.163 247.112 139.383C238.22 136.415 228.959 134.366 219.544 134.424C214.599 134.453 209.666 135.004 205.091 136.845C203.741 138.271 202.434 139.904 202.028 141.834ZM206.19 135.678C206.131 135.745 206.06 135.816 205.998 135.871C209.564 134.48 213.491 134.005 217.288 133.861C221.96 133.674 226.608 134.021 231.231 134.707C240.828 136.14 250.055 139.211 259.007 142.881C263.663 144.79 268.256 146.845 272.839 148.914C272.944 148.873 273.06 148.829 273.165 148.788C273.16 148.674 273.167 148.557 273.201 148.445C273.13 148.131 273.025 147.838 272.93 147.53C271.74 146.822 270.563 146.073 269.42 145.301C267.446 143.97 265.52 142.574 263.614 141.16C259.859 138.355 256.149 135.475 252.253 132.862C244.791 127.856 236.349 123.792 227.142 124.384C222.085 124.712 217.253 126.455 213.349 129.694C213.212 129.808 213.075 129.678 213.079 129.549C210.63 131.423 208.32 133.478 206.19 135.678ZM219.804 125.297C219.715 125.347 219.613 125.4 219.524 125.449C225.342 123.173 232.193 123.365 238.109 125.091C247.097 127.7 254.726 133.277 262.148 138.756C264.34 140.376 266.547 142.004 268.786 143.559C269.966 144.372 271.158 145.131 272.376 145.895C270.704 141.622 267.633 137.967 264.36 134.803C260.426 130.994 256.145 127.278 251.329 124.63C246.532 122.002 241.186 120.726 235.724 120.932C230.148 121.142 224.736 122.732 219.804 125.297ZM239.701 119.161C239.729 119.218 239.745 119.278 239.749 119.341L239.828 119.345C239.808 119.274 239.801 119.199 239.782 119.127C239.761 119.145 239.737 119.152 239.701 119.161ZM240.837 119.473C243.343 119.777 245.821 120.357 248.246 121.312C253.651 123.431 258.315 127.044 262.625 130.867C266.144 133.991 269.647 137.389 272.117 141.436C269.958 135.728 267.482 130.131 264.565 124.754C260.546 117.325 255.744 110.324 250.334 103.832C247.385 100.298 244.258 96.915 240.96 93.7059C239.54 101.142 239.385 108.842 240.483 116.335C240.645 117.369 240.696 118.42 240.837 119.473ZM241.3 92.1523C247.467 98.0697 253.091 104.594 257.898 111.659C262.726 118.756 266.91 126.32 270.248 134.226C271.483 137.154 272.591 140.142 273.581 143.161C274.114 135.052 271.51 127.064 268.856 119.462C267.257 114.887 265.586 110.28 263.262 106.014C261.059 101.96 258.188 98.2904 255.05 94.9103C253.264 92.9894 251.37 91.1876 249.434 89.4225C247.505 87.6814 245.463 86.0473 243.592 84.2391C243.559 84.2096 243.549 84.1737 243.539 84.1378C242.788 86.2633 242.136 88.4263 241.617 90.6051C241.514 91.1328 241.406 91.6365 241.3 92.1523ZM249.791 73.7659C247.991 74.7097 246.819 76.6529 245.959 78.4226C245.081 80.2226 244.31 82.084 243.624 83.974C243.677 83.9341 243.749 83.9148 243.828 83.9706C245.683 85.3854 247.429 86.9703 249.178 88.516C250.927 90.0618 252.641 91.6683 254.31 93.2996C257.621 96.5565 260.669 100.076 263.093 104.045C265.681 108.291 267.515 112.881 269.271 117.516C270.951 121.915 272.583 126.328 273.758 130.901C274.868 135.234 275.473 139.691 275.115 144.148C275.489 142.624 275.824 141.097 276.105 139.56C276.27 132.614 274.748 125.645 272.463 119.086C270.713 114.09 268.553 109.241 266.364 104.427C264.157 99.5913 261.958 94.7408 259.748 89.8934C257.268 84.4254 254.78 78.9726 252.393 73.4669C252.365 73.4103 252.376 73.356 252.387 73.3017C251.501 73.2053 250.622 73.3252 249.791 73.7659ZM270.581 95.8441C268.634 91.6446 266.311 87.6227 263.608 83.8566C262.271 81.9824 260.834 80.1609 259.316 78.4249C258.019 76.9377 256.692 75.433 255.038 74.3365C254.354 73.891 253.612 73.5638 252.848 73.3962C257.541 83.1464 262.028 92.9903 266.536 102.816C270.825 112.161 275.135 121.68 276.592 131.95C276.708 132.766 276.777 133.594 276.845 134.423C277.002 133.047 277.096 131.674 277.175 130.293C277.171 130.282 277.177 130.254 277.174 130.242C277.149 128.812 277.125 127.382 277.152 125.951C277.161 125.076 277.198 124.207 277.222 123.341C277.206 122.947 277.203 122.55 277.175 122.16C276.8 115.641 275.516 109.224 273.427 103.061C273.144 103.009 272.897 102.613 273.114 102.324L273.161 102.26C272.409 100.076 271.552 97.9319 270.581 95.8441ZM274.785 101.954C276.169 105.919 277.225 109.998 277.926 114.146C278.482 110.046 279.393 105.979 280.843 102.102C281.844 99.4221 283.123 96.873 284.734 94.5046C284.713 94.523 284.677 94.5326 284.653 94.539C280.958 96.5034 277.803 99.0929 274.785 101.954ZM285.049 94.343C285.24 94.382 285.397 94.6348 285.263 94.8505C282.672 99.1618 280.868 103.968 279.894 108.899C279.159 112.572 278.814 116.308 278.664 120.055C278.847 122.174 278.931 124.307 278.94 126.447C279.592 124.091 280.328 121.765 281.149 119.467C283.675 112.427 286.97 105.669 290.969 99.3388C292.943 96.219 295.12 93.2371 297.474 90.3874C293.128 90.974 288.939 92.3394 285.049 94.343ZM298.203 90.3332C289.497 101.888 283.011 114.927 279.688 129.043C279.239 130.959 278.83 132.878 278.478 134.819C278.407 135.416 278.333 136 278.258 136.584C280.113 131.97 282.352 127.496 284.856 123.195C289.355 115.473 294.638 108.286 300.287 101.359C303.241 97.7332 306.338 94.2099 309.426 90.7017C305.732 90.0361 301.939 89.9101 298.203 90.3332ZM311.43 117.413C313.456 114.202 315.203 110.81 316.619 107.287C317.329 105.532 317.954 103.748 318.491 101.924C319.054 100.003 319.804 97.7751 319.328 95.7602C318.971 94.2393 317.787 93.3634 316.469 92.7542C313.023 100.669 308.617 108.211 303.81 115.361C298.793 122.824 293.219 129.935 287.047 136.489C283.902 139.832 280.628 143.172 277.137 146.185C277.594 145.973 278.041 145.776 278.494 145.552C278.465 145.252 278.574 144.941 278.899 144.764C281.589 143.313 284.421 142.054 287.217 140.805C296.862 134.861 305.308 127.07 311.43 117.413ZM331.407 129.087C327.442 127.172 323.254 125.716 318.951 124.79C316.881 124.343 314.76 123.898 312.648 123.822C311.171 123.768 309.623 123.926 308.329 124.606C305.736 127.854 302.856 130.895 299.752 133.676C298.346 134.938 296.893 136.123 295.406 137.278C295.881 137.086 296.341 136.886 296.815 136.695C302.799 134.272 308.858 132.034 314.999 130.004C318.523 128.842 322.083 127.812 325.675 126.85C326.07 126.745 326.314 127.321 325.914 127.454C313.661 131.427 301.624 135.921 289.881 141.22C287.404 142.846 284.841 144.34 282.219 145.71C283.992 145.337 285.769 144.977 287.536 144.581C291.591 143.674 295.635 142.771 299.677 141.817C307.885 139.889 316.072 137.837 324.221 135.642C328.495 134.498 332.762 133.329 337.039 132.197C336.884 132.097 336.732 132.01 336.589 131.907C334.915 130.88 333.189 129.944 331.407 129.087ZM341.234 135.641C340.349 134.492 339.17 133.589 337.954 132.786C329.98 135.396 321.886 137.602 313.775 139.748C305.64 141.901 297.461 143.937 289.255 145.775C286.107 146.477 282.957 147.218 279.8 147.884C287.094 148.15 294.411 147.923 301.697 147.485C306.055 147.229 310.409 146.91 314.774 146.587C319.218 146.27 323.665 145.913 328.06 145.223C332.84 144.482 337.64 143.338 342.159 141.576C342.753 139.583 342.663 137.477 341.234 135.641ZM341.944 142.211C333.977 145.756 325.204 146.771 316.586 147.552C307.715 148.35 298.815 149.129 289.902 149.386C287.342 149.456 284.769 149.478 282.207 149.446C284.113 149.615 286.022 149.797 287.925 149.955C291.992 150.289 296.055 150.561 300.127 150.818C304.199 151.074 308.272 151.241 312.345 151.356C316.504 151.461 320.666 151.527 324.825 151.196C327.037 151.026 329.242 150.731 331.414 150.265C333.498 149.809 335.446 149.083 337.425 148.373C338.248 147.665 339.026 146.88 339.729 146.011C340.637 144.896 341.441 143.59 341.944 142.211ZM320.663 155.055C325.625 154.227 330.973 152.833 335.285 150.011C334.427 150.305 333.559 150.563 332.697 150.794C330.791 151.291 328.846 151.645 326.88 151.877C322.752 152.366 318.603 152.349 314.463 152.316C306.119 152.254 297.761 152.041 289.436 151.474C287.148 151.317 284.845 151.151 282.557 150.943C282.124 150.905 281.675 150.858 281.241 150.821C293.684 155.737 307.436 157.263 320.663 155.055ZM310.409 160.931C310.038 159.838 309.656 158.747 309.262 157.659C306.623 157.673 303.978 157.573 301.359 157.326C300.527 157.24 299.693 157.143 298.859 157.046C301.613 159.182 303.675 162.042 305.261 165.132C307.254 169.024 308.75 173.216 310.008 177.382C311.145 181.145 311.986 184.999 312.203 188.918C312.222 188.797 312.253 188.673 312.275 188.565C313.868 179.338 313.401 169.841 310.409 160.931ZM275.935 154.525C275.788 156.848 275.469 159.153 275.322 161.475C275.02 166.187 275.055 170.912 275.543 175.605C276.467 184.504 279.099 193.318 283.965 200.892C286.3 204.526 289.134 207.872 292.446 210.654C293.871 211.851 295.51 212.99 297.331 213.464C292.017 207.665 288.322 200.534 285.677 193.16C282.519 184.346 280.847 175.095 279.119 165.924C278.306 161.6 277.43 157.28 276.507 152.974C276.51 152.986 276.501 153.001 276.504 153.013C276.501 153.193 276.362 153.295 276.194 153.339C276.111 153.605 276.032 153.883 275.941 154.164C275.949 154.29 275.942 154.408 275.935 154.525ZM246.003 217.126C245.52 219.346 245.209 221.584 245.043 223.835C245.222 223.544 245.388 223.256 245.542 222.971C246.286 221.63 247.03 220.289 247.774 218.948C249.292 216.232 250.809 213.517 252.323 210.789C255.302 205.438 258.293 200.083 261.332 194.766C262.188 193.267 263.046 191.78 263.914 190.277C264.317 189.579 264.711 188.896 265.129 188.207C265.22 188.067 265.296 187.919 265.386 187.779C255.568 194.706 248.54 205.388 246.003 217.126ZM266.552 187.005C266.466 187.451 266.232 187.822 266.014 188.252C265.671 188.934 265.297 189.599 264.939 190.272C264.195 191.613 263.463 192.951 262.719 194.292C261.217 197.016 259.715 199.74 258.225 202.461C255.273 207.819 252.352 213.193 249.476 218.595C248.666 220.12 247.865 221.63 247.055 223.156C246.656 223.917 246.257 224.678 245.858 225.439C245.686 225.754 245.532 226.091 245.363 226.418C255.472 219.234 260.735 207.279 264.201 195.704C265.069 192.816 265.84 189.902 266.609 186.977L266.552 187.005ZM305.358 237.754C311.765 237.771 317.17 233.86 322.624 230.898C320.518 231.514 318.399 232.081 316.264 232.589C312.019 233.597 307.677 234.298 303.311 234.428C299.748 234.536 296.234 234.207 292.82 233.44C296.648 235.802 300.827 237.749 305.358 237.754ZM289.157 231.022L289.33 231.142C289.753 231.285 290.18 231.44 290.612 231.568C298.521 233.838 306.902 233.082 314.827 231.344C317.262 230.808 319.669 230.163 322.065 229.483C324.234 228.864 326.431 228.109 328.665 227.729C329.137 227.384 329.674 227.138 330.23 226.963C325.64 225.396 320.893 224.153 316.029 224.39C309.481 224.707 303.695 227.962 297.533 229.818C294.811 230.624 291.994 231.173 289.157 231.022ZM295.544 259.535C297.145 263.353 298.903 267.038 301.43 270.339C305.821 276.09 311.822 280.577 318.533 283.257C321.003 284.238 323.488 284.893 326.045 285.338C319.307 280.881 313.234 275.504 307.622 269.694C306.073 268.082 304.554 266.436 303.056 264.772C301.246 262.999 299.525 261.125 297.801 259.29C296.34 257.718 294.904 256.14 293.472 254.535C294.177 256.207 294.843 257.876 295.544 259.535ZM297.68 255.679C299.352 257.707 301.07 259.71 302.796 261.698C304.015 262.989 305.2 264.3 306.32 265.655C311.971 271.801 318.082 277.605 324.907 282.435C325.747 283.031 326.596 283.612 327.465 284.175C327.915 284.465 328.365 284.755 328.815 285.045C328.894 285.101 329.294 285.301 329.643 285.503C329.642 285.259 329.629 285.019 329.628 284.776C329.605 284.115 329.597 283.463 329.573 282.802C329.53 281.633 329.471 280.456 329.388 279.285C329.067 274.74 328.323 270.193 326.349 266.039C324.628 262.395 321.945 259.278 318.391 257.317C315.095 255.506 311.424 254.59 307.775 253.758C304.03 252.901 300.235 252.147 296.649 250.734C294.987 250.089 293.386 249.286 291.829 248.407C293.812 250.827 295.706 253.296 297.68 255.679Z" fill="#7B9E9D"/>
</svg>
