<svg width="134" height="125" viewBox="0 0 134 125" fill="none" xmlns="http://www.w3.org/2000/svg">
<rect width="134" height="125" fill="#1E1E1E"/>
<g clip-path="url(#clip0_0_1)">
<rect width="1920" height="10322" transform="translate(-1591 -9825)" fill="white"/>
<rect x="-1591" y="-284" width="1920" height="718" fill="#C4DDDC"/>
<line x1="-1114" y1="61.5" x2="4" y2="61.4999" stroke="black" stroke-opacity="0.2"/>
<g clip-path="url(#clip1_0_1)">
<path d="M25.4862 85.5034L25.4033 85.5126C22.5541 84.512 19.5484 84.7323 16.5841 84.8379C15.0789 84.893 13.56 84.9021 12.0686 84.6634C10.7798 84.4569 9.51398 84.0667 8.32643 83.525C6.97317 82.9053 5.71655 82.0791 4.61645 81.0876C4.45995 80.9499 4.47837 80.6974 4.6809 80.6102C8.19294 79.077 12.1515 78.1085 15.9535 79.0908C17.721 79.5498 19.3044 80.4404 20.8004 81.4686C22.3009 82.5014 23.7048 83.6719 25.2744 84.6084C26.5034 85.3428 27.8291 85.99 29.2284 86.3068C29.9694 86.4353 30.7151 86.4904 31.4654 86.4445C32.6345 86.0681 33.8221 85.7513 35.0235 85.5034C36.9705 85.0995 38.9544 84.9021 40.9336 84.9297C39.1431 83.6031 37.081 82.8227 34.959 82.1984L34.9544 82.1984L34.8578 82.2168L34.8485 82.2168C31.7416 82.8273 28.2111 83.1303 25.3159 81.6017C22.7704 80.2567 21.2193 77.6632 20.4506 74.9733C19.9442 73.2014 19.7233 71.3653 19.5346 69.5384C19.5024 69.2354 19.8798 69.1344 20.0455 69.3089C20.1053 69.2767 20.1928 69.2905 20.2158 69.3594C20.2388 69.4328 20.2618 69.5062 20.2849 69.5797C20.3355 69.6118 20.3723 69.6715 20.3815 69.7541C20.3861 69.8138 20.3953 69.8735 20.4045 69.9331C20.5334 70.305 20.6807 70.6676 20.8924 71.0073C21.2101 71.5214 21.6243 71.985 22.0754 72.389C23.088 73.2978 24.317 73.8808 25.5598 74.4041C26.8394 74.9412 28.1329 75.4415 29.3342 76.153C30.4251 76.7956 31.4332 77.5622 32.3538 78.4344C33.3848 79.4121 34.2824 80.5184 35.0465 81.7119C35.4884 81.845 35.9302 81.9873 36.3675 82.1388C38.1765 82.7722 39.921 83.626 41.3249 84.9434C42.3698 84.971 43.41 85.0536 44.4503 85.2097C46.1488 85.4621 47.8104 85.8799 49.4399 86.4169C45.5964 84.3375 41.8404 81.9414 39.3778 78.2554C38.6414 77.1491 38.0476 75.9602 37.6379 74.6933C37.5781 74.5097 37.7116 74.2618 37.9371 74.3123C38.043 74.3352 38.1489 74.3674 38.2547 74.3949L38.31 74.4087C43.0326 75.6022 47.166 78.7787 49.6056 82.9742C50.3052 84.1769 50.8668 85.453 51.2672 86.7841C51.2902 86.8622 51.281 86.931 51.258 86.9907C51.3317 87.032 51.4007 87.0733 51.4744 87.1147L51.5434 87.1881C52.1326 87.4268 52.7218 87.6701 53.3017 87.9363C55.8656 89.1068 58.3189 90.5207 60.6388 92.1181C61.0393 92.2742 61.4443 92.421 61.8586 92.5266C61.1497 92.0263 60.4731 91.4617 59.8471 90.8879C58.7976 89.9285 57.8264 88.8865 56.9565 87.7619C55.2073 85.5035 53.8403 82.9558 52.9105 80.2613C51.9853 77.5668 51.5434 74.73 51.5756 71.884C51.5848 71.2138 51.5894 70.5207 51.8794 69.901C52.197 69.217 52.8506 68.96 53.5641 68.8865C54.9542 68.7397 56.3949 68.9049 57.7344 69.2767C60.4317 70.0203 62.885 71.6361 64.5651 73.8762C64.717 74.0782 64.8551 74.2939 64.9932 74.5051C65.1543 74.1746 65.3108 73.8441 65.4811 73.5227C66.4523 71.6912 67.6445 69.9607 69.1773 68.5515C69.9275 67.8629 70.8159 67.1055 71.87 66.9999C72.8642 66.8989 73.6927 67.459 74.3095 68.1842C74.9769 68.9692 75.4833 69.9194 75.962 70.8328C76.4867 71.8335 76.9378 72.8755 77.2876 73.9497C77.932 75.9189 78.2174 78.0396 78.0563 80.1053C78.0701 80.0456 78.0885 79.9859 78.0977 79.9262C78.3233 78.8521 78.4476 77.755 78.4752 76.6533C78.5304 74.4775 78.1944 72.2788 77.4671 70.2223C76.97 68.8177 76.2888 67.514 75.5155 66.2609C73.9183 64.769 71.8792 63.8647 70.1761 62.5106C68.4546 61.1427 67.2992 59.2515 66.9678 57.0665C66.7837 55.8593 66.8712 54.6336 67.2164 53.4631C67.2486 53.3438 67.4327 53.2795 67.534 53.3346C71.023 55.2809 73.6467 58.5583 74.8619 62.3499C75.1795 63.346 75.3958 64.3743 75.5063 65.4163C76.3854 66.7199 77.1725 68.0878 77.7571 69.5476C78.5718 71.5948 79.0137 73.8028 79.0413 76.0015C79.0552 77.2363 78.9539 78.4665 78.7283 79.6783C78.5534 80.6056 78.3187 81.5558 77.9873 82.4509C78.3785 81.9092 78.7375 81.3538 79.0321 80.7479C79.4694 79.8482 79.787 78.8934 80.0126 77.9157C80.4959 75.8133 80.5235 73.6605 80.367 71.5168C80.3624 71.4296 80.3532 71.3469 80.344 71.2597C80.2197 71.1863 80.1368 71.021 80.2381 70.865C79.9343 69.3685 79.3958 67.9823 78.7191 66.6189C78.0149 65.1959 77.2554 63.7913 76.8549 62.2444C76.0402 59.0908 76.6386 55.6665 78.489 52.9811C79.3681 51.705 80.5189 50.562 81.8906 49.823L81.9274 49.7312C81.932 49.722 81.9366 49.722 81.9412 49.7128C81.9412 49.7082 81.9412 49.7082 81.9458 49.7037C81.9642 49.6486 81.9826 49.5935 81.9964 49.5338C82.0286 49.4282 82.1207 49.3272 82.2312 49.3089C82.291 49.2997 82.3739 49.3272 82.4061 49.3823L82.4337 49.4328L82.4475 49.5384L82.4475 49.5843C82.4475 49.5889 82.4429 49.5935 82.4429 49.6027C82.4797 49.621 82.5074 49.6532 82.4981 49.7082C82.3094 50.4611 82.1115 51.2093 81.9964 51.9759C81.8814 52.7287 81.8307 53.4861 81.8261 54.2481C81.8169 55.7629 81.9642 57.2777 82.1345 58.7833C82.4383 61.5329 82.7881 64.3421 82.2956 67.0963C82.0425 68.5193 81.5453 69.8826 80.7444 71.0853C80.8825 73.2519 80.8779 75.4186 80.4268 77.576C80.1967 78.6685 79.8607 79.738 79.3774 80.7479C79.1288 81.262 78.8434 81.7761 78.5074 82.2535L78.5672 82.2397C78.8941 82.2168 79.2209 82.2076 79.5477 82.2076C81.5453 81.1518 83.3911 79.8298 85.0574 78.3013C84.9607 78.0626 84.8687 77.8239 84.7904 77.576C84.2104 75.8546 83.9665 74.0277 84.1046 72.2145C84.169 71.3745 84.2611 70.4243 84.6707 69.6715C84.8917 69.2675 85.2323 68.9646 85.6235 68.8315C85.6235 68.8269 85.6189 68.8177 85.6189 68.8131C85.444 68.7397 85.4256 68.5193 85.5269 68.4046C85.2921 67.3947 85.1863 66.3435 85.1679 65.3153C85.1402 63.9703 85.2553 62.6208 85.5177 61.3033C85.7846 59.9538 86.2035 58.6364 86.7651 57.3786C87.0412 56.759 87.3542 56.1576 87.6995 55.5747C88.0309 55.0146 88.3807 54.4363 88.818 53.9497C89.2276 53.4907 89.7708 53.05 90.406 52.9857C90.9675 52.9306 91.4831 53.1831 91.8375 53.61C92.1919 54.0369 92.3714 54.5877 92.4957 55.1202C92.6614 55.8042 92.7765 56.5019 92.8778 57.1996C93.3012 60.1007 93.3104 63.066 92.9192 65.9717C92.887 66.1966 92.8502 66.4216 92.8133 66.6465C93.3381 65.3382 93.7845 63.9979 94.0607 62.6116C94.3875 60.9591 94.5256 59.2744 94.452 57.5898C94.3783 55.9097 94.1022 54.2435 93.6004 52.6368C93.0803 50.9614 92.3254 49.3961 91.4601 47.8767C91.0136 47.0964 90.5579 46.3252 90.1068 45.5448C89.8767 45.1409 89.6373 44.7369 89.4256 44.3238C89.2829 44.053 89.1724 43.75 89.1494 43.4379C89.108 42.832 89.4992 42.4372 90.0332 42.428C88.482 41.3722 86.8249 40.4404 85.2461 39.4856C83.4371 38.3931 81.665 37.2134 80.1737 35.7078C79.5615 35.0881 78.5626 34.1792 78.7744 33.2015C78.9861 32.2467 80.0862 32.0264 80.9055 31.8749C82.7421 31.5352 84.6293 31.5674 86.4567 31.9208C86.047 31.5949 85.665 31.2323 85.3013 30.8467C84.4406 29.924 83.7409 28.8545 83.2392 27.7023C82.9953 27.1377 82.8019 26.5547 82.6546 25.958C82.5258 25.4347 82.3462 24.7783 82.6592 24.2871C83.0275 23.6996 83.8882 23.8143 84.4866 23.8327C85.2185 23.8556 85.9457 23.9337 86.6638 24.0622C87.4739 24.2091 88.2702 24.4432 89.0435 24.7278C89.4302 24.8701 89.8122 25.0307 90.185 25.2098C90.5533 25.3842 90.9768 25.5586 91.2759 25.8387C91.5475 25.4255 91.8237 25.0124 92.1137 24.6084C92.4773 24.1035 92.887 23.6078 93.3933 23.2405C93.8766 22.8917 94.4474 22.6805 95.0504 22.7356C95.7132 22.7999 96.2931 23.1992 96.7811 23.6215C97.9042 24.5947 98.8846 25.7468 99.6763 27C100.072 27.6289 100.427 28.2807 100.735 28.9555C100.845 29.1987 100.951 29.4466 101.053 29.6991C101.062 27.8722 100.799 26.059 100.519 24.2504C100.316 22.9376 100.114 21.6156 100.026 20.289L100.003 20.2063L99.9203 20.1742C99.4462 19.7978 98.9721 19.4811 98.4151 19.2424C97.8581 19.0037 97.2828 18.8293 96.712 18.6227C95.5613 18.2004 94.4888 17.5853 93.5452 16.8049C91.5705 15.1799 90.2081 12.9123 89.7202 10.4014C89.5729 9.65782 89.5084 8.89582 89.5176 8.13842C89.5222 7.52791 89.5498 6.85773 89.7109 6.25181C89.7063 6.17836 89.6971 6.10951 89.6971 6.03606C89.6925 5.84327 89.8813 5.62753 90.093 5.74228C94.2402 7.96399 97.964 11.6179 99.5198 16.1256C99.7315 16.7361 99.8972 17.3604 100.017 17.9938L100.022 18.0076C100.031 17.8607 100.035 17.7184 100.049 17.5715C100.063 17.4063 100.086 17.2456 100.109 17.0803C100.104 17.0069 100.1 16.9289 100.095 16.8554C100.045 15.9649 100.017 15.0744 100.035 14.1793C100.072 12.5681 100.279 10.9661 100.776 9.42371C101.241 7.98694 101.969 6.62821 102.977 5.499C103.929 4.43404 105.089 3.57566 106.323 2.85498C107.745 2.02414 109.241 1.3769 110.774 0.784748C110.889 0.738845 111.013 0.881148 110.926 0.982135L110.926 0.986723L110.953 1.01886C111.078 1.05099 111.184 1.15657 111.151 1.32182C110.654 4.076 110.12 6.90363 108.551 9.28141C107.837 10.3601 106.921 11.269 105.83 11.9667C104.689 12.6966 103.418 13.2383 102.374 14.1104C101.702 14.6704 101.108 15.4187 100.841 16.2541C100.79 16.5203 100.744 16.782 100.703 17.0482C100.763 17.8286 100.845 18.6089 100.818 19.3893C100.836 20.569 100.891 21.7533 100.993 22.9238C101.016 23.2176 101.048 23.5114 101.085 23.8006L101.089 23.7546C101.172 22.8963 101.356 22.047 101.633 21.2254C102.185 19.5775 103.11 18.0443 104.339 16.8049C104.675 16.4652 105.025 16.1439 105.402 15.8455C105.771 15.5564 106.189 15.2304 106.641 15.0836L106.687 15.0836L106.71 14.9963C106.742 14.8999 106.848 14.9229 106.889 14.9872C106.967 14.9413 107.073 15.0514 107.004 15.1249C106.967 15.1616 106.935 15.2029 106.898 15.2442C106.861 15.9878 106.696 16.7452 106.548 17.4705C106.387 18.2509 106.189 19.0266 105.927 19.7794C105.398 21.3034 104.551 22.6667 103.552 23.9245C103.009 24.6084 102.429 25.2694 101.844 25.9167C101.83 26.0039 101.817 26.0865 101.807 26.1737C101.734 26.7475 101.683 27.3213 101.665 27.8997C101.656 28.1935 101.651 28.4873 101.656 28.7764C101.66 29.084 101.637 29.3594 101.591 29.6578C101.582 29.7312 101.517 29.7771 101.448 29.7955C101.435 29.9424 101.421 30.0847 101.402 30.2316C102.498 27.9043 104.473 25.9718 106.705 24.7416C107.805 24.1356 109.563 23.4333 110.502 24.6911C110.926 25.2557 110.977 25.9993 110.963 26.6787C110.949 27.5279 110.871 28.3817 110.737 29.2217C110.452 30.9798 109.899 32.6874 109.108 34.2802L109.117 34.271C109.706 33.7432 110.323 33.252 110.967 32.793C112.247 31.8795 113.637 31.1129 115.082 30.5024C115.722 30.2316 116.509 29.9607 117.177 30.3004C117.743 30.5896 117.991 31.1955 118.028 31.8015C118.07 32.4992 117.904 33.2015 117.729 33.8717C117.54 34.597 117.296 35.3084 116.993 35.997C115.718 38.8935 113.517 41.1565 110.838 42.7998C108.031 44.5258 104.905 45.6779 102.12 47.4452C101.817 47.638 101.517 47.84 101.223 48.0511C102.963 47.1836 104.864 46.6786 106.746 46.215C108.555 45.7698 110.355 45.2832 112.136 44.7553C115.86 41.9277 119.727 39.0495 124.316 37.8148C125.54 37.4843 126.815 37.2455 128.086 37.319L128.132 37.342C128.205 37.2823 128.316 37.3787 128.288 37.4705C128.261 37.5669 128.224 37.6587 128.192 37.7505L128.192 37.8377L128.15 37.879C127.786 38.8522 127.193 39.7519 126.557 40.5689C125.826 41.5054 124.965 42.3546 124.021 43.0752C121.978 44.6405 119.501 45.5999 116.937 45.8524C115.418 46.0039 113.881 45.9075 112.394 45.5678C112.233 45.5311 112.164 45.3979 112.159 45.2648L112.136 45.251C110.884 45.632 109.628 45.9901 108.362 46.3206C107.285 46.6006 106.194 46.8668 105.117 47.1744C106.217 47.0872 107.336 47.1652 108.422 47.3396C109.789 47.56 111.124 47.9685 112.422 48.4643C112.505 48.4321 112.597 48.4459 112.67 48.5331C117.531 47 121.724 50.8099 125.784 52.7975C127.004 53.3942 128.288 53.8625 129.641 54.0323C129.862 54.0598 129.973 54.3949 129.766 54.5189C129.526 54.6704 129.278 54.7805 129.025 54.8815C128.592 55.1156 128.122 55.2992 127.662 55.4599C127.013 55.6848 126.337 55.8501 125.655 55.9602C124.251 56.1852 122.801 56.1714 121.407 55.9189C118.838 55.4599 116.514 54.17 114.682 52.3293C114.185 51.8336 113.729 51.2965 113.319 50.7227C112.942 50.1902 112.505 49.5843 112.284 48.9554C111.345 48.5928 110.387 48.2761 109.398 48.042C107.377 47.5646 105.352 47.4728 103.303 47.7528C102.668 47.9823 102.047 48.2439 101.444 48.5515C100.422 49.0748 99.4554 49.7496 98.6591 50.5804C98.2632 50.9935 97.9042 51.4434 97.6004 51.9299C97.5728 51.9713 97.5544 52.0126 97.5267 52.0539C97.4485 52.2696 97.3748 52.4854 97.3012 52.7011C97.1217 53.2244 96.9606 53.7615 96.7074 54.2618C96.6752 54.3307 96.6108 54.3628 96.5463 54.3674C96.4312 54.8494 96.33 55.3405 96.2517 55.8271C96.1689 56.3366 96.086 56.8462 96.0354 57.3603C96.0308 57.4154 95.9894 57.4337 95.9479 57.4337C95.7316 58.5308 95.4554 59.6187 95.1608 60.6883C95.7408 59.3066 96.3852 57.9478 97.1401 56.6442C97.8858 55.3543 98.7649 54.1195 99.9249 53.1602C100.477 52.7057 101.117 52.2834 101.84 52.187C102.53 52.0952 103.17 52.389 103.515 52.9903C103.856 53.5825 103.888 54.2985 103.929 54.9641C103.957 55.4094 103.966 55.8547 103.971 56.2999C104.095 56.1163 104.238 55.9419 104.399 55.7812C105.076 55.1156 105.964 54.7713 106.903 54.7071C108.072 54.6245 109.232 54.9366 110.346 55.2442C111.52 55.5655 112.689 55.8868 113.858 56.2081C114.995 56.5249 116.146 56.814 117.273 57.1583C118.139 57.4245 119.032 57.8055 119.584 58.5584C120.192 59.3846 120.274 60.4587 120.261 61.4502C120.247 62.4188 120.104 63.3828 119.837 64.3192C119.253 66.3756 118.106 68.2393 116.523 69.6807C116.827 69.7954 117.126 69.9148 117.425 70.0341C118.447 70.4427 119.483 70.8466 120.472 71.324C121.301 71.7234 122.12 72.2742 122.456 73.1693C123.17 75.0697 121.66 77.1537 120.385 78.4206C119.446 79.3524 118.346 80.1236 117.177 80.7525L117.172 80.7525C116.555 81.083 115.92 81.3768 115.271 81.6292C112.417 82.7447 109.283 83.1165 106.245 82.7217C109.669 84.4385 112.657 87.0228 114.779 90.2269C115.432 91.2138 116.192 92.5174 115.773 93.7431C115.299 95.1339 113.559 95.0651 112.362 95.0192C109.384 94.909 106.452 93.9404 103.98 92.2787C101.43 90.562 99.5842 87.8124 96.7304 86.5455C95.0872 86.4674 93.4531 86.091 91.9296 85.4254C90.5809 84.8379 89.3749 84.0162 88.3209 83.0293C88.2334 82.9696 88.1413 82.9053 88.0631 82.8319C88.0309 82.8044 88.0171 82.7722 88.0125 82.7355C87.299 82.0194 86.6638 81.2253 86.1299 80.3669C85.2139 80.7525 84.2611 81.0692 83.3175 81.3951C83.2162 81.5053 83.0689 81.5742 82.94 81.6522C82.7007 81.7899 82.4567 81.9138 82.2128 82.0378C82.0425 82.1204 81.8721 82.1938 81.6972 82.2627C82.0379 82.3224 82.3785 82.3958 82.7145 82.483C84.1184 82.7493 85.4993 83.1624 86.8111 83.6673C89.4854 84.7001 91.9848 86.1277 94.3737 87.7022C94.8156 87.9914 95.2575 88.2898 95.6948 88.5927C98.7097 89.5751 101.444 91.2413 104.095 92.9397C106.949 94.7713 109.794 96.6533 112.951 97.9248C114.245 98.4435 115.575 98.8199 116.937 99.077C117.402 99.1045 117.863 99.1183 118.327 99.1091C118.452 99.1045 118.507 99.2422 118.461 99.3203C118.525 99.3432 118.539 99.4029 118.516 99.458C118.645 99.5085 118.571 99.6967 118.442 99.6875C117.499 99.6232 116.564 99.5727 115.621 99.6003C114.682 99.6324 113.747 99.7242 112.808 99.8114C110.981 99.9813 109.112 100.16 107.294 99.8252C103.699 99.1642 101.297 96.3733 99.1792 93.6283C98.3553 92.5588 97.5359 91.4708 96.6154 90.4793C97.5175 92.2512 97.7523 94.3811 97.941 96.4008C98.3691 96.5569 98.7741 96.9012 99.1332 97.1582C99.5428 97.452 99.9433 97.7596 100.33 98.0809C101.094 98.7143 101.807 99.4167 102.456 100.165C103.124 100.936 103.722 101.767 104.242 102.644C104.79 103.566 105.191 104.572 105.743 105.49C106.056 106.008 106.424 106.495 106.903 106.871C107.377 107.248 107.911 107.422 108.486 107.578C108.588 107.606 108.601 107.743 108.491 107.771C108.537 107.881 108.496 108.019 108.339 108.037C108.238 108.051 108.137 108.056 108.035 108.065L108.026 108.069C107.326 108.184 106.613 108.193 105.904 108.193C105.214 108.193 104.519 108.157 103.833 108.069C102.668 107.923 101.513 107.601 100.482 107.027C99.4692 106.463 98.6314 105.669 98.0607 104.659C97.4853 103.64 97.1861 102.478 97.0895 101.317C97.0204 100.528 97.0388 99.7288 97.0941 98.9439C97.1493 98.1452 97.1815 97.2914 97.3564 96.5064C97.3748 96.433 97.4117 96.3779 97.4577 96.3458C97.3794 95.3956 97.2966 94.4454 97.1263 93.5044C96.8639 92.063 96.3944 90.5803 95.5199 89.3914C95.5153 89.3868 95.5153 89.3869 95.5107 89.3823C93.3841 88.0189 91.2391 86.674 88.9745 85.5494C87.322 84.7277 85.5867 83.9749 83.8008 83.4378C83.6581 83.4057 83.5154 83.3644 83.3727 83.3322C82.1529 83.0706 80.9285 82.9375 79.6904 82.9008C79.5615 82.9329 79.428 82.9512 79.2991 82.9788C79.1702 83.0339 79.0413 83.089 78.9125 83.144C78.6823 83.2542 78.4476 83.3552 78.2174 83.4562C81.2093 83.6214 84.2104 84.5533 86.8709 85.8615C88.3853 86.6051 89.826 87.5048 91.1517 88.5514C92.284 89.4419 93.7569 90.7272 93.2828 92.343C92.8502 93.8165 91.0918 94.5326 89.826 95.1201C88.2012 95.873 86.5027 96.4559 84.7674 96.8828C83.4325 97.2087 82.0747 97.4337 80.7076 97.5576C81.4441 98.6501 81.9688 99.9078 82.3324 101.161C82.7697 102.667 82.9492 104.241 82.8756 105.806C82.8019 107.376 82.4659 108.937 81.8906 110.406C81.6052 111.14 81.2554 111.847 80.8549 112.527C80.4867 113.146 80.0908 113.816 79.5201 114.276C78.1898 115.345 76.565 114.289 75.3728 113.532C74.1116 112.733 72.9332 111.806 71.8516 110.778C70.9402 109.91 70.0978 108.974 69.3292 107.987C69.3614 108.854 68.9701 109.795 68.6479 110.534C68.0357 111.944 67.244 113.279 66.3326 114.514C65.4213 115.744 64.3718 116.92 63.1888 117.893C62.6043 118.375 61.9184 118.802 61.1497 118.875C60.4179 118.944 59.7136 118.696 59.1106 118.297C56.6665 116.695 56.0589 113.408 56.0911 110.704C56.1141 108.758 56.3903 106.802 56.8598 104.902C55.1567 105.269 53.3616 105.233 51.6401 104.998C49.8633 104.76 48.1234 104.278 46.4618 103.617C45.0164 103.038 43.6356 102.318 42.3099 101.501C41.7944 101.23 41.2881 100.936 40.8094 100.601C40.4457 100.344 40.1005 100.068 39.7645 99.7747C39.1615 99.3203 38.5815 98.8383 38.1028 98.2553C37.6517 97.7045 37.2881 97.0435 37.2191 96.3228C37.1961 96.0841 37.2099 95.85 37.2513 95.6251C37.2237 95.5379 37.2375 95.4461 37.3065 95.3818C37.4124 94.9824 37.6057 94.6106 37.8543 94.2709C38.31 93.6604 38.9268 93.1876 39.5574 92.7699C40.2478 92.3109 40.9751 91.9115 41.7253 91.5627C44.8093 90.1397 48.2661 89.6715 51.6355 89.9101C53.4582 90.0387 55.2626 90.3738 57.0255 90.8557C57.5917 91.0118 58.1532 91.1817 58.7102 91.3653C57.205 90.4794 55.6768 89.6301 54.0934 88.8819C51.3409 87.5783 48.4456 86.55 45.4445 85.9946C42.9175 85.5264 40.3537 85.4392 37.8082 85.7192C35.9394 86.6556 34.2778 88.0098 33.0074 89.6669C33.0304 89.6944 33.0396 89.7311 33.0258 89.777C32.2663 92.1364 32.7772 94.606 32.9798 97.0114C33.081 98.1911 33.1086 99.3891 32.8739 100.555C32.6437 101.703 32.2019 102.8 31.6449 103.828C31.0005 105.026 30.2272 106.141 29.4493 107.252C29.2606 107.523 28.9108 107.252 28.9936 106.981C29.7531 104.406 28.5379 101.776 28.027 99.279C27.7692 98.0258 27.6634 96.7084 27.9902 95.4598C28.2664 94.3949 28.8141 93.4263 29.4953 92.5679C30.287 91.5718 31.2399 90.7135 32.2065 89.8964L32.2985 89.8459C32.8325 89.0977 33.4354 88.3999 34.1259 87.7665C34.9774 86.9907 35.9302 86.3389 36.9567 85.8248C36.6989 85.8615 36.4412 85.8982 36.1788 85.9395C33.3664 86.4261 30.6461 87.3258 28.0178 88.4275C27.1202 89.139 26.3009 89.9469 25.592 90.842C24.6392 92.0492 23.9488 93.3988 23.2584 94.7621C22.6139 96.0428 21.9419 97.3419 20.9891 98.4298C19.9627 99.6049 18.6462 100.399 17.1318 100.789C15.4426 101.225 13.6796 101.161 11.9719 100.886C11.0606 100.739 10.1584 100.532 9.25622 100.316C8.92941 100.238 8.38626 100.211 8.27579 99.816C8.22516 99.637 8.2942 99.4809 8.40467 99.3386C8.80513 98.1268 9.45875 96.97 10.1814 95.9326C10.9639 94.8126 11.9029 93.7935 12.957 92.9168C15.1848 91.0577 17.8591 89.9423 20.7267 89.5337C22.0754 89.341 23.4563 89.2721 24.8142 89.0931C25.1962 88.9095 25.5736 88.7213 25.9557 88.5422C27.2399 87.9547 28.5471 87.4084 29.8728 86.9265C28.8233 86.7842 27.8383 86.4537 26.8901 86.013C26.4206 85.9028 25.9511 85.71 25.4862 85.5034ZM21.5921 82.6345C20.1192 81.5742 18.5956 80.5459 16.8787 79.9262C15.0651 79.2698 13.1043 79.1275 11.194 79.3295C9.79936 79.4764 8.43689 79.8069 7.11124 80.2567C8.14691 80.1466 9.19177 80.119 10.2274 80.142C12.0778 80.1787 13.9236 80.422 15.728 80.8581C17.5369 81.2941 19.2998 81.9276 20.9753 82.7447C21.9143 83.2037 22.8257 83.704 23.7509 84.1952C23.019 83.6811 22.3009 83.1486 21.5921 82.6345ZM21.8729 83.6811C20.179 82.8089 18.4253 82.0699 16.5841 81.5604C14.7981 81.0692 12.9616 80.7754 11.1112 80.6699C9.17336 80.5597 7.26315 80.7249 5.34833 80.9682C7.24013 82.5565 9.53239 83.6536 11.9719 84.0805C14.927 84.5992 17.9236 84.108 20.897 84.2641C21.9005 84.3146 22.8947 84.4431 23.8521 84.7093C23.1801 84.3697 22.5219 84.0162 21.8729 83.6811ZM22.4252 78.1177C23.1249 79.2239 24.027 80.2062 25.1456 80.8994C26.4114 81.6843 27.9073 82.047 29.3803 82.1617C30.9775 82.2856 32.5701 82.1066 34.1627 81.9735C33.0994 81.6797 32.0316 81.4089 30.9775 81.1243C29.1501 80.6286 27.3181 80.0456 25.6657 79.1046C24.0731 78.2003 22.7014 76.9701 21.698 75.4369C21.3021 74.831 20.9569 74.1838 20.6715 73.5044C21.0029 75.1248 21.5277 76.6992 22.4252 78.1177ZM29.1593 76.6029C26.8026 75.189 23.9304 74.652 21.8453 72.8067C21.4172 72.4257 20.9937 71.962 20.6623 71.4433C20.9201 72.5909 21.3251 73.6972 21.9419 74.7162C22.8763 76.2678 24.1651 77.5485 25.7163 78.4849C28.3216 80.0502 31.3227 80.6515 34.2318 81.4686C32.9429 79.4902 31.1892 77.8193 29.1593 76.6029ZM69.9782 55.6527C69.2969 55.0468 68.5605 54.5051 67.7826 54.0369C69.3614 57.856 72.2566 60.9132 74.6639 64.2136C74.7606 64.3467 74.8527 64.4799 74.9493 64.613C74.3832 61.1748 72.5926 57.98 69.9782 55.6527ZM70.9034 59.8574C69.5823 58.0351 68.3809 56.1163 67.5754 54.0094L67.5754 53.9726C67.1059 55.8914 67.4051 57.9754 68.3533 59.7059C69.4166 61.6385 71.2946 62.7952 73.0759 63.9887C73.7342 64.4294 74.374 64.893 74.9631 65.4117C73.7019 63.5021 72.2428 61.7073 70.9034 59.8574ZM79.115 52.8893C78.2174 54.1195 77.5822 55.5333 77.2738 57.0252C76.9424 58.641 76.9746 60.3302 77.3843 61.9322C77.7709 63.4424 78.5212 64.8241 79.2116 66.2104C79.4832 66.7612 79.764 67.3212 80.008 67.8996C79.8791 66.674 79.7548 65.4484 79.6812 64.2182C79.5477 61.9093 79.6259 59.582 79.9435 57.2868C80.123 55.9878 80.3762 54.6979 80.6984 53.4264C80.9608 52.389 81.2646 51.3562 81.6604 50.3601C80.7122 51.0945 79.8284 51.9116 79.115 52.8893ZM82.0333 63.1532C81.9412 60.2613 81.3566 57.4016 81.3888 54.5005C81.398 53.7982 81.4303 53.0684 81.5223 52.3477C81.4303 52.669 81.3382 52.9857 81.2554 53.3116C80.9562 54.45 80.7168 55.6068 80.5373 56.7681C80.1691 59.1092 80.0218 61.4824 80.1322 63.851C80.2289 65.9488 80.4959 68.0557 80.6662 70.1581C81.8445 68.0465 82.1115 65.5402 82.0333 63.1532ZM99.0549 16.6351C98.7189 15.5839 98.254 14.5694 97.6878 13.6192C96.5095 11.6408 94.9307 9.9011 93.1401 8.45974C92.238 7.72988 91.2713 7.08266 90.2633 6.51346C90.5257 8.86828 92.1505 10.81 93.8628 12.3523C95.796 14.0921 98.0054 15.6436 99.3817 17.902C99.2897 17.4705 99.1884 17.0482 99.0549 16.6351ZM99.575 19.1552C97.8351 15.3957 93.1539 13.3576 90.9261 9.86897C90.5579 9.29059 90.2449 8.67549 90.0239 8.03285C90.0101 8.68008 90.0562 9.3319 90.162 9.97455C90.3692 11.2644 90.8156 12.5313 91.4923 13.656C92.7075 15.6849 94.5993 17.2731 96.8041 18.1361C97.4163 18.3748 98.0515 18.5676 98.6452 18.8476C98.9813 19.0083 99.3311 19.2011 99.6211 19.4489C99.6027 19.348 99.5842 19.2516 99.575 19.1552ZM104.404 12.1412C105.577 11.4664 106.664 10.7457 107.52 9.68076C108.344 8.65713 108.933 7.47282 109.365 6.24262C109.872 4.81045 110.166 3.31401 110.438 1.82216C109.863 2.4694 109.223 3.06154 108.624 3.67664C107.865 4.4524 107.124 5.24194 106.406 6.05443C104.993 7.65185 103.69 9.36403 102.668 11.2369C102.102 12.2743 101.628 13.3668 101.264 14.4914C102.093 13.4494 103.267 12.7976 104.404 12.1412ZM105.329 6.27476C106.13 5.31538 106.977 4.40191 107.847 3.5068C108.505 2.82744 109.172 2.11594 109.89 1.48706C107.653 2.5612 105.37 3.66287 103.644 5.47146C101.527 7.68857 100.74 10.7044 100.597 13.6927C100.583 14.014 100.578 14.3353 100.574 14.6567C101.485 11.5628 103.276 8.73975 105.329 6.27476ZM104.942 20.8673C105.402 19.9539 105.729 18.9853 105.982 17.9984C106.18 17.2364 106.295 16.4423 106.484 15.6757C104.196 18.2922 102.654 21.4916 101.987 24.8885C103.096 23.6445 104.183 22.3684 104.942 20.8673ZM101.775 23.4379C102.355 21.3952 103.29 19.4673 104.509 17.7322C104.979 17.062 105.49 16.4285 106.042 15.8272C105.955 15.8915 105.867 15.9603 105.784 16.0246C105.462 16.2862 105.145 16.557 104.855 16.8508C104.27 17.4338 103.764 18.0994 103.322 18.7971C102.438 20.2018 101.867 21.8129 101.669 23.4609C101.646 23.6674 101.628 23.874 101.614 24.0806C101.669 23.8648 101.715 23.6491 101.775 23.4379ZM127.915 37.6357C126.843 37.7734 125.77 37.9111 124.721 38.1774C123.616 38.4574 122.539 38.8476 121.494 39.3112C119.391 40.2476 117.453 41.5375 115.598 42.887C114.976 43.3369 114.369 43.8005 113.761 44.2641C116.348 43.4562 118.907 42.5565 121.43 41.5375C123.616 40.6561 125.858 39.6646 127.644 38.0994C127.731 37.9479 127.823 37.7918 127.915 37.6357ZM120.146 44.6176C122.378 43.8281 124.376 42.4418 125.908 40.6424C126.438 40.0181 126.884 39.3433 127.308 38.6548C125.931 39.8345 124.334 40.7021 122.668 41.4319C120.371 42.4372 118.014 43.3277 115.644 44.1402C114.691 44.4661 113.729 44.7737 112.767 45.072C115.207 45.5999 117.78 45.4484 120.146 44.6176ZM128.689 54.4546C124.33 53.5182 121.085 49.8919 116.712 48.9417C115.612 48.703 114.466 48.6479 113.361 48.882C113.476 48.9325 113.591 48.9784 113.701 49.0289C117.186 50.5574 120.385 52.6873 123.952 54.0323C125.421 54.5831 127.179 55.0055 128.689 54.4546ZM113.586 50.2132C113.913 50.7135 114.277 51.1909 114.673 51.6408C115.469 52.5405 116.413 53.3162 117.439 53.9405C119.699 55.3176 122.392 55.8868 125.02 55.6022C125.688 55.5287 126.346 55.4048 126.99 55.235C126.314 55.2166 125.637 55.1018 124.979 54.9228C123.207 54.4363 121.526 53.5916 119.897 52.7562C117.642 51.5994 115.414 50.3187 113.075 49.3272C113.246 49.6256 113.402 49.924 113.586 50.2132ZM88.3531 82.4555C88.3991 82.0056 88.5924 81.542 88.7535 81.1381C88.9653 80.601 89.223 80.0823 89.5222 79.582C89.826 79.077 90.1758 78.595 90.5625 78.1452C90.7512 77.9249 90.9491 77.7183 91.1563 77.5163C91.2437 77.4291 91.3404 77.3098 91.4509 77.2088C90.8203 76.8324 90.2357 76.3871 89.7063 75.8455C89.0619 76.8691 88.6108 78.0029 88.3945 79.1964C88.1966 80.2843 88.2426 81.3446 88.3301 82.4325C88.3393 82.4371 88.3439 82.4463 88.3531 82.4555ZM88.6155 82.7125C90.406 83.0109 92.2196 83.144 94.0331 83.0935C95.7178 83.0476 97.4807 82.9191 99.1009 82.4188C99.8328 82.1938 100.565 81.8588 101.191 81.4089C101.172 81.3676 101.163 81.3309 101.158 81.285C100.855 80.9958 100.519 80.7387 100.173 80.5184C98.5072 79.4626 96.5095 79.077 94.6407 78.5308C93.6649 78.2462 92.7213 77.8973 91.8467 77.4291C91.7454 77.5439 91.6028 77.6403 91.4969 77.7367C91.276 77.9386 91.0688 78.159 90.8709 78.3839C90.4981 78.8062 90.162 79.2606 89.8674 79.738C89.5637 80.2246 89.3013 80.7433 89.0803 81.2712C88.8962 81.721 88.7904 82.226 88.5694 82.662C88.5878 82.685 88.6016 82.6988 88.6155 82.7125ZM102.852 53.0224C101.66 54.3123 100.601 55.7307 99.7269 57.2547C98.8478 58.7879 98.1435 60.4082 97.5037 62.0562C96.2793 65.2097 95.2575 68.4688 93.5406 71.4066C92.8225 72.6368 91.9848 73.789 90.9906 74.7989C91.1195 74.9917 91.2898 75.1615 91.4877 75.2992C93.895 73.867 95.8421 71.7463 97.3564 69.4007C99.3495 66.316 100.574 62.809 101.656 59.3203C102.268 57.3465 102.986 55.3084 103.009 53.2198C102.958 53.1464 102.908 53.0821 102.852 53.0224ZM90.9031 53.5779C90.2081 54.2618 89.5683 54.9779 89.0389 55.7996C88.505 56.635 88.0815 57.5439 87.7547 58.4757C87.0136 60.5735 86.7927 62.8044 86.7743 65.0215C86.7651 66.2471 86.8341 67.4727 86.8479 68.6937C87.5844 69.3869 88.2288 70.1994 88.7581 71.0578C88.7766 71.0853 88.795 71.1174 88.8088 71.145C88.795 71.0348 88.7812 70.9201 88.772 70.8099C88.6247 69.4374 88.5694 68.0557 88.5832 66.6786C88.6154 63.8693 88.9975 61.106 89.6281 58.3656C89.9825 56.8278 90.429 55.3084 90.986 53.8303C91.0136 53.7523 91.0642 53.711 91.124 53.6926C91.055 53.6421 90.9768 53.6054 90.9031 53.5779ZM91.4417 54.0231C90.4014 56.5845 89.6603 59.2194 89.2599 61.9552C88.8594 64.6956 88.7766 67.4819 89.0113 70.2407C89.0481 70.6538 89.0942 71.0624 89.1448 71.4663C89.2046 71.5076 89.2599 71.5535 89.3243 71.5902C89.5637 71.5994 89.7984 71.5765 90.0286 71.5168C90.1528 71.122 90.2679 70.7227 90.3646 70.3187C90.6592 69.1069 90.8479 67.8721 90.9906 66.6373C91.2898 64.0208 91.3082 61.386 91.3772 58.7557C91.414 57.2868 91.4463 55.8087 91.6626 54.3582C91.6028 54.2297 91.5337 54.1058 91.4463 53.9956C91.4463 54.0048 91.4463 54.0139 91.4417 54.0231ZM88.0999 79.1046C88.3347 77.856 88.7996 76.6625 89.467 75.5792C89.0711 75.1339 88.7259 74.652 88.4313 74.1333C88.3807 74.4179 88.2104 74.7162 88.1137 74.9779C87.9849 75.3221 87.8698 75.6664 87.7777 76.0245C87.612 76.6855 87.5246 77.3694 87.4877 78.0488C87.4095 79.3892 87.6074 80.6744 87.9066 81.9735C87.9388 82.0102 87.971 82.047 88.0033 82.0837C87.8468 81.1014 87.9204 80.0593 88.0999 79.1046ZM87.2023 78.058C87.2438 77.3281 87.3635 76.612 87.52 75.8959C87.589 75.5746 87.6718 75.2533 87.7593 74.932C87.8468 74.6198 87.9434 74.17 88.1598 73.9221C88.1966 73.8808 88.238 73.8716 88.284 73.8716C88.2472 73.8073 88.2104 73.7385 88.1782 73.6742C87.7731 72.8526 87.5614 71.9942 87.3865 71.0991C87.2944 70.6263 87.1793 70.1305 86.8617 69.7495C86.7467 69.6118 86.5994 69.4971 86.4429 69.4098C86.268 70.2131 86.0608 70.9981 85.955 71.8152C85.8445 72.669 85.7892 73.5365 85.8169 74.3995C85.8721 76.0887 86.1851 77.7596 86.7144 79.3662C86.9124 79.9721 87.1471 80.5735 87.4095 81.1564C87.1931 80.1374 87.1471 79.0724 87.2023 78.058ZM89.6465 53.8533C89.1356 54.2343 88.7719 54.7759 88.4313 55.3038C88.0723 55.8547 87.7501 56.4284 87.4601 57.016C86.8801 58.1865 86.4291 59.4167 86.1207 60.6837C85.7754 62.0929 85.5959 63.548 85.6005 64.9986C85.6051 66.1507 85.7478 67.2799 85.9319 68.4137C86.0608 68.4551 86.1851 68.5055 86.3002 68.5652C86.3232 68.5469 86.3462 68.5285 86.3738 68.5147C86.3278 67.4911 86.3278 66.4583 86.3462 65.4346C86.3692 64.2228 86.4429 63.0064 86.6178 61.8037C86.917 59.761 87.5015 57.7596 88.574 55.9832C89.1264 55.0697 89.8076 54.193 90.6499 53.5274C90.3047 53.4861 89.9457 53.6284 89.6465 53.8533ZM92.5141 59.0587C92.4037 57.7275 92.2564 56.3412 91.9065 55.0468C91.8881 54.9733 91.8605 54.8953 91.8375 54.8172C91.7915 55.9878 91.7316 57.1583 91.704 58.3288C91.6764 59.6968 91.6718 61.0692 91.6442 62.4372C91.5982 64.994 91.4555 67.5554 90.9077 70.0617C90.8157 70.4702 90.7144 70.8787 90.6039 71.2873C90.8018 71.1679 90.9814 71.0256 91.1333 70.8512C91.1701 70.8053 91.2069 70.7594 91.2391 70.7089C92.3899 66.9448 92.8317 62.9742 92.5141 59.0587ZM89.7017 43.5021C89.757 43.8326 89.9319 44.1264 90.0884 44.4156C90.3093 44.8196 90.5349 45.2143 90.765 45.6137C91.1931 46.3527 91.6304 47.0918 92.04 47.84C92.8456 49.3135 93.5452 50.8421 94.0055 52.4624C94.4382 53.9818 94.7051 55.5517 94.7972 57.1308C94.857 58.1269 94.8386 59.1459 94.7558 60.1558C94.9215 59.5315 95.078 58.9026 95.2161 58.2738C95.5107 54.2113 94.6223 50.0617 92.4635 46.5777C91.6994 45.3474 90.8111 44.2091 89.803 43.1671C89.78 43.1441 89.7662 43.1166 89.757 43.089C89.6925 43.1946 89.6787 43.3461 89.7017 43.5021ZM79.3497 33.2933C79.1932 33.7707 79.5661 34.2573 79.8561 34.6015C80.1737 34.978 80.5143 35.336 80.8733 35.6711C83.7593 38.4161 87.4877 39.9814 90.673 42.3224C90.9768 42.5474 91.2713 42.7861 91.5613 43.0248C90.7788 42.2215 89.9503 41.464 89.0711 40.7617C86.9998 39.1092 84.5971 37.8469 82.7283 35.9465C81.7847 34.9871 81.0068 33.8763 80.5281 32.6139C80.4406 32.6323 80.3486 32.6461 80.2657 32.669C79.9113 32.7562 79.4694 32.9123 79.3497 33.2933ZM117.439 32.0539C117.444 31.6224 117.365 31.2277 117.14 30.9752C116.744 32.6461 115.322 33.9818 114.153 35.1432C112.73 36.557 111.253 37.9203 109.748 39.2469C107.027 41.6523 104.21 43.9658 101.61 46.5042C102.806 45.5999 104.058 44.7782 105.324 43.9749C106.977 42.9329 108.657 41.9414 110.268 40.8398C111.865 39.7519 113.462 38.5584 114.783 37.1446C115.492 36.3872 116.141 35.5563 116.624 34.6337C117.062 33.8258 117.315 32.9582 117.439 32.0539ZM107.478 35.9832L107.501 35.9557C107.874 34.1287 107.87 32.2008 107.685 30.3601C107.681 30.305 107.672 30.2453 107.662 30.1857C107.662 30.3234 107.662 30.4657 107.658 30.5988C107.635 31.5077 107.474 32.412 107.221 33.2887C106.714 35.056 105.826 36.681 104.832 38.2187C103.791 39.8253 102.613 41.3447 101.573 42.9513C100.79 44.1586 100.095 45.4255 99.5152 46.7429C99.6487 46.5547 99.7868 46.3665 99.9249 46.1829C101.158 44.5625 102.687 43.2405 104.118 41.8037C104.832 41.0876 105.513 40.3394 106.074 39.4994C106.659 38.6226 107.082 37.6357 107.345 36.6167C107.386 36.456 107.418 36.2862 107.455 36.1255C107.446 36.075 107.441 36.0245 107.478 35.9832ZM106.774 28.423C105.853 29.8001 104.933 31.1634 104.155 32.6277C103.336 34.1746 102.636 35.7767 102.005 37.4108C100.703 40.7939 99.5014 44.2228 98.2724 47.6334C97.8581 48.7764 97.4577 49.924 97.0987 51.0807C97.1723 50.9522 97.2552 50.8283 97.3334 50.6998C97.5498 50.181 97.7891 49.6669 98.0469 49.1666C98.0883 49.0564 98.1297 48.9462 98.1757 48.8407C98.5348 47.9639 98.9536 47.1101 99.3679 46.2563C99.7822 45.4025 100.229 44.5625 100.712 43.75C102.636 40.5184 105.356 37.7275 106.677 34.1563C107.032 33.1923 107.285 32.187 107.377 31.1588C107.423 30.6539 107.428 30.1444 107.386 29.6394C107.368 29.3961 107.331 29.162 107.285 28.9233C107.156 28.7122 106.995 28.5331 106.774 28.423ZM104.606 28.9233C102.673 31.5628 101.126 34.5005 99.9847 37.5623C98.7649 40.8306 97.9686 44.2412 97.4301 47.6793C97.3242 48.3403 97.2368 49.0013 97.1539 49.6669C97.3242 49.2125 97.4991 48.7535 97.6694 48.299C98.323 46.5547 98.9583 44.8012 99.6211 43.0569C100.905 39.6876 102.079 36.2678 103.69 33.0271C104.5 31.3975 105.444 29.7771 106.59 28.3541C106.544 28.3404 106.507 28.3174 106.456 28.3082C105.84 28.1843 105.209 28.4551 104.643 28.8086C104.643 28.8499 104.634 28.8866 104.606 28.9233ZM97.0158 51.526C97.0204 51.5076 97.0296 51.4893 97.0342 51.4709C97.0204 51.4571 97.002 51.448 96.9928 51.4296C96.9652 51.5122 96.9468 51.5994 96.9191 51.6821C96.9468 51.6316 96.9744 51.5811 97.0066 51.5306L97.0158 51.526ZM96.6936 50.9338C96.7903 50.0204 96.9053 49.1115 97.0342 48.2026C97.2874 46.417 97.605 44.6451 98.0239 42.8916C98.7971 39.6325 99.8788 36.4055 101.389 33.4081C102.079 32.0356 102.866 30.709 103.741 29.4466C100.611 31.7234 98.4197 35.1019 97.2229 38.7466C95.8329 42.9789 95.7914 47.5095 96.3806 51.884C96.4773 51.5627 96.5785 51.246 96.6936 50.9338ZM90.1114 28.9417C89.9825 29.2125 89.8582 29.4879 89.7432 29.768C89.2276 34.6107 92.1045 39.0128 94.0101 43.2543C94.3323 43.975 94.6407 44.7094 94.8985 45.4576C94.8985 45.375 94.8893 45.297 94.8893 45.2143C94.8939 44.6268 94.9491 44.053 95.0458 43.4884C94.8893 42.249 94.6361 41.0188 94.2955 39.8207C93.918 38.4758 93.4393 37.1629 92.864 35.896C92.2656 34.5878 91.5245 33.3484 90.9491 32.0264C90.6407 31.3149 90.383 30.5758 90.2357 29.8139C90.1943 29.543 90.139 29.2446 90.1114 28.9417ZM93.9088 43.6123C93.4025 42.4923 92.8087 41.4044 92.2472 40.3119C91.124 38.1223 90.0378 35.896 89.5084 33.4815C89.3519 32.7746 89.2553 32.0585 89.2276 31.3378C89.0159 32.187 88.91 33.0546 88.9699 33.9451C89.1402 36.6626 90.6684 39.0587 92.1459 41.2575C93.0481 42.6024 93.9641 43.9841 94.6499 45.453C94.4198 44.8333 94.1804 44.2182 93.9088 43.6123ZM88.3807 33.1189C88.3347 33.1235 88.2886 33.1189 88.238 33.1005C87.6903 32.9123 87.1333 32.7608 86.5671 32.6415C86.5579 33.5963 86.7467 34.5051 87.1241 35.3911C87.5384 36.3688 88.1137 37.2639 88.7489 38.1131C89.7754 39.481 90.9768 40.7158 92.0262 42.0654C91.9618 41.969 91.8973 41.8726 91.8329 41.7808C90.2633 39.4902 88.6339 36.9931 88.4037 34.1517C88.3715 33.8028 88.3669 33.4631 88.3807 33.1189ZM94.3691 45.8799C94.1022 45.3337 93.7938 44.8012 93.4715 44.2779C93.6327 44.59 93.7753 44.9068 93.9088 45.2327C94.0699 45.4439 94.2218 45.6596 94.3691 45.8799ZM80.97 32.5221C81.7755 34.8999 83.8192 36.6305 85.7938 38.058C86.8893 38.8522 88.0263 39.5866 89.0895 40.4266C89.7202 40.9224 90.3231 41.4549 90.9077 42.0057C90.8387 41.9323 90.7742 41.8496 90.7006 41.7808C90.3047 41.386 89.8674 41.0326 89.4808 40.6286C89.0573 40.1834 88.5832 39.7978 88.1321 39.3801C87.7087 38.9899 87.2944 38.5905 86.8847 38.1866C86.0976 37.397 85.3428 36.5754 84.6753 35.6803C83.9205 34.6658 83.3313 33.5733 82.8526 32.4074C82.8434 32.3844 82.8388 32.3615 82.8434 32.3385C82.4935 32.3523 82.1391 32.3752 81.7893 32.412C81.5223 32.4441 81.2461 32.4808 80.97 32.5221ZM83.1426 32.3293C83.8146 34.4822 85.3566 36.3229 86.8986 37.9249C87.3128 38.3564 87.7409 38.7787 88.169 39.1964C88.5648 39.582 88.9423 40.0043 89.3611 40.3624C89.7892 40.7296 90.1897 41.1152 90.5763 41.5283C90.9814 41.9598 91.4417 42.327 91.8375 42.7631C92.2886 43.2497 92.6983 43.7684 93.0803 44.3054C93.1631 44.3881 93.246 44.4661 93.3243 44.5533C91.5705 41.3355 88.2932 39.0863 86.7743 35.6894C86.3324 34.7071 86.0424 33.6238 86.0194 32.5451C85.0712 32.3752 84.1046 32.3064 83.1426 32.3293ZM90.162 26.0223C89.849 25.8662 89.5314 25.7193 89.2092 25.5862C88.597 25.3245 87.9618 25.1042 87.3174 24.9344C86.6592 24.7599 85.9872 24.6222 85.3105 24.5304C84.9975 24.4891 84.6799 24.457 84.3623 24.434C84.0355 24.4111 83.6535 24.356 83.3313 24.4111C82.7237 24.5212 83.0091 25.4118 83.1057 25.8111C83.2346 26.3665 83.4187 26.9082 83.6397 27.4315C84.0816 28.4781 84.6937 29.4512 85.4348 30.3096C86.0378 31.0073 86.7467 31.6087 87.4923 32.1549C87.8099 32.2375 88.1229 32.3339 88.4313 32.4349C88.5648 31.3241 88.8962 30.2499 89.3427 29.2171C89.3427 29.2125 89.3473 29.2079 89.3473 29.2079C89.78 28.2164 90.3139 27.2662 90.8893 26.3619C90.6407 26.2793 90.4106 26.1462 90.162 26.0223ZM92.6384 24.8334C92.2518 25.3567 91.8927 25.9029 91.5383 26.4446C91.1471 27.0505 90.765 27.6794 90.4198 28.3266C90.4198 28.4184 90.4152 28.5056 90.4198 28.5974C90.4336 28.9601 90.475 29.3181 90.5441 29.6715C90.6776 30.3739 90.9077 31.0532 91.1885 31.7096C91.75 33.0362 92.4957 34.2802 93.1079 35.5839C94.1436 37.8056 94.8478 40.1466 95.2713 42.552C95.3357 42.3179 95.4048 42.0883 95.483 41.8542L95.5199 41.8083C95.5889 41.4365 95.6625 41.0693 95.75 40.7021C95.8283 39.5728 95.8697 38.439 95.8743 37.3052C95.8881 34.2986 95.6994 31.269 95.2437 28.2945C95.1148 27.4498 94.9675 26.6052 94.8018 25.7652C94.6453 24.9711 94.452 24.1861 94.3047 23.392C94.1758 23.4333 94.0469 23.493 93.918 23.5664C93.3933 23.8786 92.9928 24.3606 92.6384 24.8334ZM94.5164 23.3461C94.9445 24.7461 95.193 26.2196 95.4324 27.6564C95.6856 29.1758 95.8927 30.7044 96.0308 32.2375C96.2241 34.4133 96.2793 36.5983 96.2195 38.7787L96.2379 38.7099C96.5417 37.4292 96.8317 36.1439 97.0756 34.8494C97.3288 33.5274 97.5359 32.1916 97.6648 30.8513C97.7891 29.566 97.9134 28.2302 97.7661 26.9403C97.6648 26.0682 97.361 25.1593 96.8087 24.4616C96.4358 24.0989 96.0354 23.7363 95.5751 23.5068C95.2253 23.3369 94.8662 23.2818 94.5164 23.3461ZM100.261 29.4237C100.003 28.8315 99.7131 28.2486 99.3817 27.6931C98.9122 26.9082 98.3737 26.1646 97.7753 25.476C98.2816 26.8302 98.2172 28.5102 98.1297 29.8735C97.964 32.5726 97.5129 35.2396 96.9284 37.879C97.8397 35.4416 99.1838 33.151 100.947 31.2368L100.951 31.2139L100.961 31.1909C100.689 30.6172 100.509 30.0066 100.261 29.4237ZM109.996 30.0158C110.166 29.2584 110.281 28.4964 110.346 27.7253C110.401 27.0367 110.479 26.2839 110.304 25.6091C110.134 24.9435 109.637 24.5258 108.942 24.5304C108.284 24.535 107.653 24.8196 107.082 25.1226C105.886 25.7468 104.79 26.5777 103.851 27.5462C102.986 28.4368 102.263 29.4512 101.642 30.5253C101.89 30.2867 102.139 30.0526 102.401 29.8276C103.152 29.185 103.971 28.5515 104.864 28.1154C105.6 27.7528 106.479 27.6197 107.165 28.0466C107.202 28.0099 107.276 28.0099 107.299 28.0695C107.313 28.1017 107.322 28.1338 107.336 28.1659C107.414 28.2302 107.492 28.2945 107.561 28.3771C108.15 29.0473 108.219 30.0388 108.279 30.8834C108.353 31.9713 108.376 33.0684 108.298 34.1609C108.288 34.294 108.27 34.4271 108.256 34.5556L108.27 34.5465L108.302 34.5235L108.33 34.4914L108.334 34.473C109.085 33.0638 109.651 31.5673 109.996 30.0158ZM116.261 30.7136C115.533 30.7916 114.815 31.1909 114.166 31.5031C113.462 31.8428 112.776 32.2238 112.113 32.6415C110.871 33.4218 109.734 34.3353 108.62 35.2901L108.601 35.336C108.574 35.3957 108.542 35.437 108.491 35.4829C108.454 35.5196 108.399 35.5334 108.344 35.5334C108.256 35.616 108.169 35.694 108.081 35.7767C107.787 37.3557 107.216 38.8613 106.249 40.1834C104.997 41.891 103.308 43.1992 101.835 44.7002C100.578 45.9809 99.506 47.4314 98.6268 48.9967C98.9168 48.6616 99.2206 48.3449 99.5198 48.0374C100.938 46.5868 102.433 45.2143 103.948 43.8694C106.995 41.1611 110.203 38.6364 113.149 35.818C113.95 35.0514 114.756 34.2802 115.474 33.4402C116.141 32.6598 116.652 31.8152 116.993 30.8513C116.822 30.7319 116.583 30.6768 116.261 30.7136ZM115.335 37.8423C115.985 36.8692 116.5 35.8042 116.877 34.6933C116.541 35.3406 116.132 35.9511 115.69 36.5019C114.498 37.9938 113.039 39.2837 111.515 40.4266C108.767 42.4969 105.766 44.2045 102.986 46.2288C104.68 45.2832 106.466 44.4845 108.187 43.6077C110.963 42.1893 113.586 40.4725 115.335 37.8423ZM95.7776 54.831C95.8513 54.0185 95.8743 53.2015 95.8375 52.389C95.7408 51.7877 95.6718 51.1817 95.6073 50.5804C95.6027 50.5299 95.5981 50.4748 95.5935 50.4243C95.1746 48.2852 94.2264 46.2058 92.6752 44.6773C92.2011 44.209 91.6672 43.7913 91.0918 43.4517C90.9123 43.3461 90.7052 43.2221 90.4981 43.1303C92.1505 44.9894 93.3611 47.1698 94.2402 49.4925C95.0964 51.7647 95.5567 54.2021 95.5475 56.6304C95.6349 56.1163 95.7086 55.5976 95.7592 55.0789C95.7638 54.9871 95.7684 54.9091 95.7776 54.831ZM100.417 53.4356C99.2759 54.3169 98.4059 55.4966 97.6786 56.7268C96.0998 59.3984 95.0366 62.3499 94.0147 65.2694C93.1355 67.7803 92.2794 70.3141 91.1977 72.747C91.0872 73.0454 90.963 73.3437 90.8433 73.6375C90.8433 73.6421 90.8479 73.6467 90.8433 73.6513C90.8341 73.8257 90.8064 73.9956 90.7696 74.1654C90.7788 74.3031 90.8111 74.4362 90.8663 74.5602C92.8225 72.467 94.1344 69.8597 95.1838 67.2111C96.4681 63.9565 97.3933 60.5368 99.0779 57.4475C99.9985 55.7537 101.131 54.1792 102.433 52.7608C102.429 52.7608 102.429 52.7562 102.424 52.7562C101.715 52.545 100.951 53.0224 100.417 53.4356ZM103.336 54.2894C103.313 54.092 103.271 53.8762 103.211 53.6743C103.193 55.3497 102.682 56.9885 102.213 58.5905C101.674 60.4358 101.112 62.2811 100.44 64.0851C99.2068 67.3855 97.5498 70.5758 95.0504 73.1096C94.1298 74.046 93.1079 74.8723 91.9894 75.5563L92.1045 75.593C92.5694 75.7215 93.0619 75.7169 93.536 75.6435C93.7984 75.6068 94.0561 75.5563 94.3139 75.5012C94.4151 75.4782 94.5164 75.4553 94.6131 75.4369C94.9353 75.2028 95.2483 74.9549 95.5429 74.6887C96.933 73.4401 98.0607 71.9299 99.46 70.6859C99.4416 70.6446 99.4416 70.5987 99.46 70.5528C99.7269 69.9745 100.086 69.4603 100.422 68.9233C101.218 67.3626 101.886 65.7468 102.383 64.0621C102.415 63.6536 102.456 63.2451 102.512 62.8411C102.567 62.428 102.636 62.024 102.719 61.6155C102.788 61.2758 102.866 60.7801 103.133 60.5414C103.138 60.5368 103.147 60.5368 103.152 60.5322C103.239 59.9446 103.313 59.3571 103.359 58.7649C103.483 57.2868 103.515 55.7629 103.336 54.2894ZM103.575 68.3586C103.492 68.4046 103.409 68.4505 103.326 68.4964C103.446 68.455 103.566 68.4229 103.685 68.3862C103.649 68.3816 103.612 68.3678 103.575 68.3586ZM101.72 68.8636L101.711 68.8774C101.734 68.859 101.761 68.8452 101.784 68.8269C101.775 68.8223 101.766 68.8177 101.757 68.8131C101.748 68.8269 101.734 68.8452 101.72 68.8636ZM105.163 55.7858C104.611 56.1255 104.146 56.6488 103.939 57.2593L103.939 57.3144C103.893 58.8934 103.704 60.4679 103.377 62.0103C103.28 62.4785 103.161 62.9421 103.041 63.4011C103.027 63.5434 103.004 63.6857 102.99 63.8234L103.004 63.8969C103.004 63.9979 102.995 64.0989 102.99 64.1953C103.101 63.9887 103.202 63.7821 103.313 63.5756C104.427 61.5007 105.633 59.4626 107.336 57.8055C108.169 56.9931 109.117 56.2724 110.194 55.8179C109.591 55.6481 108.983 55.492 108.371 55.3864C107.29 55.2074 106.12 55.1982 105.163 55.7858ZM111.478 56.1898C111.161 56.0979 110.838 56.0061 110.521 55.9143C109.536 56.4514 108.606 57.0849 107.791 57.856C106.949 58.6502 106.222 59.5636 105.577 60.523C104.519 62.0929 103.708 63.7959 102.889 65.4943C102.88 65.5815 102.871 65.6733 102.862 65.7605C102.857 65.9671 102.862 66.1737 102.875 66.3802C103.58 65.4622 104.307 64.5671 105.085 63.7087C106.834 61.7716 108.827 60.0364 111.092 58.719C112.265 58.035 113.513 57.4567 114.829 57.117C114.802 57.1078 114.769 57.1032 114.742 57.094C113.646 56.7957 112.56 56.4973 111.478 56.1898ZM117.642 57.9478C116.804 57.6219 115.92 57.4108 115.05 57.1767C115.046 57.195 115.032 57.2134 115.009 57.218C113.803 57.6403 112.624 58.1315 111.515 58.7695C110.42 59.3984 109.393 60.1512 108.44 60.9728C106.392 62.7355 104.652 64.8379 103.046 67.0045C103.032 67.0275 103.013 67.0458 103 67.0688C103.124 67.3809 103.345 67.6472 103.658 67.7022C104.896 67.0596 106.199 66.5455 107.529 66.1232C109.135 65.6136 110.774 65.2281 112.417 64.8654C113.978 64.5212 115.602 64.1677 116.974 63.3047C118.231 62.5152 119.266 61.2712 119.474 59.7748C119.464 59.7426 119.46 59.7105 119.451 59.683C119.17 58.8016 118.489 58.2829 117.642 57.9478ZM118.976 64.9986C119.285 64.1677 119.487 63.3001 119.584 62.4188C119.653 61.7762 119.694 61.083 119.607 60.422C119.381 61.464 118.737 62.3775 117.922 63.0844C116.758 64.0943 115.253 64.5992 113.78 64.9756C112.132 65.3979 110.461 65.7376 108.827 66.2196C107.257 66.6832 105.715 67.2478 104.256 67.9868C104.546 68.0052 104.836 67.9868 105.126 67.9731C105.273 67.9639 105.416 67.9685 105.563 67.9731C107.299 67.716 109.094 67.7711 110.815 68.0649C112.551 68.3587 114.24 68.8728 115.892 69.4787L115.948 69.4053C117.315 68.2209 118.35 66.6878 118.976 64.9986ZM120.367 71.9758C119.428 71.503 118.424 71.122 117.448 70.7273C115.382 69.8872 113.269 69.1344 111.073 68.7213C107.409 68.0327 103.428 68.4 100.399 70.6768C100.376 70.6997 100.358 70.7227 100.335 70.7456L100.279 70.7732C100.146 70.8741 100.012 70.9797 99.8834 71.0899C98.6545 72.1457 97.628 73.408 96.4635 74.5326C96.4589 74.5647 96.445 74.5969 96.4036 74.6244C96.33 74.6703 96.2609 74.7254 96.1965 74.7805L96.1919 74.7851C95.8006 75.1202 95.5245 75.593 95.4278 76.0979C96.399 75.8317 97.3518 75.5104 98.3 75.1661C100.371 74.4133 102.397 73.5457 104.454 72.7699C108.293 71.3286 112.408 70.1856 116.532 70.9384C118.484 71.2965 120.339 72.0676 121.844 73.3713C121.577 72.7332 121.002 72.2971 120.367 71.9758ZM122.001 74.0093C121.996 73.9221 121.978 73.8395 121.959 73.7614C121.941 73.7569 121.918 73.7523 121.899 73.7339C118.958 71.3286 114.953 70.7686 111.285 71.3194C107.198 71.9299 103.451 73.7293 99.6119 75.1661C101.016 74.808 102.433 74.4913 103.86 74.2388C107.782 73.5365 111.787 73.1739 115.754 73.7247C117.798 74.0093 119.897 74.4729 121.803 75.29C121.95 74.8677 122.033 74.4408 122.001 74.0093ZM121.734 75.4782C119.957 74.8493 118.176 74.3444 116.302 74.0874C114.355 73.8211 112.385 73.7477 110.424 73.8349C106.341 74.0185 102.364 74.9182 98.4381 76.0107C97.4577 76.2815 96.4727 76.5753 95.483 76.8002C95.4876 76.8186 95.5014 76.8324 95.506 76.8553C95.5383 76.9747 95.5429 77.094 95.5245 77.2088C95.5705 77.3281 95.6303 77.4429 95.6994 77.553C98.0653 77.4429 100.468 76.7543 102.737 76.3963C106.525 75.8041 110.392 75.694 114.208 76.0612C116.371 76.2678 118.516 76.6258 120.624 77.1537C120.652 77.1629 120.67 77.1766 120.693 77.1858C120.813 77.0343 120.933 76.8783 121.043 76.7176C121.301 76.3412 121.549 75.9189 121.734 75.4782ZM120.302 77.6357C116.592 76.7451 112.785 76.2815 108.965 76.3183C107.032 76.3366 105.099 76.4789 103.184 76.7452C101.241 77.0114 99.3311 77.4842 97.3886 77.7367C97.0664 77.778 96.7442 77.8101 96.422 77.833C98.7741 78.1039 101.117 78.4665 103.442 78.9393C104.914 79.2377 106.374 79.5957 107.833 79.963C109.264 80.3256 110.71 80.6699 112.178 80.8489C113.283 80.982 114.42 81.0095 115.533 80.8902C116.781 80.3577 117.968 79.6783 119.022 78.8337C119.483 78.4711 119.911 78.0717 120.302 77.6357ZM113.752 81.5466C114.06 81.4502 114.369 81.3446 114.673 81.2345C112.606 81.3676 110.516 80.9682 108.496 80.4908C107.013 80.1374 105.54 79.7656 104.054 79.458C102.562 79.1505 101.066 78.8934 99.5566 78.6868C98.5578 78.5491 97.5544 78.4344 96.5463 78.3426C96.6292 78.3793 96.712 78.416 96.7949 78.4527C97.7615 78.7282 98.7189 79.0311 99.6303 79.4718C100.44 79.8666 101.204 80.3898 101.83 81.0325C101.881 81.0187 101.941 81.0187 102.005 81.0463C105.711 82.5519 109.932 82.7171 113.752 81.5466ZM114.608 91.099C113.237 88.8727 111.418 86.9264 109.333 85.3474C107.506 83.9657 105.458 82.8778 103.29 82.1342C104.896 83.2129 106.447 84.388 107.948 85.609C109.702 87.032 111.395 88.5422 112.993 90.1397C113.766 90.9154 114.507 91.7141 115.22 92.545C115.105 92.0079 114.838 91.4754 114.608 91.099ZM115.28 92.903C113.729 91.3423 112.164 89.7908 110.516 88.3357C108.845 86.8576 107.096 85.4759 105.278 84.1814C104.509 83.6352 103.722 83.1119 102.935 82.5932C103.096 82.9329 103.225 83.2955 103.308 83.6765C103.313 83.7086 103.317 83.7408 103.326 83.7729C103.511 84.1126 103.699 84.4523 103.897 84.7828C104.5 85.7926 105.191 86.7658 105.955 87.6609C107.483 89.4557 109.333 90.9889 111.368 92.1824C112.514 92.8571 113.724 93.4217 114.958 93.9221C114.976 93.9312 114.981 93.9404 114.99 93.9542C115.243 93.6696 115.317 93.2978 115.28 92.903ZM114.838 94.1011C112.56 93.385 110.443 92.1456 108.583 90.663C106.705 89.1711 105.034 87.3763 103.708 85.3841C103.593 85.2143 103.488 85.0352 103.377 84.8608C103.372 84.9343 103.368 85.0077 103.359 85.0811C103.317 85.3841 102.977 85.4162 102.797 85.2602C102.834 85.3198 102.829 85.407 102.742 85.4438C101.688 85.9212 100.574 86.2471 99.4416 86.4215C101.315 86.9678 102.935 88.1704 104.417 89.4236C106.291 91.0072 108.058 92.8066 110.328 93.8257C110.958 94.1103 111.621 94.3306 112.298 94.4591C112.431 94.4637 112.56 94.4775 112.693 94.4821C113.333 94.4913 114.13 94.5418 114.696 94.1975C114.751 94.1699 114.797 94.1378 114.838 94.1011ZM102.958 90.8557C105.14 92.6781 107.81 93.8808 110.622 94.3122C110.631 94.3122 110.636 94.3122 110.645 94.3168C109.628 93.9267 108.67 93.3575 107.796 92.7194C105.817 91.2689 104.15 89.4236 102.065 88.1153C100.924 87.3992 99.6487 86.853 98.3092 86.6602C98.2402 86.651 98.1896 86.6143 98.1573 86.5684C97.9732 86.5776 97.7891 86.5868 97.605 86.5913C99.6625 87.5829 101.218 89.4006 102.958 90.8557ZM101.398 85.6595C101.821 85.531 102.24 85.3841 102.65 85.2143C102.691 85.1959 102.733 85.2051 102.76 85.2234C102.714 85.1638 102.687 85.0857 102.7 84.9893C102.774 84.4385 102.705 83.906 102.549 83.4057C102.355 83.0476 102.148 82.6712 102.005 82.2856C101.844 82.047 101.669 81.8174 101.471 81.6017L101.389 81.5787C101.375 81.5742 101.361 81.565 101.347 81.5604C100.238 82.5335 98.8156 82.9421 97.361 83.167C95.483 83.4562 93.5682 83.5296 91.6718 83.4332C90.9215 83.3965 90.1712 83.3231 89.4256 83.2267L89.4854 83.2588C89.9043 83.4608 90.337 83.6398 90.7696 83.8004C91.6672 84.1309 92.6016 84.3742 93.5452 84.5303C95.4324 84.8379 97.361 84.7874 99.2298 84.4018C100.298 84.1814 101.352 83.8509 102.355 83.4286C102.452 83.3873 102.507 83.5296 102.415 83.5801C98.9398 85.3795 94.7143 85.5218 91.0228 84.3054C90.7512 84.2182 90.4888 84.1218 90.2219 84.0162C90.5027 84.2044 90.788 84.3834 91.0872 84.5487C94.1804 86.2425 98.01 86.6694 101.398 85.6595ZM86.963 80.78C86.4475 79.6829 86.047 78.5354 85.7892 77.3373C85.4256 75.6389 85.3151 73.8808 85.4486 72.1502C85.5177 71.2551 85.642 70.3279 85.8951 69.4603C85.8399 69.4557 85.7892 69.4282 85.7708 69.3639L85.757 69.3226L85.7294 69.3318C85.0021 69.598 84.841 70.6354 84.7352 71.2873C84.459 72.9949 84.5603 74.753 84.9791 76.433C85.3658 77.9891 86.047 79.4718 86.963 80.78ZM108.905 96.4467C105.946 94.785 103.184 92.802 100.192 91.2C99.3219 90.7318 98.4335 90.3049 97.5267 89.9193C101.237 92.545 104.887 95.267 109.071 97.1032C110.47 97.7137 111.925 98.2232 113.416 98.5812C111.846 98.012 110.332 97.25 108.905 96.4467ZM102.438 96.6487C103.69 97.8422 105.158 98.8291 106.857 99.2422C108.657 99.6783 110.525 99.5498 112.348 99.3891C113.025 99.3294 113.697 99.2698 114.373 99.2285C110.125 98.5629 106.148 96.5018 102.562 94.1516C100.809 93.004 99.1009 91.7646 97.384 90.5436C99.1148 92.5404 100.519 94.8172 102.438 96.6487ZM107.423 107.67C106.871 107.436 106.378 107 106.015 106.587C105.283 105.747 104.873 104.682 104.362 103.704C103.395 101.85 102.074 100.174 100.509 98.7878C100.077 98.4068 99.6257 98.0488 99.1562 97.7183C98.9076 97.5438 98.6591 97.3786 98.4013 97.2179C98.2678 97.1353 98.1205 97.0573 97.9824 96.9746C98.01 97.2638 98.0377 97.5484 98.0653 97.833C98.2586 99.7013 98.6038 101.588 99.6257 103.199C100.482 104.549 101.692 105.678 103.096 106.449C104.422 107.179 105.913 107.583 107.423 107.67ZM97.4761 100.693C97.5083 101.854 97.7155 103.015 98.2034 104.076C99.193 106.215 101.333 107.312 103.575 107.679C104.077 107.762 104.588 107.808 105.099 107.84C103.032 107.284 101.135 106.013 99.819 104.365C98.6775 102.937 98.0561 101.248 97.7661 99.458C97.7063 99.0816 97.6602 98.7052 97.6188 98.3288C97.605 98.4298 97.5866 98.5307 97.5774 98.6317C97.5037 99.3157 97.4577 100.004 97.4761 100.693ZM37.776 95.7812C37.7254 96.0887 37.7438 96.4054 37.8221 96.713C38.0936 96.8874 38.356 97.0664 38.6506 97.1996C39.0096 97.3648 39.387 97.4842 39.7691 97.576C40.5562 97.7596 41.3617 97.7825 42.1672 97.7274C43.8611 97.6127 45.5596 97.3097 47.2305 97.0251C50.5354 96.4605 53.8035 95.7215 57.0347 94.831C58.3097 94.4821 59.5709 94.1011 60.8321 93.7109C57.9967 93.6834 55.1567 93.385 52.3259 93.2611C49.0624 93.1142 45.7575 93.1876 42.5677 93.945C40.8968 94.3398 39.2858 94.9595 37.776 95.7812ZM52.6849 96.5845C50.9818 96.9425 49.2696 97.273 47.5527 97.553C45.8266 97.833 44.0774 98.1268 42.3329 98.2324C41.4215 98.2875 40.4964 98.2599 39.6126 98.0304C39.2075 97.9248 38.7749 97.7642 38.379 97.5438C38.6276 97.8652 38.8669 98.1956 39.1385 98.4986C39.5113 98.9163 39.921 99.2973 40.3537 99.66C40.4365 99.7196 40.5194 99.7747 40.6022 99.8344L40.6206 99.816C41.8036 99.0357 43.2167 98.8108 44.6114 98.7786C46.1626 98.7465 47.7138 98.875 49.265 98.8521C52.3535 98.8108 55.4973 98.4114 58.3051 97.0481C59.0186 96.6992 59.7044 96.2953 60.3442 95.8225C60.8597 95.4461 61.3338 95.0192 61.8126 94.5968C61.9598 94.4041 62.1117 94.2113 62.2636 94.0231C59.1106 95.0375 55.9208 95.9005 52.6849 96.5845ZM44.2892 101.863C45.8496 102.373 47.5158 102.533 49.1499 102.52C50.7103 102.506 52.2891 102.396 53.8311 102.157C55.4145 101.914 57.0117 101.469 58.3327 100.532C59.0416 98.8842 59.9069 97.3006 60.9196 95.8133C60.3488 96.2953 59.7136 96.7084 59.083 97.071C57.8632 97.7688 56.5422 98.2829 55.1843 98.6363C53.6055 99.0495 51.9807 99.2422 50.3512 99.3203C48.7632 99.3937 47.1798 99.3203 45.5918 99.2836C44.0452 99.2468 42.3974 99.3249 41.0395 100.147C41.0993 100.188 41.1638 100.234 41.2236 100.275C41.6333 100.56 42.0567 100.835 42.4802 101.101C43.0648 101.395 43.6678 101.657 44.2892 101.863ZM79.7916 113.091C80.1783 112.545 80.5143 111.962 80.8089 111.365C77.1127 106.201 73.412 100.853 68.3717 96.8966C67.2854 96.0428 66.1439 95.2533 64.961 94.5418C65.5409 95.6939 66.1209 96.8415 66.7699 97.957C67.6031 99.3799 68.4822 100.771 69.4258 102.125C71.3268 104.852 73.481 107.408 75.8377 109.754C77.0667 110.975 78.3555 112.132 79.6627 113.27C79.7042 113.206 79.7502 113.151 79.7916 113.091ZM52.5929 69.7036C52.0359 70.1076 52.0221 70.8971 52.0037 71.5214C51.8702 76.9333 53.7298 82.3912 56.869 86.775C57.7528 88.0052 58.7378 89.1711 59.8241 90.2361C60.3718 90.7731 60.9472 91.2918 61.541 91.7784C61.9092 92.0814 62.2867 92.3705 62.6641 92.6597C62.7193 92.6643 62.7792 92.6597 62.8344 92.6597C62.8712 92.6184 62.9081 92.5725 62.9449 92.5312C60.9058 90.0892 59.1935 87.3992 57.8172 84.5303C56.3581 81.4915 55.3776 78.2003 54.8851 74.8677C54.6182 73.0454 54.5077 71.2092 54.5215 69.3685C53.8817 69.3548 53.1038 69.3272 52.5929 69.7036ZM54.7977 69.3869C54.7609 72.6827 55.2304 76.0015 56.1325 79.1734C57.0531 82.4004 58.365 85.5126 60.1463 88.3632C60.9656 89.6715 61.877 90.9108 62.8758 92.086C62.6273 91.5535 62.4247 91.0072 62.259 90.4472C61.2372 88.3127 60.5928 85.9946 60.2015 83.6719C59.7504 81.0049 59.6906 78.2829 60.022 75.5976C60.2015 74.1424 60.5099 72.7057 60.9242 71.301C60.1831 70.8328 59.396 70.4335 58.5721 70.1259C57.3661 69.6807 56.0819 69.4282 54.7977 69.3869ZM64.694 75.0743C63.8102 73.6467 62.6227 72.4349 61.2418 71.4984C59.7781 76.5432 59.7781 82.0561 61.2832 87.0917C61.4765 87.7389 61.6975 88.377 61.9322 89.0105C61.4075 85.889 61.9921 82.5702 62.9541 79.582C63.4512 78.058 64.022 76.5386 64.694 75.0743ZM70.2912 68.3908C67.1013 70.8879 65.2924 74.753 63.9023 78.4527C63.1106 80.5551 62.48 82.7309 62.2452 84.971C62.0197 87.1284 62.213 89.2767 62.8758 91.3423C62.9725 91.6407 63.083 91.9299 63.2072 92.2145C63.2211 92.1961 63.2395 92.1778 63.2533 92.1594C62.9495 88.7901 63.7872 85.4071 64.8413 82.226C65.9552 78.8613 67.3499 75.5746 69.03 72.4486C69.9137 70.8007 70.8573 69.1528 71.9252 67.6104C71.336 67.6793 70.7745 68.0144 70.2912 68.3908ZM72.9102 67.7895C72.7307 67.6977 72.5466 67.6518 72.3671 67.6242C71.4511 69.0885 70.5213 70.5345 69.6928 72.0493C68.8551 73.5687 68.0772 75.1202 67.3683 76.7038C66.6502 78.3013 66.0058 79.9308 65.4305 81.5833C64.8367 83.2955 64.2935 85.0352 63.9253 86.8117C63.5801 88.4688 63.4144 90.158 63.511 91.8427C65.6008 89.3639 67.6629 86.8576 69.458 84.1539C71.3775 81.2574 73.0023 78.1406 73.8861 74.7667C74.351 72.9949 74.6271 71.1771 74.4062 69.3639C74.0241 68.7442 73.5638 68.12 72.9102 67.7895ZM74.7192 69.8689C74.7008 69.8413 74.6824 69.8092 74.6686 69.7817C74.8251 71.1909 74.6179 72.6414 74.3049 74.0139C73.9229 75.7031 73.3521 77.3327 72.6617 78.9209C71.2256 82.2168 69.2371 85.2234 67.0599 88.074C65.9276 89.5567 64.7492 91.0026 63.5663 92.444C63.5709 92.4853 63.5755 92.5312 63.5801 92.5725C63.6215 92.5817 63.6629 92.5955 63.6998 92.6184C63.8194 92.623 63.9345 92.6138 64.0542 92.6093C64.4224 92.2512 64.8045 91.9023 65.1911 91.5673C65.8585 90.9889 66.5444 90.4334 67.2348 89.8872C68.6019 88.8131 69.992 87.7619 71.3038 86.6189C73.817 84.4293 76.0863 81.7991 76.7583 78.4481C77.1265 76.6074 76.9654 74.7116 76.1783 73.0041C76.1507 72.9444 76.2105 72.9076 76.2566 72.9214C75.8193 71.8656 75.3038 70.842 74.7192 69.8689ZM77.1357 75.7353C77.1265 75.6986 77.1173 75.6572 77.1081 75.6205C77.3659 77.9203 76.6386 80.3531 75.4511 82.304C73.6513 85.2693 70.9172 87.4635 68.2383 89.5934C67.4466 90.2223 66.6502 90.8558 65.8769 91.5076C65.4719 91.8519 65.0852 92.2053 64.694 92.5679C66.3879 92.3797 67.9943 91.6315 69.4442 90.764C71.1887 89.722 72.9333 88.5468 74.3464 87.0779C75.7502 85.6136 76.7215 83.8234 77.1726 81.8496C77.6328 79.8344 77.5822 77.7458 77.1357 75.7353ZM77.4257 83.4424C77.4027 83.447 77.3797 83.447 77.3567 83.4424L77.3475 83.4699C77.3751 83.4699 77.4027 83.4745 77.4303 83.4745C77.4257 83.4654 77.4257 83.4562 77.4257 83.4424ZM77.2048 83.8188C76.8549 84.6864 76.4085 85.5172 75.8331 86.293C74.5535 88.0235 72.809 89.3455 71.023 90.5207C69.5639 91.48 68.0081 92.4073 66.3188 92.903C68.5743 92.6781 70.8205 92.3292 73.0299 91.8014C76.0817 91.0761 79.0552 90.0295 81.9044 88.7167C83.4556 88.0006 84.9699 87.2064 86.4383 86.3343C83.9066 85.1133 81.1587 84.3192 78.3647 83.9932C77.9781 83.9519 77.596 83.8693 77.2048 83.8188ZM86.963 86.6051C84.2473 88.2439 81.3658 89.6301 78.3693 90.6721C75.359 91.7187 72.2428 92.4899 69.0852 92.926C67.9161 93.0866 66.7377 93.1968 65.5593 93.2611C68.4178 94.2296 71.534 94.0644 74.5167 93.844C76.3118 93.7109 78.1254 93.5548 79.8791 93.1325C81.5453 92.7332 83.138 92.0584 84.6523 91.2597C85.5131 90.8053 86.3416 90.3003 87.1609 89.777C87.971 89.2537 88.7535 88.6799 89.5821 88.1842C89.5959 88.175 89.6097 88.175 89.6235 88.175C88.9331 87.7022 88.2196 87.2615 87.4877 86.8668C87.3082 86.7796 87.1379 86.6923 86.963 86.6051ZM92.7443 91.4066C92.5786 90.6721 91.994 90.0662 91.4417 89.5888C90.8801 89.1022 90.2863 88.6478 89.6741 88.2209C89.6833 88.2439 89.6833 88.2714 89.6557 88.2944C88.9699 88.8222 88.2334 89.295 87.5107 89.7724C86.7881 90.2498 86.047 90.7089 85.3013 91.1495C83.8146 92.0217 82.2588 92.7745 80.6017 93.2611C78.8296 93.7798 77.0068 93.9955 75.1749 94.1791C73.435 94.3581 71.6951 94.5188 69.9413 94.5005C68.2797 94.4821 66.6226 94.2709 65.0576 93.7155C65.5686 93.9955 66.0841 94.2618 66.6088 94.5096C69.0852 95.2349 71.7319 95.3588 74.3049 95.1706C76.2658 95.0237 78.2128 94.7162 80.1507 94.3949C82.0977 94.069 84.0493 93.7476 86.001 93.4217C88.2012 93.0591 90.3968 92.6919 92.6016 92.366C92.6246 92.3614 92.643 92.3705 92.6614 92.3797C92.7811 92.0722 92.8225 91.7463 92.7443 91.4066ZM82.825 96.7267C84.5188 96.433 86.1851 95.9877 87.7961 95.3818C88.597 95.0834 89.3887 94.7437 90.1574 94.3673C90.8157 94.046 91.4831 93.7155 92.0354 93.2289C92.261 93.027 92.4497 92.7929 92.5832 92.5358C88.6339 93.2794 84.6707 93.9404 80.7122 94.6106C76.947 95.2487 73.1174 95.8775 69.2923 95.4139C68.9885 95.3772 68.6847 95.3221 68.3809 95.267C68.8597 95.4552 69.343 95.6205 69.8309 95.7811C69.8355 95.7811 69.8447 95.7857 69.8493 95.7857C70.3648 95.9143 70.8803 96.0428 71.3913 96.1897C71.7043 96.2769 72.0127 96.3733 72.3211 96.4651C72.4637 96.4972 72.6064 96.534 72.7491 96.5615C75.1242 97.0527 77.55 97.2087 79.9619 97.0527C80.008 96.9563 80.1737 96.9058 80.2565 97.0113L80.2749 97.0343C81.1311 96.9746 81.9826 96.8736 82.825 96.7267ZM80.2289 97.6448C78.6731 97.7596 77.1081 97.7458 75.5523 97.5989C76.97 98.1911 78.3417 98.9071 79.5937 99.7977C80.4591 100.413 81.2508 101.115 81.9458 101.918C81.9412 101.909 81.9412 101.895 81.9412 101.886C81.5914 100.376 80.9654 98.999 80.2289 97.6448ZM81.9734 102.047C81.9412 102.111 81.8353 102.143 81.7709 102.074C80.4729 100.734 78.9217 99.6278 77.2462 98.8062C75.9988 98.1911 74.6916 97.7091 73.3613 97.2959C72.5834 97.1582 71.8101 96.9838 71.0414 96.7818C71.8239 97.2409 72.588 97.7274 73.3337 98.2416C75.6168 99.8206 77.7249 101.648 79.6121 103.686C80.5419 104.691 81.4027 105.756 82.199 106.871C82.4061 105.26 82.3186 103.631 81.9734 102.047ZM82.1483 107.138C78.8388 102.914 74.7836 99.3432 70.038 96.8002C69.3936 96.4559 68.7446 96.1254 68.0818 95.8133C67.8746 95.7307 67.6721 95.648 67.4696 95.5654C68.9471 96.6717 70.3372 97.9019 71.6398 99.2101C73.9781 101.56 76.0494 104.14 77.9919 106.825C79.0091 108.23 79.9757 109.676 80.9378 111.117C81.5315 109.86 81.9412 108.515 82.1483 107.138ZM71.1611 109.272C72.1185 110.305 73.168 111.255 74.2957 112.1C74.8573 112.522 75.4372 112.917 76.0402 113.284C76.6754 113.67 77.4027 114.152 78.1714 114.175C78.7514 114.193 79.1794 113.853 79.5247 113.44C77.0161 111.448 74.733 109.148 72.6295 106.743C70.4339 104.232 68.4178 101.556 66.6594 98.7189C65.7619 97.273 64.8781 95.7811 64.1324 94.2434C64.1647 94.427 64.1923 94.606 64.2291 94.7896C64.3396 94.808 64.4408 94.8769 64.4731 95.01C64.7354 96.1117 64.9149 97.2455 65.0945 98.3655C66.3004 102.387 68.2843 106.155 71.1611 109.272ZM65.053 115.299C66.1209 114.064 67.0461 112.706 67.7918 111.255C68.1508 110.557 68.5144 109.841 68.7446 109.093C68.9057 108.57 68.9977 108.001 68.8781 107.473C67.9621 106.233 67.1474 104.911 66.4477 103.534C66.1301 102.91 65.8447 102.276 65.5732 101.634C65.5962 101.822 65.6238 102.006 65.6468 102.194C65.9414 104.567 66.1623 106.949 66.3004 109.341C66.3787 110.713 66.4063 112.086 66.4063 113.463C66.4063 113.614 66.1761 113.647 66.1669 113.491C65.9184 108.726 65.4627 103.989 64.6894 99.279C64.3442 98.237 64.0542 97.1766 63.8148 96.1071C63.778 96.7772 63.7366 97.4474 63.709 98.1176C63.6445 99.6554 63.5801 101.189 63.5341 102.726C63.4374 105.848 63.3868 108.974 63.3914 112.1C63.3914 113.738 63.4006 115.377 63.396 117.016C63.4466 116.97 63.4926 116.924 63.5433 116.883C64.0726 116.382 64.5743 115.855 65.053 115.299ZM61.7573 118.186C62.2544 117.98 62.6917 117.645 63.0968 117.287C62.9265 114.184 62.9127 111.076 62.9219 107.968C62.9311 104.852 62.9863 101.73 63.1152 98.618C63.1658 97.4245 63.2026 96.2264 63.2671 95.0329C62.4708 97.6173 61.8494 100.257 61.3062 102.905C60.9794 104.489 60.6756 106.077 60.3718 107.67C60.0588 109.29 59.7596 110.915 59.5847 112.554C59.3914 114.335 59.3408 116.162 59.5387 117.948C60.1969 118.352 60.961 118.522 61.7573 118.186ZM59.3316 117.81C58.8253 114.62 59.304 111.384 59.8517 108.225C60.4179 104.976 60.9932 101.716 61.7573 98.5032C61.9783 97.5805 62.2176 96.6579 62.4754 95.7444C62.2314 96.41 61.9829 97.0756 61.7435 97.7412C61.2326 99.1642 60.7447 100.592 60.2614 102.024C59.7781 103.456 59.327 104.897 58.8943 106.343C58.457 107.822 58.0335 109.304 57.7528 110.824C57.6009 111.631 57.495 112.449 57.4536 113.27C57.4168 114.06 57.4904 114.826 57.5548 115.602C57.7298 115.965 57.9369 116.318 58.1808 116.653C58.4938 117.085 58.8851 117.498 59.3316 117.81ZM56.7677 108.965C56.5882 110.819 56.5744 112.866 57.1728 114.679C57.1498 114.344 57.1406 114.009 57.1406 113.679C57.1452 112.949 57.205 112.219 57.3109 111.494C57.5318 109.97 57.9369 108.487 58.3465 107.009C59.1705 104.03 60.0496 101.06 61.0531 98.136C61.3292 97.3327 61.61 96.5248 61.9046 95.7261C61.9598 95.5746 62.0197 95.4185 62.0749 95.267C59.1152 99.2468 57.2464 104.021 56.7677 108.965ZM55.6446 104.732C56.0727 104.705 56.5008 104.673 56.9288 104.636C57.1774 103.69 57.4674 102.754 57.808 101.84C57.9185 101.551 58.0335 101.262 58.1486 100.973C57.1176 101.753 55.8932 102.217 54.632 102.488C53.044 102.827 51.3961 102.96 49.7805 103.011C48.3213 103.057 46.8576 102.988 45.4307 102.69C45.4721 102.708 45.5136 102.731 45.5504 102.749C48.708 104.204 52.1602 104.948 55.6446 104.732ZM61.2556 93.0132C60.4363 92.7378 59.64 92.4027 58.8206 92.1273C57.159 91.5673 55.4605 91.1266 53.7298 90.8512C50.4479 90.3279 47.0325 90.4243 43.8473 91.4387C42.3191 91.9253 40.8462 92.6184 39.5297 93.5365C38.9636 93.9313 38.3974 94.4086 38.0522 95.0146C40.6436 93.6696 43.5573 93.0316 46.4572 92.7929C49.9232 92.5083 53.403 92.7975 56.8598 93.0591C58.4892 93.183 60.1233 93.284 61.7573 93.3666C61.7527 93.3666 61.7481 93.3621 61.7435 93.3621C61.6791 93.3437 61.6561 93.284 61.6561 93.2198C61.5686 93.1647 61.4765 93.1096 61.3845 93.0499C61.3385 93.0407 61.297 93.027 61.2556 93.0132ZM41.6701 76.2999C40.9198 75.9143 40.1465 75.5884 39.3548 75.313C39.4423 75.4048 39.5297 75.492 39.6172 75.5746C40.0269 75.9694 40.4365 76.3642 40.8462 76.7589C41.6747 77.5622 42.5032 78.3655 43.3364 79.1688C44.9704 80.7479 46.6045 82.3316 48.2201 83.929C48.6758 84.3788 49.1269 84.8287 49.5826 85.2831C49.7943 85.4943 50.0014 85.7008 50.2086 85.9166C50.25 85.9625 50.296 86.0038 50.3374 86.0497C48.7954 81.8725 45.6378 78.3334 41.6701 76.2999ZM50.5031 86.5409C50.3512 86.4674 50.2408 86.3481 50.1073 86.2287C49.8956 86.0405 49.693 85.8431 49.4859 85.6503C49.0762 85.2556 48.6666 84.8654 48.2569 84.4706C47.4238 83.6719 46.5906 82.8732 45.7575 82.0791C44.1189 80.5092 42.471 78.9485 40.8094 77.4016C40.3399 76.9655 39.875 76.534 39.4055 76.0979C39.1707 75.8822 38.936 75.6664 38.7012 75.4507C38.6046 75.3589 38.4987 75.2717 38.3974 75.1799C40.0038 79.4856 43.7875 82.5152 47.6079 84.8654C48.5607 85.453 49.5319 86.0084 50.5077 86.5638L50.5031 86.5409ZM28.5655 95.5562C27.9441 97.8468 28.8279 100.156 29.3665 102.391C29.348 101.579 29.348 100.766 29.3711 99.9537C29.4171 98.338 29.5828 96.7176 29.9556 95.1431C30.2594 93.8578 30.7151 92.6322 31.3181 91.4846C30.1029 92.6276 29.0028 93.9358 28.5655 95.5562ZM32.5379 90.4059L32.478 90.4564C32.386 90.5941 32.2893 90.7318 32.2019 90.8741C30.6277 93.486 30.0937 96.5569 29.9556 99.559C29.9142 100.482 29.9142 101.404 29.928 102.327C29.9418 103.162 30.0017 104.021 29.9234 104.856C30.0017 105.058 30.0385 105.274 30.0477 105.49C31.0511 103.998 31.9533 102.419 32.3354 100.656C32.8509 98.2829 32.2387 95.9005 32.165 93.5181C32.1374 92.467 32.2111 91.4066 32.5379 90.4059ZM21.6934 89.9561C20.1698 90.1626 18.6784 90.438 17.2515 91.0256C14.7659 92.0446 12.5795 93.7614 10.9731 95.9051C10.3839 96.6946 9.90984 97.5209 9.50478 98.393C11.751 96.41 14.2642 94.7529 16.8879 93.3024C17.6152 92.903 18.3516 92.5175 19.0927 92.141C19.9028 91.6637 20.7405 91.2276 21.5645 90.7869C22.2687 90.4151 22.973 90.0524 23.6864 89.6944C23.019 89.7862 22.3562 89.8643 21.6934 89.9561ZM22.8717 91.0899C21.9833 91.4938 21.0996 91.9161 20.2204 92.343C19.6404 92.6551 19.0559 92.9535 18.4621 93.2244C15.7141 94.6565 13.0444 96.2861 10.6555 98.2645C10.3609 98.5078 10.0709 98.7557 9.78555 99.0127C9.63826 99.1459 9.49097 99.279 9.34367 99.4121C9.31606 99.435 9.20559 99.559 9.09972 99.6646C9.18717 99.6875 9.27464 99.7059 9.36209 99.7288C9.60144 99.7839 9.83619 99.8436 10.0755 99.8987C10.499 99.9951 10.9271 100.087 11.3552 100.169C13.0168 100.491 14.7199 100.661 16.4 100.353C17.8729 100.087 19.2492 99.4259 20.2941 98.3425C21.2607 97.3373 21.9419 96.1117 22.5909 94.886C23.2584 93.6283 23.8936 92.343 24.7451 91.1954C25.1364 90.663 25.5782 90.1672 26.0431 89.6944C24.9845 90.1718 23.9166 90.6125 22.8717 91.0899Z" fill="#85B0AB"/>
<path d="M86.6592 46.0496C87.0735 45.54 87.7547 45.3656 88.3669 45.6089C88.7628 45.765 89.0574 46.0863 89.1908 46.4719C89.2185 46.5178 89.2461 46.5637 89.2737 46.6142C89.4348 46.8483 89.5407 47.1237 89.5959 47.3899C89.6603 47.7204 89.6143 48.0877 89.4118 48.3677C89.2231 48.6247 88.9009 48.7808 88.5833 48.79C88.4498 48.7946 88.3255 48.7716 88.2058 48.7441C88.1322 48.7441 88.0631 48.7395 87.9941 48.7303C87.4325 48.6569 86.8894 48.308 86.5948 47.826C86.2496 47.2706 86.2358 46.5729 86.6592 46.0496Z" fill="#85B0AB"/>
<path d="M86.4475 49.6074C86.4705 49.5752 86.5027 49.5477 86.5303 49.5202C86.5856 49.4238 86.6592 49.3411 86.7513 49.2814C86.8065 49.2401 86.8663 49.2126 86.9262 49.1851C86.9768 49.1116 87.0689 49.0611 87.1609 49.0795C87.1978 49.0887 87.2392 49.1024 87.2806 49.1162C87.3082 49.1162 87.3358 49.1116 87.3681 49.1162C87.7961 49.1483 88.1368 49.5615 88.1736 49.97C88.215 50.4015 87.9757 50.7962 87.5936 50.989C87.2116 51.1818 86.7467 51.0395 86.4705 50.7412C86.1805 50.4244 86.1989 49.9379 86.4475 49.6074Z" fill="#85B0AB"/>
<path d="M88.6109 50.4291C88.6247 50.3281 88.6523 50.2271 88.6937 50.1353C88.7029 50.1169 88.7214 50.1032 88.7306 50.0848C88.7582 49.9838 88.8042 49.892 88.8732 49.8094C89.0482 49.6166 89.2783 49.5064 89.5453 49.5294C89.5867 49.534 89.6235 49.5477 89.665 49.5569C89.7524 49.5661 89.8353 49.5799 89.9181 49.612C90.1391 49.6946 90.3186 49.8828 90.4106 50.094C90.5211 50.3419 90.4797 50.6173 90.337 50.8422C90.3094 50.9799 90.2541 51.113 90.1621 51.214C90.0148 51.3793 89.8122 51.4894 89.5867 51.5078C89.3612 51.5262 89.131 51.4711 88.9515 51.3288C88.7628 51.1819 88.6569 50.9707 88.6109 50.7366C88.5971 50.6402 88.5971 50.5301 88.6109 50.4291Z" fill="#85B0AB"/>
<path d="M85.2277 48.2761C85.2231 48.2578 85.2093 48.2394 85.2047 48.221C85.2047 48.2073 85.2093 48.1935 85.2093 48.1797C85.2093 48.1705 85.2047 48.1614 85.2047 48.1522C85.2001 48.1201 85.2047 48.0879 85.2185 48.0604C85.2185 48.0512 85.2277 48.042 85.2323 48.0328C85.2369 48.0191 85.2415 48.0053 85.2415 48.0007L85.2369 48.0099C85.2415 48.0053 85.2415 48.0007 85.2415 47.9961C85.2553 47.9686 85.2738 47.9456 85.2876 47.9181C85.2968 47.9043 85.306 47.8951 85.3198 47.886C85.3336 47.8722 85.3474 47.8584 85.3566 47.8538C85.3658 47.8492 85.375 47.8401 85.3934 47.8309C85.4395 47.8079 85.4487 47.7941 85.5131 47.7896C85.5177 47.7896 85.596 47.7896 85.6006 47.7896C85.6006 47.7896 85.6006 47.7896 85.6052 47.7896C85.6374 47.7941 85.6696 47.8079 85.6926 47.8125C85.6926 47.8125 85.6926 47.8125 85.6972 47.8125C85.6972 47.8125 85.7709 47.8584 85.7755 47.8584C85.8169 47.886 85.8675 47.9502 85.8813 48.0007C85.8906 48.0328 85.8998 48.065 85.909 48.1017C85.909 48.1063 85.909 48.1063 85.909 48.1109C85.9136 48.1476 85.909 48.1797 85.909 48.2165C85.8998 48.244 85.8906 48.2761 85.8859 48.3037C85.8675 48.3496 85.8445 48.3863 85.8077 48.4138C85.7893 48.4368 85.7663 48.4552 85.7341 48.4689C85.6926 48.4965 85.6512 48.5102 85.6006 48.5148C85.5729 48.5194 85.5361 48.5194 85.4993 48.5102C85.4947 48.5102 85.4947 48.5102 85.4901 48.5102L85.4855 48.5102C85.4579 48.5056 85.4257 48.4965 85.398 48.4873C85.3474 48.4643 85.3014 48.4322 85.2692 48.3863C85.2553 48.3679 85.2507 48.3404 85.2415 48.3174C85.2369 48.3129 85.2323 48.3037 85.2323 48.2991C85.2277 48.2853 85.2277 48.2807 85.2277 48.2761Z" fill="#85B0AB"/>
<path d="M84.0033 100.945C84.123 100.555 84.4314 100.252 84.795 100.082C84.9147 100.027 85.0344 99.9949 85.1586 99.9719C85.2507 99.8847 85.3612 99.8112 85.4947 99.7745C85.8859 99.6643 86.2173 99.8388 86.5027 100.077C86.5809 100.128 86.6546 100.183 86.719 100.243C86.8617 100.38 86.9768 100.541 87.0827 100.711C87.1931 100.867 87.2898 101.032 87.3496 101.211C87.4233 101.335 87.4601 101.473 87.4647 101.615C87.5752 102.028 87.5982 102.474 87.4049 102.873C87.1931 103.309 86.7789 103.603 86.2956 103.644C85.3704 103.731 84.5188 103.015 84.1276 102.23C83.9297 101.831 83.8698 101.372 84.0033 100.945Z" fill="#85B0AB"/>
<path d="M83.6765 105.536C83.7179 105.334 83.8054 105.141 83.9342 104.985C83.9434 104.563 84.169 104.159 84.6431 104.113C84.7075 104.108 84.7674 104.113 84.8318 104.122C84.9193 104.053 85.0435 104.03 85.1632 104.108C85.513 104.338 85.8629 104.723 85.9733 105.141C85.9871 105.164 86.001 105.182 86.0102 105.205C86.1114 105.398 86.1805 105.609 86.2403 105.82C86.3048 106.036 86.36 106.256 86.3646 106.481C86.3738 107.041 86.093 107.523 85.5176 107.647C84.9837 107.767 84.4728 107.441 84.1598 107.037C83.8422 106.633 83.5752 106.068 83.6765 105.536Z" fill="#85B0AB"/>
<path d="M86.5488 105.306C86.5534 105.283 86.5626 105.255 86.5672 105.233C86.5672 105.127 86.5948 105.026 86.6362 104.934C86.7145 104.778 86.8295 104.668 86.9722 104.594C87.0137 104.512 87.0873 104.448 87.1794 104.434C87.3267 104.411 87.4647 104.461 87.589 104.535C87.6074 104.544 87.6212 104.553 87.6351 104.567C87.6397 104.567 87.6443 104.572 87.6489 104.572C87.6535 104.576 87.6581 104.576 87.6581 104.576C87.6535 104.576 87.6489 104.572 87.6489 104.572C87.7087 104.594 87.7639 104.622 87.8146 104.654C88.0953 104.829 88.2196 105.187 88.1874 105.508C88.1506 105.871 87.8698 106.169 87.5062 106.229C87.2024 106.275 86.8387 106.123 86.673 105.866C86.5764 105.701 86.5165 105.508 86.5488 105.306Z" fill="#85B0AB"/>
<path d="M87.5981 104.535C87.5981 104.535 87.5935 104.535 87.5935 104.53C87.6166 104.544 87.635 104.558 87.6581 104.567C87.6396 104.558 87.6212 104.549 87.5981 104.535Z" fill="#85B0AB"/>
<path d="M88.519 103.612C88.5282 103.589 88.5421 103.571 88.5559 103.548C88.5743 103.53 88.5881 103.516 88.6065 103.497L88.6111 103.493C88.6157 103.488 88.6203 103.488 88.6203 103.484C88.6295 103.479 88.6341 103.475 88.6433 103.465C88.6571 103.456 88.6709 103.442 88.6893 103.433C88.7308 103.401 88.7814 103.383 88.832 103.374L88.9103 103.374C88.9609 103.383 89.0069 103.401 89.0484 103.433C89.0806 103.456 89.1036 103.484 89.122 103.52C89.145 103.553 89.1588 103.589 89.1634 103.631C89.168 103.672 89.168 103.709 89.1542 103.745C89.145 103.782 89.1312 103.819 89.1036 103.846C89.0714 103.888 89.03 103.92 88.9839 103.938L88.9287 103.956C88.9195 103.961 88.9103 103.961 88.9011 103.966C88.8965 103.966 88.8919 103.97 88.8873 103.97C88.8366 103.989 88.786 104.002 88.7308 103.989C88.6801 103.979 88.6387 103.961 88.6019 103.934C88.5697 103.911 88.5513 103.883 88.5328 103.851C88.5098 103.819 88.5006 103.787 88.496 103.745C88.496 103.704 88.5006 103.658 88.519 103.612Z" fill="#85B0AB"/>
<path d="M46.8807 106.619C47.0234 106.215 47.4008 105.93 47.8289 105.898C48.1879 105.875 48.5377 105.985 48.8507 106.151C48.9198 106.164 48.9888 106.173 49.0533 106.196C49.2144 106.201 49.3755 106.215 49.5274 106.251C49.891 106.343 50.2592 106.531 50.4157 106.894C50.4986 107.082 50.5032 107.28 50.4571 107.463C50.5952 108.092 50.1902 108.611 49.6516 108.868C49.5412 108.955 49.4215 109.029 49.2696 109.075C48.8231 109.208 48.395 109.111 48.036 108.886C47.5665 108.684 47.1707 108.317 46.9543 107.831C46.7886 107.45 46.7426 107.013 46.8807 106.619Z" fill="#85B0AB"/>
<path d="M47.0509 110.902C47.1108 110.668 47.2028 110.406 47.3593 110.218L47.3593 110.213C47.4376 110.02 47.5941 109.892 47.7782 109.841C47.815 109.791 47.8656 109.754 47.9393 109.736C48.0498 109.708 48.1648 109.74 48.2477 109.823C48.372 109.772 48.5423 109.823 48.5469 109.979C48.5469 110.08 48.5423 110.176 48.5285 110.277C48.5377 110.296 48.5423 110.314 48.5469 110.332C48.6896 110.567 48.7126 110.828 48.6942 111.099C48.6804 111.324 48.662 111.563 48.5515 111.765C48.4272 111.999 48.1925 112.182 47.9163 112.192C47.815 112.196 47.7276 112.173 47.6447 112.136C47.3823 112.109 47.1568 111.907 47.0555 111.673C46.9543 111.425 46.9865 111.15 47.0509 110.902Z" fill="#85B0AB"/>
<path d="M49.4767 110.181C49.4767 110.172 49.4767 110.167 49.4767 110.158C49.4813 110.121 49.4813 110.098 49.4997 110.062C49.5135 110.034 49.5365 110.002 49.5503 109.974C49.5596 109.961 49.5642 109.951 49.5734 109.938C49.601 109.887 49.6332 109.841 49.6608 109.791C49.6792 109.763 49.7068 109.74 49.7345 109.726C49.7621 109.708 49.7943 109.694 49.8311 109.694C49.8541 109.694 49.8772 109.694 49.9002 109.694C49.9324 109.699 49.9646 109.708 49.9922 109.731C50.0106 109.74 50.0291 109.754 50.0429 109.772C50.0705 109.795 50.0889 109.823 50.0981 109.855C50.1027 109.878 50.1119 109.901 50.1165 109.924C50.1211 109.97 50.1165 110.016 50.0981 110.057C50.0705 110.107 50.0383 110.153 50.0106 110.204C50.0014 110.218 49.9968 110.227 49.9876 110.241C49.9692 110.268 49.9554 110.305 49.937 110.328C49.914 110.36 49.891 110.374 49.8633 110.392C49.8587 110.397 49.8495 110.401 49.8449 110.406C49.8265 110.42 49.8081 110.429 49.7897 110.438C49.7667 110.443 49.7483 110.452 49.7253 110.456C49.7068 110.456 49.6838 110.456 49.6654 110.456C49.6332 110.452 49.6102 110.443 49.5826 110.424C49.5642 110.415 49.5503 110.406 49.5365 110.387C49.5135 110.369 49.4997 110.346 49.4859 110.314C49.4813 110.291 49.4767 110.273 49.4675 110.25C49.4767 110.227 49.4767 110.204 49.4767 110.181Z" fill="#85B0AB"/>
<path d="M120.96 69.9239C120.868 69.0517 121.632 68.3356 122.479 68.3448C122.884 68.3494 123.257 68.5009 123.556 68.7442C124.15 69.1068 124.523 69.8367 124.389 70.5252C124.348 70.7455 124.251 70.9429 124.123 71.1082C123.994 71.3698 123.791 71.5902 123.497 71.7141C122.811 72.0033 122.074 71.5718 121.619 71.0256C121.269 70.741 121.006 70.3646 120.96 69.9239Z" fill="#85B0AB"/>
<path d="M123.225 73.2426C123.239 73.0589 123.317 72.8891 123.478 72.7835C123.648 72.6734 123.86 72.6183 124.058 72.6688C124.445 72.7652 124.725 73.0635 124.808 73.4491C124.882 73.7888 124.712 74.1836 124.412 74.3672C124.233 74.4774 124.04 74.537 123.828 74.5095C123.662 74.4865 123.487 74.4085 123.368 74.2891C123.22 74.1468 123.105 73.9678 123.091 73.7567C123.078 73.5731 123.124 73.3894 123.225 73.2426Z" fill="#85B0AB"/>
<path d="M125.154 72.3292C125.167 72.3109 125.177 72.2879 125.19 72.2696C125.209 72.2558 125.223 72.2374 125.241 72.2237C125.264 72.2053 125.282 72.1961 125.305 72.1869C125.31 72.1823 125.319 72.1823 125.324 72.1777C125.338 72.1732 125.351 72.1686 125.365 72.164C125.397 72.1502 125.434 72.1456 125.471 72.1364L125.513 72.1273C125.549 72.1227 125.582 72.1227 125.618 72.1364C125.651 72.141 125.683 72.1594 125.71 72.1823L125.757 72.2282C125.78 72.2558 125.793 72.2879 125.798 72.32C125.807 72.343 125.812 72.366 125.807 72.3889C125.812 72.4256 125.803 72.4578 125.789 72.4899C125.78 72.5082 125.766 72.5266 125.752 72.5496C125.724 72.5863 125.687 72.6138 125.646 72.6322C125.632 72.6368 125.618 72.6414 125.609 72.646C125.595 72.6506 125.586 72.6551 125.572 72.6597C125.559 72.6643 125.545 72.6689 125.536 72.6689C125.531 72.6689 125.522 72.6735 125.517 72.6735C125.503 72.6781 125.49 72.6827 125.476 72.6827C125.444 72.6965 125.407 72.6964 125.37 72.6919C125.347 72.6873 125.324 72.6827 125.301 72.6735C125.269 72.6597 125.241 72.6414 125.218 72.6138C125.19 72.5909 125.172 72.5633 125.158 72.5312C125.154 72.5083 125.144 72.4853 125.14 72.4623C125.131 72.421 125.135 72.3751 125.154 72.3292Z" fill="#E2D6D3"/>
<path d="M115.211 86.867C115.543 86.8624 115.865 86.9129 116.182 86.9909C116.68 87.0919 117.149 87.2755 117.559 87.5739C117.918 87.8355 118.332 88.2211 118.502 88.6664C118.594 88.8271 118.663 89.0015 118.636 89.1897C118.599 89.4376 118.415 89.6212 118.18 89.6946C118.166 89.6992 118.157 89.713 118.143 89.7176C117.886 89.8277 117.596 89.791 117.338 89.713C117.131 89.6533 116.933 89.5615 116.739 89.4559C116.712 89.4467 116.684 89.433 116.661 89.4238C116.27 89.2402 115.888 88.9648 115.658 88.5929C115.621 88.5516 115.589 88.5057 115.552 88.4644C115.547 88.4598 115.547 88.4598 115.543 88.4552C115.377 88.29 115.197 88.1156 115.11 87.8952C115.092 87.8539 115.092 87.808 115.082 87.7621C115.018 87.6382 114.958 87.5142 114.907 87.3811C114.834 87.1745 114.958 86.867 115.211 86.867Z" fill="#85B0AB"/>
<path d="M116.224 90.3965C116.491 90.1302 116.942 90.1578 117.214 90.4011C117.347 90.525 117.434 90.6581 117.522 90.8188C117.527 90.828 117.531 90.8372 117.536 90.8463C117.545 90.8647 117.554 90.8831 117.568 90.9014C117.614 90.9886 117.66 91.0758 117.688 91.1677C117.757 91.3834 117.77 91.5946 117.701 91.8103C117.651 91.9618 117.54 92.1133 117.411 92.2051C117.227 92.3336 117.011 92.3795 116.795 92.3152C116.629 92.2693 116.477 92.1592 116.385 92.0123C116.311 91.8975 116.261 91.7782 116.224 91.6496C116.196 91.5487 116.173 91.4477 116.164 91.3421C116.109 91.2227 116.054 91.0942 116.04 90.9657C116.003 90.7545 116.067 90.548 116.224 90.3965Z" fill="#85B0AB"/>
</g>
</g>
<defs>
<clipPath id="clip0_0_1">
<rect width="1920" height="10322" fill="white" transform="translate(-1591 -9825)"/>
</clipPath>
<clipPath id="clip1_0_1">
<rect width="134" height="125" fill="white" transform="matrix(-1 8.74228e-08 8.74228e-08 1 134 0)"/>
</clipPath>
</defs>
</svg>
