<svg width="16" height="16" viewBox="0 0 16 16" fill="none" xmlns="http://www.w3.org/2000/svg">
<path d="M14.2353 10.9311V12.9311C14.2361 13.1168 14.198 13.3006 14.1236 13.4707C14.0493 13.6408 13.9402 13.7935 13.8034 13.919C13.6665 14.0445 13.505 14.1401 13.3291 14.1996C13.1533 14.2591 12.9669 14.2812 12.782 14.2644C10.7305 14.0415 8.75997 13.3405 7.02864 12.2178C5.41786 11.1942 4.0522 9.82855 3.02864 8.21777C1.90196 6.47858 1.2008 4.49844 0.981974 2.43777C0.965314 2.25342 0.987224 2.06761 1.04631 1.89219C1.10539 1.71677 1.20035 1.55557 1.32515 1.41885C1.44995 1.28214 1.60184 1.17291 1.77117 1.09812C1.94049 1.02333 2.12353 0.984614 2.30864 0.98444H4.30864C4.63218 0.981255 4.94584 1.09583 5.19115 1.30679C5.43646 1.51776 5.59669 1.81074 5.64197 2.13111C5.72639 2.77115 5.88294 3.39959 6.10864 4.00444C6.19834 4.24306 6.21775 4.50238 6.16458 4.75169C6.11141 5.001 5.98788 5.22985 5.80864 5.41111L4.96197 6.25777C5.91101 7.9268 7.29294 9.30874 8.96197 10.2578L9.80864 9.41111C9.9899 9.23186 10.2187 9.10834 10.4681 9.05517C10.7174 9.002 10.9767 9.02141 11.2153 9.11111C11.8202 9.33681 12.4486 9.49336 13.0886 9.57777C13.4125 9.62346 13.7082 9.78658 13.9197 10.0361C14.1311 10.2856 14.2434 10.6042 14.2353 10.9311Z" stroke="#2B3939" stroke-linecap="round" stroke-linejoin="round"/>
</svg>
