<svg width="379" height="234" viewBox="0 0 379 234" fill="none" xmlns="http://www.w3.org/2000/svg">
<path d="M353.233 135.93C353.384 136.185 353.407 136.511 353.187 136.766C353.071 136.894 352.955 137.022 352.839 137.15C351.318 140.856 348.972 144.318 346.499 147.431C343.829 150.789 340.694 153.821 337.293 156.423C330.953 161.268 323.581 164.66 315.779 166.31C312.679 166.972 309.521 167.332 306.363 167.437C304.83 167.901 303.286 168.354 301.73 168.738C299.141 169.388 296.529 169.911 293.905 170.329C297.249 170.631 300.581 170.98 303.902 171.514C307.524 171.468 311.135 171.236 314.734 170.771C319.192 170.19 323.604 169.295 328.039 168.505C328.48 168.424 328.91 168.354 329.351 168.285C335.063 164.614 341.646 161.256 348.589 161.488C356.206 161.744 362.487 166.798 367.804 171.782C369.499 173.373 371.171 175 372.855 176.603L375.629 179.263C376.605 180.193 377.801 181.099 378.497 182.261C378.625 182.47 378.613 182.667 378.555 182.853C378.66 182.946 378.776 183.027 378.88 183.132C379.229 183.469 378.741 183.852 378.381 183.724C378.346 184.073 377.882 184.305 377.568 183.98C377.081 183.457 376.57 182.969 376.059 182.47C375.316 182.063 374.561 181.691 373.772 181.366C372.181 180.715 370.533 180.227 368.849 179.867C365.471 179.147 362.022 178.938 358.574 178.845C351.666 178.659 344.572 178.891 338.012 176.37C336.236 175.685 334.506 174.814 332.939 173.722C331.534 172.746 329.746 171.421 329.038 169.818C324.8 170.55 320.585 171.387 316.324 171.991C314.13 172.304 311.936 172.525 309.73 172.688C314.327 173.78 319.239 175.429 322.757 178.485C323.558 178.984 324.335 179.519 325.079 180.111C325.299 179.96 325.578 179.879 325.914 179.995C332.776 182.249 339.127 186.478 344.108 191.682C346.616 194.296 348.798 197.212 350.633 200.337C352.572 203.637 353.907 207.203 355.59 210.619C357.494 214.499 360.107 218.124 364.112 220.017C364.588 220.238 364.333 220.947 363.822 220.796C363.752 221.005 363.555 221.168 363.323 221.133C362.847 221.063 362.371 220.935 361.906 220.807L361.616 220.924C353.291 221.156 344.769 217.578 338.581 212.129C335.377 209.306 332.672 205.925 330.582 202.196C328.469 198.42 327.18 194.366 326.367 190.137C325.973 188.139 325.601 186.106 324.812 184.212C323.894 182.051 322.385 180.379 320.469 179.054C319.633 178.473 318.739 177.95 317.822 177.497C312.122 175.034 305.991 174.384 299.977 173.094C299.85 173.071 299.78 172.99 299.733 172.908C294.137 172.746 288.576 172.153 283.05 171.212C279.833 170.875 276.641 170.446 273.471 169.807C271.973 169.504 270.476 169.133 269.001 168.715C274.528 170.968 279.961 173.478 284.93 176.8L285.29 176.789C292.628 178.113 299.989 181.006 304.993 186.745C307.408 189.498 309.045 192.809 309.776 196.387C310.508 199.919 310.45 203.567 310.357 207.157C310.299 209.457 310.252 211.769 310.159 214.069C310.067 216.474 310.101 218.914 309.683 221.284C309.695 221.33 309.718 221.377 309.73 221.423C309.846 221.574 309.95 221.725 310.078 221.865C310.252 222.074 310.217 222.434 309.997 222.597C309.788 222.748 309.428 222.759 309.265 222.515C309.103 222.271 308.94 222.016 308.801 221.76C308.731 221.644 308.673 221.528 308.615 221.4C308.557 221.272 308.522 221.133 308.476 221.017C308.406 220.807 308.337 220.598 308.29 220.366C307.71 219.378 307.106 218.403 306.398 217.485C305.353 216.126 304.18 214.859 302.949 213.651C300.418 211.165 297.667 208.923 295.159 206.413C292.779 204.043 290.573 201.406 289.261 198.281C287.833 194.889 287.624 191.194 287.148 187.593C286.869 185.479 286.451 183.376 285.592 181.412C285.186 180.495 284.698 179.612 284.071 178.822C283.56 178.183 282.922 177.706 282.423 177.091C277.07 173.687 271.207 171.131 265.321 168.761C257.519 165.624 249.682 162.685 242.286 158.654C237.247 155.912 232.452 152.775 227.936 149.278C229.039 150.394 230.13 151.521 231.152 152.706C233.88 155.866 236.214 159.316 238.443 162.824C240.045 164.311 242.031 165.404 244.097 166.101C244.295 166.17 244.411 166.286 244.48 166.426C249.6 166.159 254.755 166.31 259.632 168.064C262.883 169.237 265.855 171.061 268.548 173.21C269.86 174.268 271.114 175.406 272.333 176.591C273.494 177.718 274.853 178.915 275.758 180.262C277.906 183.457 271.509 184.782 269.199 184.944C270.151 187.628 271.474 192.461 267.353 192.96C265.623 193.169 263.904 192.461 262.36 191.752C261.768 191.485 261.187 191.183 260.619 190.881C260.978 192.217 261.141 193.634 261.234 194.993C261.327 196.341 261.338 198.177 259.748 198.653C258.389 199.059 257.043 198.049 255.986 197.317C255.162 196.748 254.372 196.12 253.606 195.481C253.966 196.608 254.198 197.828 253.722 198.943C253.281 199.989 252.271 200.825 251.087 200.686C249.67 200.512 248.497 199.036 247.627 198.037C246.431 196.678 245.409 195.179 244.492 193.611C242.739 190.625 241.311 187.419 240.034 184.201C238.896 181.343 237.932 178.322 237.746 175.244C237.642 173.629 237.758 172.014 238.141 170.434C238.222 170.109 238.304 169.772 238.385 169.435C237.874 167.437 237.387 165.438 237.015 163.417C236.713 162.824 236.423 162.244 236.098 161.663L236.086 161.616C235.262 160.362 234.426 159.118 233.544 157.899C230.513 153.716 226.984 149.975 223.118 146.572C219.89 143.725 216.453 141.169 213.075 138.532C212.587 138.253 212.111 137.951 211.658 137.626C210.706 136.941 209.859 136.069 209.092 135.186C209.034 135.128 208.988 135.059 208.93 135C209.034 136.371 209.058 137.754 208.999 139.125C208.895 141.727 208.535 144.306 207.955 146.85C207.362 149.395 206.608 151.985 205.493 154.367C205.284 154.82 204.982 155.32 204.622 155.796C209.243 155.145 213.934 154.959 218.59 155.308C221.097 155.505 223.594 155.854 226.055 156.353C228.307 156.818 231.059 157.387 232.336 159.467C232.684 159.572 232.812 159.932 232.731 160.245C233.474 162.29 232.487 164.451 231.326 166.135C229.805 168.32 227.913 170.329 226.09 172.258C222.293 176.266 218.067 179.914 213.179 182.539C208.582 185.002 203.508 186.28 198.295 186.362C194.22 186.42 190.226 185.769 186.302 184.712C187.219 185.258 188.124 185.827 188.995 186.466C191.712 188.429 194.278 190.602 196.762 192.856C199.944 195.748 202.985 198.781 206.12 201.72L206.306 201.755C214.445 206.925 224.337 205.984 233.497 207.029C242.147 208.017 250.436 211.548 257.019 217.287C260.665 220.459 263.742 224.2 266.133 228.394C266.47 228.986 265.715 229.799 265.1 229.497C264.833 229.358 264.554 229.253 264.287 229.137C264.148 229.16 263.997 229.137 263.858 229.009L263.695 228.882C259.992 227.441 255.94 227.36 251.981 227.592C247.441 227.859 242.925 228.312 238.397 227.673C229.608 226.419 221.631 222.143 215.292 216.009C211.345 212.199 208.082 207.738 205.435 202.94L205.342 202.638C202.962 200.384 200.64 198.072 198.318 195.841C195.601 193.239 192.826 190.695 189.854 188.383C187.799 186.78 185.64 185.223 183.387 183.852C182.598 183.597 181.82 183.329 181.042 183.051C184.351 185.235 187.404 187.814 190.156 190.637C197.738 198.421 203.009 208.191 207.386 218.042C208.28 220.052 209.417 222.19 209.499 224.432C209.592 226.674 208.338 228.568 206.236 229.358C204.054 230.183 201.627 229.974 199.375 229.637C197.122 229.288 194.905 228.696 192.78 227.871C184.072 224.502 177.025 217.636 172.474 209.585C168.317 202.219 166.123 193.925 165.008 185.572C165.043 187.477 165.101 189.382 164.985 191.253C164.695 196.097 163.383 200.86 161.328 205.24C156.881 214.743 149.242 222.248 140.464 227.813C138.154 229.277 135.774 230.624 133.336 231.856C131.501 232.785 129.26 234.226 127.101 233.97C124.605 233.668 123.873 231.194 123.92 229.021C123.966 226.57 124.396 224.095 124.941 221.702C127.229 211.734 132.767 202.8 139.652 195.342C143.529 191.136 147.802 187.337 152.272 183.771C154.199 182.237 156.15 180.727 158.135 179.263C155.43 180.251 152.736 181.308 150.101 182.481C147.965 183.434 145.863 184.456 143.796 185.56C131.884 193.227 127.473 209.178 115.34 216.904C112.031 219.007 108.292 220.436 104.345 220.575C103.881 220.587 103.277 220.261 103.393 219.681C106.11 206.413 115.363 195.295 127.949 190.277C130.607 189.219 133.417 188.406 136.25 187.942C139.988 185.688 143.866 183.655 147.86 181.866C151.448 180.262 155.14 178.845 158.925 177.718C154.315 178.682 149.764 180.39 145.143 180.983C136.285 182.121 128.169 177.997 122.016 171.863C118.138 175.673 114.957 181.563 108.919 182.017C106.237 182.214 103.799 180.959 102.267 178.764C100.537 176.301 100.119 173.292 99.933 170.364C99.2248 158.991 100.815 147.489 104.461 136.708C104.635 136.185 104.833 135.674 105.03 135.163C103.346 137.324 102.116 139.717 101.257 142.412C100.13 145.956 99.7821 149.673 99.5151 153.356C99.248 156.958 98.981 160.547 98.4353 164.114C97.9013 167.564 97.1466 170.98 96.1945 174.337C95.5444 176.626 94.7433 178.868 93.8725 181.087C93.8725 182.818 93.4313 184.619 93.0366 186.269C92.5837 188.209 92.0033 190.126 91.2834 191.984C89.8322 195.772 87.8816 199.373 85.4783 202.649C80.7762 209.027 74.3209 214.023 67.0064 217.032C62.8268 218.751 58.4381 219.797 53.9101 220.017C53.7127 220.029 53.6082 219.878 53.5966 219.727L53.4341 219.762C53.0626 219.82 52.8884 219.413 53.0509 219.146C53.0742 217.624 53.7708 216.056 54.4093 214.697C55.0944 213.233 55.9419 211.839 56.9055 210.538C58.8909 207.831 61.3174 205.496 63.9762 203.451C69.7929 198.978 76.4804 195.865 82.5177 191.717C85.5131 189.649 88.3228 187.279 90.6681 184.491C91.295 183.12 91.8755 181.738 92.4212 180.332L92.4676 180.076L92.6186 179.821C93.2455 178.171 93.8145 176.498 94.3253 174.814C96.3919 168.029 97.3207 161.117 97.8896 154.065C98.0406 152.148 98.2263 150.219 98.505 148.303C97.9129 149.557 97.2743 150.8 96.6241 151.997C94.7897 155.378 92.607 158.584 90.2153 161.605C85.4899 167.564 79.8822 172.827 73.7752 177.346C67.6566 181.866 61.0156 185.63 54.0494 188.65C53.4109 189.475 52.4472 190.149 51.7042 190.776C50.5547 191.752 49.3821 192.716 48.1979 193.646C45.8526 195.47 43.4377 197.212 40.9531 198.839C38.5033 200.454 35.9955 201.987 33.4297 203.428C31.3398 204.601 29.2035 205.786 26.9744 206.715C26.9047 206.959 26.7886 207.192 26.6493 207.401C26.5332 208.388 25.9294 209.295 24.9426 209.655C23.7351 210.108 22.2374 209.817 21.4247 208.772C21.2505 208.551 21.1344 208.307 21.0299 208.04C21.0067 207.97 20.9719 207.9 20.9487 207.831C20.937 207.796 20.9254 207.761 20.9138 207.715C20.821 207.378 20.7977 207.029 20.8325 206.681C20.8325 206.681 20.8325 206.681 20.8325 206.669C20.8441 206.553 20.8674 206.448 20.9022 206.344C21.0415 205.681 21.3782 205.101 21.8659 204.624C22.9456 203.567 24.78 203.346 26.0339 204.218C26.3939 204.462 26.6609 204.81 26.8351 205.194C28.7275 204.16 30.6548 203.207 32.5473 202.161C35.1364 200.732 37.679 199.211 40.152 197.596C42.6017 196.004 45.0167 194.343 47.3619 192.612C48.5229 191.764 49.6724 190.892 50.7986 190.009C45.9222 191.926 40.9066 193.471 35.7982 194.645C28.9017 196.213 21.773 197.212 14.6791 196.945C14.3773 197.561 13.8432 198.014 13.1234 198.165C12.9724 198.2 12.8099 198.2 12.6474 198.188C12.0552 198.537 11.3818 198.653 10.6968 198.479C9.8609 198.258 9.32684 197.514 9.09463 196.713C8.61862 195.005 10.1163 193.309 11.7998 193.204C12.7286 193.146 13.5762 193.425 14.2379 194.087C14.6907 194.54 14.9346 195.214 14.9229 195.876C20.9835 195.47 27.0324 194.924 33.0001 193.739C36.9592 192.949 40.8602 191.903 44.7032 190.648C42.1954 190.416 39.7108 189.963 37.2959 189.208C35.5079 188.65 33.7431 187.976 32.0597 187.14C30.7709 186.501 29.2151 185.769 28.1006 184.747C28.0077 184.793 27.938 184.851 27.8451 184.874C27.3923 185.026 26.9163 185.107 26.4519 185.014C25.8714 184.898 25.3954 184.631 24.989 184.189C24.7801 183.957 24.6407 183.678 24.5246 183.376C24.513 183.364 24.513 183.341 24.513 183.329C24.4434 183.132 24.3969 182.934 24.3621 182.714C24.3621 182.69 24.3505 182.667 24.3505 182.656C24.3505 182.621 24.3621 182.597 24.3621 182.563C24.3388 182.179 24.3737 181.796 24.5014 181.447C24.8265 180.634 25.5347 180.088 26.359 179.914C26.5796 179.856 26.8002 179.832 27.0324 179.844C27.0557 179.844 27.0673 179.832 27.0905 179.832C27.5665 179.856 28.0309 180.018 28.4257 180.297C29.1803 180.843 29.6331 181.807 29.5402 182.748C29.4938 183.213 29.2964 183.655 29.0062 184.015C29.4009 184.224 29.7841 184.456 30.1672 184.665C30.9799 185.107 31.8042 185.537 32.6285 185.943C34.2772 186.757 35.9607 187.465 37.7022 188.058C40.6396 189.034 43.6815 189.673 46.7698 189.94C48.732 189.254 50.6825 188.534 52.5981 187.721C65.799 182.179 78.1407 173.884 87.5333 163.01C90.2733 159.839 92.7463 156.446 94.8942 152.845C95.9623 151.044 96.9608 149.209 97.8432 147.315C98.4121 146.118 98.9113 144.899 99.4222 143.679C99.5615 143.168 99.666 142.656 99.8285 142.157C99.8866 141.971 99.9679 141.774 100.026 141.588C98.7953 143.586 97.5762 145.572 96.2874 147.524C92.9669 152.566 89.031 157.12 84.2708 160.861C83.6207 161.372 82.9589 161.86 82.2855 162.337C81.5773 162.964 80.8458 163.568 80.1144 164.16C78.6166 165.38 77.0725 166.542 75.4587 167.611C72.2543 169.725 68.8408 171.549 65.2301 172.885C58.74 175.278 51.8087 175.929 45.0399 174.43C41.3246 173.606 37.8531 172.107 34.8113 169.807C34.2075 169.342 34.6836 168.471 35.2873 168.517C37.0753 166.147 39.9894 164.509 42.6946 163.475C45.783 162.29 49.0686 161.744 52.3659 161.581C59.2043 161.256 66.0312 162.464 72.8696 161.976C76.6081 161.709 80.2537 160.908 83.5858 159.13C83.7484 159.049 83.8877 159.037 84.027 159.06C87.8932 155.9 91.3182 152.206 94.1976 148.07C96.1017 145.328 97.82 142.401 99.6312 139.555C98.2263 140.53 96.717 141.367 95.0916 142.017C91.0628 143.597 86.6742 143.83 82.39 143.539C77.595 143.214 72.8347 142.366 68.1094 141.53C65.7525 141.111 63.326 140.798 61.0156 140.159C58.9257 139.578 57.01 138.323 56.4063 136.139C55.3846 132.398 58.2988 128.506 60.6208 125.904C67.0297 118.724 76.3062 115.251 85.5596 113.543C86.7554 113.322 87.9745 113.125 89.1936 112.95C88.4505 112.497 87.7075 112.056 86.9528 111.626C85.4783 110.778 83.9806 109.965 82.4713 109.163C80.3118 108.025 78.0362 107.037 75.8883 105.864C65.9267 107.583 55.3382 108.42 46.526 102.53C43.9717 100.822 41.8238 98.6028 40.2681 95.954C40.0359 95.5707 40.3842 94.9433 40.8253 94.9201C47.5012 94.5832 54.1655 95.3964 60.5627 97.2204C57.6602 95.7682 54.8737 94.1417 52.2963 92.1086C50.787 90.9237 49.3705 89.6457 48.0353 88.2981C45.6785 87.4384 43.3912 86.2883 41.1156 85.2775C38.3408 84.0461 35.5775 82.7682 32.8143 81.5018C28.0193 79.2945 22.6902 77.1685 19.5206 72.719C18.0113 70.6046 17.1057 68.1417 17.1869 65.5278C17.1986 65.0515 17.7094 64.8423 18.1042 64.9585C26.1965 67.3053 33.6619 71.627 39.7804 77.4009C35.7401 70.442 33.0117 62.6466 31.2005 54.8629C30.5155 51.9004 29.9582 48.9031 29.4705 45.9058C27.88 43.3732 26.0688 41.0264 23.9325 38.8888C21.3782 36.333 18.5337 34.0908 15.7241 31.8253C10.4762 27.585 5.15874 23.1006 2.15169 16.9201C0.688803 13.8995 -0.123911 10.6118 0.0154015 7.24269C0.0270286 6.84769 0.479818 6.46433 0.874563 6.53404C7.75942 7.83519 14.1915 11.1927 19.2652 16.0256C22.9224 19.4992 25.7553 23.728 27.7058 28.3517C27.4968 25.4473 27.3807 22.543 27.3691 19.6386C27.3575 16.4205 27.4155 13.1676 27.6942 9.96121C27.9496 6.92905 28.6578 3.82715 30.9218 1.63144C31.7578 0.818222 33.3252 -0.424851 34.5326 0.144409C35.7053 0.702041 36.7502 1.4572 37.6558 2.37498C39.5482 4.30348 40.7092 6.89418 41.2317 9.51974C42.4043 15.3866 40.0823 21.1721 37.3771 26.2838C34.8577 31.0586 31.781 35.8915 30.62 41.2239C30.6316 41.677 30.6548 42.1301 30.6548 42.5948C31.1192 45.6502 31.6301 48.7056 32.257 51.7378C33.7315 58.8709 35.8097 65.9228 38.991 72.4983C40.1636 74.9147 41.4755 77.2731 42.9616 79.5385C42.3579 77.7029 42.0328 75.8209 41.8819 73.904C40.7325 71.9522 39.8733 69.7798 39.1186 67.6654C38.2014 65.0979 37.4932 62.4143 37.3423 59.6842C37.0637 54.5841 38.9794 49.8558 40.1984 44.988C40.8718 42.316 41.2433 39.5626 40.7325 36.8209L40.7557 36.6582L40.686 36.4491C40.5583 35.9263 41.2433 35.543 41.6497 35.8566L41.7542 35.9496L41.8006 35.9496C46.3054 37.7968 48.9874 42.4786 49.3589 47.207C49.7768 52.5278 47.7567 57.6743 45.9571 62.5769C45.3418 64.2498 44.7148 65.9228 44.0878 67.5957C43.7047 68.618 43.3564 69.6636 42.9384 70.6743C42.9036 71.7431 42.892 72.8236 42.95 73.904C42.9617 74.1131 42.9965 74.3339 43.0081 74.543L43.1242 74.9031L43.0545 75.1122C43.2751 77.459 43.7627 79.8173 44.6683 82.0014C46.8046 84.9058 49.2196 87.5894 51.948 89.9478C57.6718 94.8968 64.5915 97.7315 71.488 100.648C73.81 101.635 76.1553 102.657 78.4309 103.784C78.6515 103.691 78.8953 103.703 79.1507 103.889C79.5106 104.168 79.8822 104.446 80.2421 104.725C82.4364 105.899 84.5611 107.188 86.5116 108.687C83.4465 105.597 81.0316 101.786 79.3133 97.9406C77.5137 93.8977 76.283 89.6225 75.2265 85.3472C74.704 83.2561 74.1699 81.1533 73.752 79.0389C73.4037 77.2498 73.2643 75.2981 74.1351 73.6252C76.0276 69.954 81.078 69.6404 84.7004 69.9657C88.6595 70.3142 92.4793 71.7315 95.8346 73.8227C102.859 78.1909 107.77 85.5215 110.835 93.1077C110.881 93.1426 110.94 93.1891 110.974 93.2588C111.183 93.5841 111.358 93.921 111.532 94.2579C111.532 94.1998 111.543 94.1301 111.543 94.072C111.555 93.9442 111.566 93.828 111.578 93.7002C111.265 92.5617 110.963 91.4232 110.603 90.3079C109.837 87.8798 108.954 85.4867 107.909 83.1748C105.715 78.2954 102.743 73.7065 98.8301 70.0121C97.7619 69.013 96.6357 68.1185 95.4515 67.3169C84.1896 63.2159 68.8524 67.4911 60.5976 56.7798C58.7748 54.4098 57.6718 51.5635 57.7531 48.5546L57.6254 48.2642C57.3931 47.6833 58.1942 47.1256 58.6006 47.6717C58.7515 47.8692 58.9025 48.055 59.0534 48.2525C62.165 48.1944 65.2765 48.2874 68.3764 48.3687C71.3254 48.45 74.2977 48.5081 77.2002 49.1587C82.8312 50.4134 87.2547 54.0845 90.9003 58.4062C93.0366 60.9505 94.9174 63.7038 96.7635 66.4804C96.8679 66.6431 96.8912 66.8289 96.8679 67.0032C97.5181 67.5027 98.1683 68.0255 98.7836 68.5832C102.661 72.1033 105.715 76.3902 108.014 81.0836C109.279 83.6743 110.336 86.358 111.207 89.0997C111.427 89.8084 111.648 90.517 111.857 91.2373C111.95 90.4706 112.054 89.6922 112.182 88.9255C112.437 87.299 112.762 85.6841 113.145 84.0693C113.169 83.9764 113.192 83.8951 113.215 83.8021C113.459 82.408 113.714 81.0139 113.993 79.6315C112.96 77.0175 110.986 74.8218 109.07 72.8119C106.806 70.442 104.542 68.1069 103.021 65.1676C101.547 62.3213 100.769 59.1614 100.699 55.955C100.63 52.3419 101.617 48.845 102.162 45.3017C102.441 43.4777 102.592 41.6306 102.383 39.795C102.278 38.8772 102.104 37.971 101.802 37.0997C101.582 36.4608 101.257 35.8683 101.013 35.2525L100.839 35.0783L100.699 34.9737C100.165 34.5903 100.63 33.6725 101.257 33.9281L101.268 33.9281C101.477 33.8468 101.709 33.8584 101.884 34.0094C102.034 34.1372 102.162 34.2767 102.29 34.4161C104.298 35.4849 105.936 37.0765 107.294 38.9353L107.445 39.0747C109.302 40.8289 111.09 42.6645 112.669 44.6743C115.351 48.0782 117.476 52.005 118.358 56.2802C119.241 60.5439 118.649 64.912 117.697 69.1059C116.907 72.568 116.025 75.9951 115.259 79.4571C115.282 79.5036 115.317 79.5617 115.305 79.6198C115.282 81.223 114.887 82.8379 114.585 84.4062C114.283 86.0094 114.039 87.6127 113.819 89.2275C113.772 89.6225 113.749 90.0059 113.703 90.4009C114.307 88.484 115.166 86.66 116.211 84.9523C117.755 82.4545 119.682 80.2355 121.795 78.2025C121.702 78.0398 121.725 77.8075 121.946 77.7029C122.271 77.5403 122.573 77.366 122.875 77.1918C123.966 76.2043 125.092 75.2516 126.242 74.3338C126.358 74.2409 126.486 74.148 126.602 74.055C129.795 70.3723 131.513 65.2954 132.929 60.753C133.951 57.4768 134.961 54.1542 136.563 51.0988C138.224 47.9388 140.534 45.2552 143.309 43.013C146.571 40.3642 150.287 38.3312 153.979 36.3446C154.13 36.2633 154.281 36.2516 154.408 36.2516C154.768 36.2284 155.174 36.4724 155.186 36.9603L155.186 37.1346C158.228 43.0943 155.801 50.1694 152.597 55.5251C149.056 61.4268 144.04 66.4572 138.189 70.0702C135.135 71.9523 131.919 73.3812 128.529 74.543C125.092 77.1801 121.725 79.9683 119.067 83.3955C117.627 85.2427 116.385 87.2757 115.456 89.4366C117.267 86.2302 119.705 83.349 122.527 81.0255C129.597 75.2168 138.955 73.1024 147.953 73.6833C150.275 73.8343 152.574 74.1596 154.849 74.6359C156.568 74.996 158.332 75.391 160.016 75.9603C160.039 71.5689 160.91 66.4804 165.554 64.7959C170.198 63.1113 175.458 65.2722 179.092 68.2114C183.341 71.6502 186.127 76.4715 188.763 81.1766C191.131 85.4053 193.349 89.7387 194.986 94.316C195.09 94.618 195.183 94.9201 195.276 95.2338C195.392 95.3499 195.485 95.4777 195.532 95.652C195.659 96.1167 195.741 96.5814 195.845 97.0577C196.054 97.7896 196.251 98.5331 196.426 99.2766C197.192 93.5143 199.212 87.845 201.952 82.8495C206.666 74.2409 214.178 67.2704 223.013 63.0184C225.254 61.9379 227.576 61.0434 229.956 60.3347C231.895 59.7655 233.95 59.2311 235.993 59.2775C236.063 59.2543 236.133 59.2311 236.202 59.2078C236.481 59.1265 236.725 59.1846 236.922 59.3124C236.98 59.324 237.05 59.3124 237.108 59.324C239.395 59.6377 241.531 60.8575 242.53 63.0068C243.435 64.9469 243.296 67.2239 242.878 69.2686C240.893 78.9808 234.995 87.7869 227.611 94.2463C222.99 98.2891 217.696 101.472 212.076 103.912C218.183 103.215 224.383 103.169 230.444 103.54C232.348 103.563 234.24 103.622 236.144 103.68C240.347 103.343 244.538 102.739 248.637 101.751C251.029 101.182 253.385 100.485 255.707 99.6717C257.217 99.1489 258.68 98.5215 260.166 97.929C260.05 97.4992 260.038 97.0693 260.166 96.6278C260.259 96.3025 260.456 96.0354 260.677 95.7798C260.711 95.7333 260.746 95.6984 260.781 95.6636C260.816 95.6287 260.839 95.5939 260.874 95.559C260.886 95.5474 260.909 95.5358 260.932 95.5242C261.35 95.0943 261.919 94.8039 262.499 94.7458C263.475 94.6412 264.473 95.0362 265.03 95.8495C265.297 96.2329 265.506 96.6859 265.553 97.1506C265.599 97.7315 265.483 98.231 265.205 98.7306C264.752 99.5554 263.777 100.078 262.848 99.9969C262.372 99.9505 261.907 99.753 261.536 99.4393C261.338 99.3696 261.153 99.2766 260.978 99.1489C259.353 99.8691 257.646 100.45 255.986 100.984C253.676 101.74 251.33 102.39 248.962 102.925C247.011 103.366 245.049 103.691 243.087 103.97C250.936 104.365 258.761 105.004 266.575 105.968C271.532 106.572 276.606 107.118 281.459 108.35C281.563 108.048 281.691 107.769 281.888 107.513C282.446 106.793 283.247 106.433 284.153 106.421C284.849 106.41 285.581 106.747 286.057 107.281C286.126 107.351 286.207 107.409 286.277 107.479C286.556 107.792 286.73 108.176 286.834 108.571C287.043 109.326 286.858 110.116 286.475 110.778C286.091 111.452 285.406 111.893 284.663 112.044C283.142 112.346 281.471 111.243 281.296 109.674C281.285 109.523 281.285 109.384 281.285 109.233C276.896 108.815 272.542 107.967 268.188 107.362C263.475 106.712 258.738 106.177 254.001 105.748C250.111 105.387 246.222 105.12 242.321 104.888C248.985 106.003 255.557 107.734 261.872 110.139C267.074 112.126 272.194 114.449 276.792 117.597C276.803 117.586 276.815 117.574 276.826 117.563C277.442 117.144 278.138 117.017 278.858 117.226C279.497 117.412 279.984 117.911 280.31 118.48C280.635 119.05 280.681 119.723 280.495 120.351C280.31 121.013 279.706 121.582 279.056 121.791C278.278 122.047 277.477 121.989 276.768 121.547C276.408 121.315 276.153 120.99 276.002 120.618C275.735 120.107 275.689 119.538 275.828 118.968C275.886 118.736 276.002 118.504 276.141 118.295C271.869 116.215 267.62 114.066 263.219 112.277C258.413 110.325 253.455 108.722 248.428 107.432C244.26 106.363 240.034 105.585 235.773 105.074C236.632 105.422 237.468 105.841 238.28 106.224C239.883 106.991 241.438 107.862 242.936 108.815C244.446 109.767 245.908 110.79 247.313 111.893C248.056 112.474 248.776 113.078 249.484 113.706C249.659 113.857 249.844 114.019 250.03 114.17C250.1 114.135 250.158 114.077 250.239 114.043C250.657 113.88 251.098 113.845 251.539 113.95C252.364 114.135 253.084 114.798 253.211 115.657C253.234 115.843 253.246 116.041 253.211 116.227C253.153 116.517 253.072 116.703 252.933 116.959C252.735 117.295 252.422 117.551 252.085 117.725C251.923 117.818 251.725 117.865 251.551 117.9C251.377 117.934 251.191 117.934 251.017 117.911C250.994 117.911 250.97 117.934 250.947 117.934C250.68 117.958 250.425 117.934 250.169 117.841C250.042 117.795 249.914 117.725 249.798 117.656C249.74 117.621 249.682 117.574 249.624 117.528C249.403 117.33 249.252 117.144 249.101 116.889C248.997 116.715 248.939 116.505 248.904 116.308C248.823 115.808 248.962 115.309 249.229 114.879C249.252 114.844 249.299 114.809 249.322 114.774C249.159 114.612 249.008 114.461 248.846 114.321C248.207 113.764 247.569 113.218 246.907 112.695C245.502 111.591 244.051 110.546 242.53 109.605C241.009 108.652 239.43 107.804 237.816 107.014C236.284 106.27 234.6 105.748 233.16 104.841C233.126 104.818 233.126 104.795 233.102 104.76C230.606 104.528 228.11 104.365 225.614 104.307C225.567 104.307 225.532 104.307 225.486 104.307C223.524 104.295 221.55 104.33 219.588 104.354C218.915 104.377 218.23 104.388 217.556 104.423C215.42 104.539 213.295 104.748 211.182 104.992C215.048 105.027 218.891 105.608 222.572 106.793C231.442 109.639 238.884 115.774 243.61 123.79C244.794 125.799 245.792 127.914 246.57 130.11C247.313 132.201 248.045 134.443 247.998 136.685C247.894 141.715 242.716 143.795 238.466 144.469C232.754 145.387 227.158 144.236 221.98 141.971C222.479 142.238 222.978 142.494 223.477 142.738C228.772 145.352 234.368 147.373 240.127 148.674C241.973 149.093 243.842 149.395 245.711 149.662C246.245 149.488 246.779 149.29 247.302 149.046C247.522 148.942 247.743 148.837 247.952 148.721L248.196 148.593L248.405 148.465C248.614 148.337 248.811 148.186 249.02 148.047C252.549 140.635 259.713 134.989 267.248 132.119C275.352 129.017 284.28 128.774 292.721 130.539C293.487 130.702 294.555 130.748 295.24 131.248C295.438 131.295 295.647 131.318 295.856 131.364C296.308 131.469 296.216 132.096 295.867 132.259C295.972 133.026 295.496 133.816 295.101 134.466C295.716 134.652 296.32 135.105 296.819 135.407C297.644 135.918 298.433 136.511 299.095 137.219C300.186 138.393 300.918 140.008 300.802 141.622C300.662 143.516 299.257 144.957 298.096 146.328C296.796 147.873 295.554 149.522 294.114 150.94C296.03 152.415 297.272 154.471 295.798 156.981C294.683 158.874 292.465 159.885 290.527 160.698C288.634 161.5 286.66 162.139 284.663 162.615C276.501 164.555 267.666 163.673 259.968 160.385C256.102 158.735 252.236 156.423 249.159 153.484C247.592 152.95 246.106 152.136 244.62 151.404C244.457 151.323 244.341 151.219 244.271 151.091C236.609 149.778 229.097 147.187 222.224 143.539C228.052 148.372 234.298 152.706 240.881 156.435C244.376 158.41 247.963 160.129 251.621 161.721C254.906 162.697 258.18 163.696 261.455 164.66C261.629 164.532 261.849 164.463 262.093 164.532C263.626 164.985 265.112 165.589 266.621 166.124C269.466 166.902 272.31 167.657 275.189 168.285C275.34 168.32 275.48 168.343 275.631 168.378C278.475 168.866 281.354 169.214 284.222 169.493C285.453 169.609 286.684 169.714 287.903 169.818C287.937 169.76 288.007 169.702 288.088 169.679C290.84 168.912 293.557 167.936 296.285 167.1C297.609 166.693 298.944 166.286 300.256 165.845C300.918 165.624 301.579 165.415 302.23 165.183C302.729 165.009 303.182 164.823 303.646 164.892C312.551 152.822 325.613 143.737 339.661 138.776C343.806 137.312 348.067 136.22 352.397 135.5C352.583 135.465 352.769 135.523 352.92 135.616C353.071 135.663 353.199 135.779 353.233 135.93ZM330.826 169.656C342.378 170.782 354.522 170.411 365.552 174.407C362.522 172.653 359.305 171.212 355.915 170.19C351.736 168.924 347.382 168.331 343.016 168.343C338.895 168.354 334.796 168.889 330.733 169.551C330.756 169.586 330.791 169.621 330.826 169.656ZM359.886 167.042C356.902 164.974 353.524 163.417 349.89 163.01C346.523 162.627 343.144 163.278 339.986 164.416C337.432 165.334 334.994 166.542 332.579 167.785C339.765 166.74 346.987 166.379 354.162 168.11C358.841 169.237 363.323 171.131 367.421 173.664C367.618 173.78 367.804 173.919 368.002 174.035C365.459 171.526 362.835 169.086 359.886 167.042ZM333.751 172.351C335.145 173.373 336.666 174.186 338.268 174.849C341.495 176.173 344.92 176.8 348.38 177.114C355.277 177.73 362.278 177.172 369.081 178.694C370.207 178.95 371.38 179.263 372.53 179.647C370.811 178.52 369.081 177.451 367.2 176.568C364.507 175.302 361.674 174.337 358.795 173.617C352.676 172.095 346.337 171.689 340.067 171.177C337.142 170.933 334.227 170.655 331.336 170.213C331.464 170.353 331.592 170.492 331.731 170.631C332.358 171.259 333.043 171.828 333.751 172.351ZM354.603 215.661C353.791 214.836 353.071 213.953 352.351 213.047C350.319 210.491 348.729 207.517 347.219 204.636C345.617 201.58 344.073 198.49 342.029 195.69C340.056 192.972 337.757 190.463 335.203 188.278C333.171 186.536 330.965 185.037 328.678 183.678C328.98 184.026 329.281 184.375 329.56 184.747C332.823 189.173 334.715 194.389 337.618 199.036C340.462 203.602 344.061 207.715 348.206 211.142C350.215 212.803 352.363 214.313 354.603 215.661ZM350.737 203.648C347.347 197.166 342.204 191.555 336.213 187.407C334.622 186.303 332.95 185.328 331.244 184.456C334.959 186.849 338.291 189.905 340.973 193.332C342.993 195.911 344.642 198.746 346.232 201.604C347.904 204.601 349.46 207.703 351.538 210.456C352.711 212.001 353.988 213.43 355.463 214.708C356.124 215.278 356.809 215.824 357.518 216.323C354.557 212.617 352.815 207.622 350.737 203.648ZM328.213 190.788C328.596 192.925 329.131 195.028 329.885 197.073C331.406 201.174 333.659 204.973 336.561 208.237C339.719 211.792 343.62 214.662 347.927 216.672C351.515 218.333 355.288 219.309 359.166 219.843C358.121 219.39 357.1 218.879 356.101 218.368C353.744 217.148 351.48 215.719 349.344 214.127C345.095 210.967 341.321 207.157 338.233 202.858C335.075 198.455 333.032 193.506 330.384 188.813C329.258 186.815 327.935 184.909 326.356 183.248C326.565 183.713 326.762 184.201 326.913 184.712C327.54 186.698 327.842 188.743 328.213 190.788ZM287.682 180.948C288.948 182.574 289.934 184.526 290.782 186.292C292.059 188.952 293.092 191.717 294.195 194.447C295.287 197.131 296.436 199.803 297.911 202.312C299.524 205.054 301.556 207.494 303.507 209.98C304.598 211.374 305.701 212.815 306.665 214.325C306.282 212.873 305.898 211.409 305.457 209.98C304.296 206.169 302.891 202.417 301.196 198.815C297.969 191.984 293.51 185.781 287.682 180.948ZM308.847 215.545C308.871 213.523 308.906 211.513 308.94 209.492C309.01 205.914 309.173 202.312 308.708 198.757C308.244 195.249 307.059 191.95 304.946 189.103C302.81 186.234 299.977 183.922 296.831 182.249C294.091 180.785 291.119 179.798 288.088 179.112C293.719 183.585 298.201 189.289 301.568 195.656C303.646 199.582 305.306 203.718 306.642 207.958C307.501 210.7 308.302 213.512 308.859 216.358C308.836 216.079 308.847 215.812 308.847 215.545ZM288.228 184.503C289.029 188.255 288.866 192.159 289.853 195.876C291.746 203.009 298.131 207.447 303.182 212.303C304.633 213.698 306.107 215.219 307.35 216.904C307.28 216.637 307.21 216.37 307.141 216.091C306.073 214.278 304.865 212.547 303.553 210.863C301.696 208.493 299.745 206.181 298.062 203.683C294.869 198.92 293.081 193.425 290.643 188.267C289.946 186.803 289.203 185.374 288.379 183.98C288.251 183.759 288.112 183.562 287.972 183.353C288.054 183.736 288.146 184.119 288.228 184.503ZM274.853 181.598C274.853 181.587 274.864 181.575 274.864 181.563C274.992 180.89 273.994 180.111 273.576 179.658C271.486 177.404 269.233 175.313 266.737 173.501C264.276 171.723 261.594 170.236 258.703 169.272C256.23 168.436 253.641 168.006 251.029 167.797C255.092 169.028 259.005 170.736 262.708 172.827C267.004 175.255 271.288 178.16 274.853 181.598ZM272.995 182.818C273.274 182.702 273.668 182.574 274.028 182.388C272.252 180.762 270.499 179.135 268.583 177.66C266.621 176.138 264.52 174.79 262.36 173.559C261.176 172.885 259.968 172.258 258.738 171.665C260.212 172.641 261.605 173.745 262.871 175C265.356 177.474 267.329 180.471 268.664 183.713C270.162 183.655 271.613 183.376 272.995 182.818ZM252.526 195.075C252.48 194.924 252.538 194.807 252.642 194.715C252.457 194.552 252.271 194.401 252.097 194.238C248.056 190.509 244.782 185.908 242.6 180.855C243.83 184.84 245.34 188.72 247.36 192.391C248.73 194.877 250.332 197.236 252.062 199.489C253.513 198.548 252.898 196.422 252.526 195.075ZM239.604 179.798C240.347 182.597 241.485 185.293 242.658 187.941C244.039 191.055 245.607 194.134 247.778 196.782C248.37 197.503 249.008 198.211 249.693 198.839C250.227 199.327 250.889 199.873 251.609 199.698C248.323 195.969 245.92 191.531 243.946 186.989C241.88 182.226 240.336 177.277 239.035 172.258C238.664 174.779 238.954 177.358 239.604 179.798ZM256.996 196.771C257.484 197.096 258.03 197.468 258.61 197.619C257.101 195.841 255.777 193.89 254.407 192.019C252.782 189.8 251.179 187.558 249.6 185.304C248.126 183.213 246.663 181.11 245.212 178.996C243.946 177.137 242.658 175.267 241.613 173.28C241.555 173.176 241.508 173.059 241.462 172.955C243.145 182.551 248.892 191.322 256.996 196.771ZM241.299 170.051C241.798 171.398 242.391 172.699 243.041 173.989C244.411 176.684 246.094 179.194 247.824 181.656C249.775 184.421 251.748 187.186 253.745 189.916C255.603 192.472 257.658 194.982 259.353 197.654C260.189 197.433 260.177 196.225 260.154 195.481C260.084 193.715 259.725 192.008 259.434 190.277C258.598 189.777 257.786 189.254 257.008 188.685C253.676 186.28 250.785 183.306 248.219 180.1C245.665 176.905 243.447 173.478 241.288 170.004C241.288 170.016 241.288 170.039 241.299 170.051ZM253.815 178.868C251.47 176.847 249.09 174.872 246.814 172.769C245.746 171.782 244.713 170.748 243.737 169.656C243.401 169.284 243.064 168.9 242.727 168.494C242.391 168.401 242.065 168.296 241.729 168.192C242.843 169.992 243.958 171.782 245.131 173.547C249.438 180.053 254.663 186.466 261.745 190.068C263.277 190.846 265.123 191.822 266.888 191.729C267.538 191.694 267.979 191.473 268.281 191.148C263.312 187.279 258.598 182.992 253.815 178.868ZM244.596 169.168C245.595 170.306 246.651 171.398 247.743 172.455C249.984 174.628 252.364 176.649 254.721 178.694C259.341 182.714 264.09 186.64 268.514 190.881C268.873 190.311 268.931 189.521 268.827 188.731C267.898 187.721 267.19 186.466 266.354 185.374C265.46 184.201 264.496 183.062 263.498 181.97C261.489 179.786 259.295 177.73 256.938 175.941C254.593 174.163 252.085 172.746 249.554 171.282C248.161 170.48 246.86 169.795 245.328 169.295C245.049 169.202 244.759 169.121 244.469 169.04L244.596 169.168ZM244.062 168.505C245.328 169.028 246.57 169.632 247.836 170.178C248.95 170.655 250.076 171.003 251.145 171.572C252.143 172.107 253.13 172.676 254.094 173.28C258.053 175.755 261.687 178.717 264.821 182.191C265.715 183.19 266.575 184.224 267.387 185.293C267.701 185.699 268.026 186.129 268.339 186.559C267.434 183.469 265.866 180.553 263.893 178.043C259.005 171.84 251.621 168.436 243.819 168.192C243.9 168.285 243.97 168.389 244.062 168.505ZM259.539 222.039C255.731 217.764 251.052 214.267 245.874 211.874C241.891 210.038 237.688 208.888 233.335 208.365C228.69 207.807 224 207.807 219.356 207.18C215.501 206.657 211.693 205.728 208.338 203.811C208.686 204.125 209.046 204.438 209.406 204.752C209.487 204.799 209.568 204.845 209.65 204.891C209.859 204.81 210.102 204.845 210.288 205.066C210.381 205.17 210.474 205.275 210.567 205.379C213.086 206.704 215.652 207.877 218.392 208.783C222.328 210.096 226.38 211.037 230.42 211.92C238.35 213.663 246.35 215.254 253.757 218.705C255.766 219.646 257.728 220.738 259.539 222.039ZM259.992 224.2C259.643 223.921 259.295 223.642 258.935 223.375C257.356 222.202 255.684 221.144 253.966 220.203C250.355 218.217 246.442 216.846 242.472 215.742C234.635 213.547 226.531 212.373 218.833 209.678C216.465 208.853 214.05 207.912 211.763 206.75C211.856 206.855 211.96 206.948 212.053 207.052C216.709 210.874 221.829 214.22 227.587 216.114C233.578 218.089 239.929 218.496 246.117 219.564C249.577 220.168 253.014 220.982 256.265 222.329C257.553 222.852 258.796 223.491 259.992 224.2ZM260.143 226.268C256.195 223.793 251.679 222.329 247.081 221.423C241.009 220.238 234.797 219.797 228.841 218.054C227.077 217.531 225.382 216.881 223.733 216.137C231.326 220.482 239.964 223.143 248.521 224.746C251.029 225.21 253.56 225.582 256.091 225.942C257.449 225.966 258.807 226.059 260.143 226.268ZM208.767 205.856C213.051 212.698 218.984 218.507 226.194 222.225C229.968 224.165 234.031 225.547 238.234 226.175C242.739 226.849 247.186 226.372 251.702 226.082C251.923 226.07 252.143 226.059 252.375 226.047C247.859 225.396 243.377 224.455 239.024 223.236C231.872 221.249 224.952 218.286 218.833 214.058C216.79 212.652 214.851 211.095 213.017 209.434C211.565 208.284 210.149 207.087 208.767 205.856ZM121.377 195.458C116.06 199.001 111.671 203.881 108.676 209.527C107.758 211.258 106.98 213.07 106.342 214.917C106.969 214.023 107.631 213.163 108.292 212.315C109.779 210.41 111.357 208.597 112.995 206.832C116.234 203.335 119.694 200.047 123.351 197.003C126.079 194.738 128.924 192.623 131.873 190.648C128.181 191.717 124.64 193.286 121.377 195.458ZM136.772 189.58C129.04 194.412 121.876 200.21 115.584 206.82C113.761 208.737 112.031 210.747 110.324 212.768C108.664 214.732 107.166 216.904 105.274 218.635L105.227 218.844C112.031 218.159 117.813 213.709 122.155 208.632C127.403 202.51 131.223 195.133 137.086 189.533L136.772 189.58ZM58.9257 209.968C57.7182 211.362 56.6501 212.873 55.7329 214.488C54.9666 215.824 54.5022 217.276 53.8636 218.658C56.8127 217.311 59.8429 216.16 62.7106 214.65C65.7874 213.024 68.7131 211.13 71.4532 208.992C76.9796 204.694 81.7282 199.466 85.5712 193.622C86.5 192.217 87.3708 190.765 88.1835 189.301C79.1391 197.038 66.8787 200.79 58.9257 209.968ZM74.019 209.097C71.012 211.583 67.7727 213.779 64.3361 215.626C61.956 216.916 59.425 218.135 56.8011 218.949C63.4073 217.671 69.7348 215.068 75.18 211.06C81.4496 206.437 86.3607 200.07 89.2748 192.844C89.9947 191.043 90.5868 189.185 91.0628 187.314C86.918 195.621 81.2406 203.137 74.019 209.097ZM53.9217 174.082C61.0736 173.745 67.8772 171.061 73.8797 167.251L73.9377 167.216C67.4709 170.225 60.4234 171.933 53.2367 172.142C48.1398 172.293 42.7875 171.863 37.8996 170.213C42.683 173.106 48.314 174.349 53.9217 174.082ZM45.0399 163.975C43.31 164.474 41.6265 165.16 40.0591 166.054C38.7819 166.786 37.6906 167.692 36.6109 168.656C41.4756 169.679 46.3402 170.62 51.3326 170.655C56.534 170.701 61.7702 169.946 66.7394 168.412C71.3138 166.995 75.6096 164.927 79.5571 162.348C68.4229 165.345 56.267 160.768 45.0399 163.975ZM35.206 27.2364C38.0737 21.6949 41.0343 15.4795 39.4089 9.1015C38.631 6.03447 36.785 3.17657 33.8825 1.78247C33.7083 1.85219 33.569 1.94511 33.4064 2.02643C33.5458 2.89775 33.4297 3.90846 33.4529 4.71008C33.4761 5.97638 33.4993 7.25432 33.4877 8.53224C33.4761 11.0765 33.3832 13.6207 33.2671 16.165C33.0349 21.3115 32.733 26.4348 32.1641 31.5582C32.0712 32.4179 31.9435 33.2776 31.8274 34.1373C32.8491 31.7673 34.045 29.4902 35.206 27.2364ZM30.5852 37.3553C31.6881 28.1775 32.4312 18.9764 32.199 9.71722C32.1641 8.25342 32.1293 6.80124 32.0713 5.33743C32.0481 4.65199 32.0132 3.96658 31.9784 3.28114L31.9668 3.08363C29.2268 5.82536 29.3196 11.0184 29.2035 14.6082C29.0294 19.778 29.1687 24.9362 29.5867 30.0943C29.7956 32.6734 30.0975 35.2409 30.4342 37.7968C30.469 37.6457 30.5387 37.4947 30.5852 37.3553ZM27.9032 34.4393C27.2298 31.5582 26.2313 28.7467 24.8149 26.0631C21.7498 20.2543 17.0128 15.4447 11.3354 12.1569C8.99013 10.7977 6.47069 9.74045 3.87002 8.95047C5.50707 10.4259 7.06283 12.0175 8.57213 13.5859C10.7084 15.7932 12.7634 18.0935 14.7488 20.4402C18.6847 25.1337 22.2142 30.106 25.4302 35.3106C26.5912 37.1926 27.6826 39.1095 28.7275 41.0613C28.4141 38.8772 28.1238 36.6582 27.9032 34.4393ZM28.9133 42.9085C23.3984 32.8709 16.56 23.5305 8.54894 15.3634C6.31978 13.0863 3.91643 10.9836 1.64083 8.76462C1.79177 14.3875 4.81045 19.5573 8.54894 23.6118C13.4136 28.8861 19.5322 32.778 24.5827 37.8548C26.15 39.4232 27.6594 41.131 28.9133 43.0014L28.9133 42.9085ZM43.9137 64.0175C44.8657 61.543 45.8642 59.0917 46.7001 56.5707C48.2095 51.9934 49.0106 46.9746 46.8511 42.467C46.0616 40.8173 44.889 39.3884 43.3912 38.4357C43.6002 38.9353 43.786 39.4465 43.9485 39.9112C44.471 41.4098 44.8309 42.955 45.0399 44.5233C45.4811 47.7646 45.3533 51.0756 44.9934 54.3169C44.5871 58.0229 43.8789 61.694 43.3912 65.3884C43.5654 64.9353 43.7279 64.4822 43.9137 64.0175ZM41.8238 69.501C42.1489 61.9147 44.32 54.0032 43.7395 46.6958C43.6002 44.9299 43.31 43.1524 42.7875 41.4679C42.6946 41.1775 42.5901 40.8986 42.4972 40.6198C42.2534 44.0586 41.104 47.4161 40.1288 50.7154C39.4206 53.0854 38.8052 55.5019 38.7007 57.988C38.573 60.7762 39.0954 63.5644 39.9198 66.2132C40.361 67.6422 40.9415 69.0363 41.5104 70.4187C41.5916 70.1051 41.7078 69.803 41.8238 69.501ZM18.5918 66.7127C18.9633 71.1622 22.5276 74.5894 26.2081 76.7735C28.565 78.1792 31.096 79.2713 33.5806 80.433C34.5675 80.8977 35.5659 81.3624 36.5528 81.8271C34.9041 80.7932 33.2671 79.7128 31.6881 78.5742C26.8815 75.1122 22.5044 71.1622 18.5918 66.7127ZM37.1449 76.8665C33.5341 73.7414 29.517 71.1042 25.198 69.0827C23.3288 68.2114 21.4015 67.4795 19.4509 66.8406C23.4216 70.8835 27.7406 74.6359 32.3731 77.9004C34.7648 79.585 37.2378 81.1301 39.8037 82.5242C41.1737 83.2677 42.5553 83.9764 43.9601 84.6502C44.1575 84.7431 44.3549 84.8245 44.5523 84.9174C42.3347 82.013 39.9314 79.2829 37.1449 76.8665ZM42.2883 96.3955C48.2443 105.283 60.319 106.642 70.1644 105.69C71.1745 105.597 72.1846 105.457 73.1947 105.341C72.6838 105.306 72.1614 105.295 71.6505 105.248C69.0963 105.027 66.5536 104.679 64.0342 104.168C59.0651 103.18 54.2584 101.693 49.5679 99.7878C47.1297 98.8003 44.7729 97.6618 42.474 96.3955L42.2883 96.3955ZM49.3241 96.6162C47.5941 96.4536 45.8526 96.4071 44.1111 96.4071C52.482 100.427 61.4219 102.901 70.7217 103.61C71.3719 103.656 72.022 103.68 72.6838 103.703C65.4623 99.7878 57.5209 97.383 49.3241 96.6162ZM74.9362 103.447C75.1452 103.564 75.3426 103.691 75.5515 103.807L75.7489 103.807C75.4703 103.691 75.2032 103.564 74.9362 103.447ZM59.274 51.1801C60.2028 55.5832 63.9297 59.1381 67.9933 60.9156C73.7172 63.425 80.126 63.4018 86.233 64.0407C87.7539 64.2034 89.2748 64.4125 90.7842 64.7029C88.9497 63.8665 87.0341 63.1694 85.0603 62.6002C80.1608 61.1828 75.1103 60.3115 70.327 58.5108C66.4027 57.0121 61.9444 54.6886 59.274 51.1801ZM85.0139 54.4679C82.8079 52.7369 80.3117 51.4009 77.5833 50.6922C74.7969 49.9719 71.8943 49.8906 69.0382 49.7628C65.9499 49.6118 62.8616 49.4724 59.7732 49.2052C60.9575 50.6574 62.2462 52.0166 63.7555 53.1551C65.8222 54.7003 68.1326 55.8736 70.5127 56.8379C75.2845 58.7664 80.3698 59.719 85.2693 61.2525C88.4853 62.2633 91.5505 63.5644 94.3601 65.307C91.6898 61.3338 88.7988 57.4304 85.0139 54.4679ZM115.816 71.4643C116.814 67.2937 117.743 62.9719 117.267 58.6618C116.779 54.3052 114.829 50.2624 112.263 46.7539C111.59 45.8361 110.87 44.9648 110.127 44.1167C110.858 45.8593 111.45 47.6368 111.915 49.3213C112.786 52.4929 113.401 55.7458 113.981 58.9871C114.55 62.1006 115.003 65.2257 115.293 68.3741C115.433 69.8146 115.502 71.2668 115.526 72.7074C115.63 72.2892 115.711 71.8826 115.816 71.4643ZM113.041 60.7065C111.822 54.6654 110.754 48.2758 107.782 42.8039C107.143 41.6305 106.4 40.5385 105.564 39.5278C105.111 39.1212 104.647 38.7146 104.182 38.3079C104.368 38.8075 104.531 39.307 104.682 39.7601C105.1 41.0032 105.425 42.2695 105.668 43.559C106.191 46.3124 106.435 49.1122 106.702 51.9004C106.969 54.7235 107.317 57.5814 108.153 60.2999C109.14 63.4715 110.905 66.2481 112.484 69.1408C113.343 70.7208 114.19 72.4867 114.678 74.3106C114.562 69.7449 113.947 65.2257 113.041 60.7065ZM112.077 69.8146C110.533 66.9219 108.71 64.1801 107.665 61.0318C105.959 55.8968 105.703 50.4482 104.763 45.1506C104.6 44.2212 104.391 43.2919 104.171 42.3741C104.148 43.5823 104.055 44.7905 103.95 45.9639C103.695 48.7986 103.416 51.6332 103.753 54.4679C104.09 57.3258 104.949 60.1489 106.168 62.7512C107.433 65.4348 109.198 67.8048 110.881 70.2328C111.764 71.5108 112.611 72.8003 113.354 74.1596C113.68 74.7637 114.028 75.4259 114.33 76.0997C113.958 73.9156 113.157 71.8477 112.077 69.8146ZM114.365 77.8075C113.912 76.7503 113.54 75.6466 112.995 74.6243C112.286 73.2999 111.462 72.0452 110.614 70.8137C109.012 68.4902 107.306 66.2248 106.005 63.7154C103.822 59.4867 102.894 54.921 102.743 50.2391C102.522 51.3892 102.325 52.5394 102.209 53.7011C101.872 57.1283 102.406 60.5903 103.776 63.7503C105.134 66.8986 107.375 69.3732 109.674 71.8593C111.474 73.8111 113.238 75.8209 114.272 78.2025C114.295 78.0747 114.33 77.9469 114.365 77.8075ZM144.214 64.0756C148.963 59.6842 153.247 53.8986 154.884 47.5671C155.558 44.9532 155.651 42.2927 155.035 39.7369C154.64 43.4312 153.398 47.0675 151.773 50.3785C149.532 54.9326 146.432 58.9755 142.902 62.6002C139.454 66.1435 135.576 69.1873 131.652 72.173C136.285 70.2909 140.58 67.4447 144.214 64.0756ZM138.978 64.1685C142.879 60.5903 146.397 56.5707 149.056 51.9817C151.482 47.7762 152.945 43.2454 153.63 38.4938C147.489 41.8397 141.265 45.534 137.887 51.9353C134.682 58.0228 133.8 65.0398 130.317 71.0112C130.236 71.139 130.154 71.2668 130.073 71.3946C133.115 69.0711 136.157 66.7592 138.978 64.1685ZM250.344 150.394L250.529 150.603C261.187 149.081 271.834 147.559 282.457 145.84C285.534 145.34 288.622 144.841 291.699 144.329C290.573 143.934 289.47 143.493 288.309 143.179C286.962 142.807 285.592 142.529 284.199 142.343C281.412 141.959 278.58 141.913 275.77 142.157C269.64 142.68 263.73 144.515 258.076 146.862C256.439 147.536 254.825 148.256 253.211 149C252.271 149.441 251.307 149.941 250.344 150.394ZM250.32 149.406C250.912 149.127 251.505 148.849 252.073 148.57C253.583 147.849 255.092 147.141 256.625 146.479C259.632 145.177 262.697 144.016 265.843 143.098C271.567 141.425 277.593 140.577 283.537 141.251C285.569 141.483 287.74 141.855 289.772 142.517C288.425 141.681 286.811 141.146 285.383 140.809C282.341 140.066 279.079 139.81 275.956 139.636C269.64 139.287 263.138 140.008 257.507 143.098C254.674 144.666 252.236 146.792 250.32 149.406ZM265.379 139.229C271.973 137.858 278.951 138.474 285.523 139.671C286.219 139.799 286.927 139.95 287.624 140.147C286.742 139.613 285.836 139.113 284.896 138.695C278.974 136.023 272.124 135.407 265.878 137.266C262.337 138.323 259.016 140.135 256.16 142.482C255.522 143.005 254.918 143.563 254.349 144.132C257.553 141.669 261.466 140.054 265.379 139.229ZM279.276 130.888C271.161 131.492 263.382 134.338 257.136 139.636C256.16 140.461 255.255 141.344 254.395 142.273L254.442 142.227C257.089 139.775 260.201 137.824 263.568 136.534L263.684 136.499C269.558 133.339 276.107 131.399 282.748 130.783C281.587 130.772 280.437 130.807 279.276 130.888ZM287.392 131.573C284.594 131.55 281.784 131.782 279.021 132.236C275.364 132.84 271.776 133.827 268.351 135.198C270.917 134.722 273.529 134.617 276.118 134.861L276.13 134.849C279.16 133.699 282.318 132.967 285.523 132.503C287.101 132.27 288.692 132.119 290.294 132.026C290.933 131.992 291.571 131.945 292.222 131.899C290.619 131.724 289.017 131.585 287.392 131.573ZM294.149 133.223C292.918 133.177 291.688 133.072 290.457 133.107C288.82 133.142 287.183 133.281 285.557 133.49C282.957 133.827 280.402 134.396 277.871 135.07C279.973 135.395 282.051 135.942 284.048 136.732C285.639 137.359 287.194 138.137 288.657 139.043C289.354 138.393 290.132 137.812 290.828 137.161C291.746 136.302 292.582 135.361 293.336 134.35C293.603 133.99 293.893 133.606 294.149 133.223ZM293.058 150.231C294.044 148.756 295.287 147.431 296.425 146.072C297.435 144.864 298.921 143.539 299.269 141.948C299.571 140.623 298.921 139.252 298.062 138.277C297.458 137.591 296.715 137.057 295.948 136.58C295.496 136.302 294.741 136.034 294.288 135.628C293.696 136.429 293.046 137.173 292.373 137.893C291.653 138.637 290.886 139.404 290.016 139.996C290.991 140.681 291.931 141.413 292.791 142.227C293.928 143.295 294.787 144.689 294.091 146.269C293.557 147.478 292.5 148.5 291.479 149.418C292.013 149.639 292.547 149.917 293.058 150.231ZM290.701 148.035C291.281 147.501 292.129 146.792 292.582 146.002L292.454 145.758C292.407 145.584 292.314 145.445 292.256 145.282C280.635 147.327 268.955 149.081 257.24 150.429C255.034 150.684 252.84 150.893 250.634 151.114L250.553 151.381C255.487 152.775 260.468 153.635 265.623 153.6C271.242 153.565 276.896 152.624 282.167 150.673C283.607 150.138 285.023 149.546 286.417 148.895C287.113 148.57 287.798 148.221 288.472 147.861C289.18 147.489 289.865 147.001 290.619 146.746C291.107 146.583 291.49 147.164 291.095 147.524C290.097 148.442 288.599 149 287.38 149.569C286.103 150.161 284.791 150.719 283.456 151.184C280.797 152.136 278.057 152.88 275.282 153.414C269.698 154.495 263.927 154.646 258.297 153.832C256.288 153.542 254.268 153.124 252.294 152.566C256.868 155.18 262.047 156.714 267.341 156.899C274.156 157.143 281.018 155.099 286.649 151.253C288.077 150.289 289.435 149.209 290.701 148.035ZM290.724 150.08L290.677 150.126C286.718 153.623 281.854 156.121 276.71 157.434C279.462 157.202 282.202 156.76 284.919 156.086C288.216 155.261 291.27 153.984 294.381 152.682C293.487 151.509 292.036 150.696 290.724 150.08ZM253.757 155.331C255.301 156.423 256.938 157.399 258.645 158.224C262.047 159.885 265.692 161.059 269.419 161.674C276.85 162.894 284.791 162.046 291.595 158.712C293.487 157.782 295.914 156.028 294.927 153.6L294.869 153.484C292.222 154.925 289.226 155.889 286.335 156.679C283.328 157.504 280.24 158.061 277.128 158.328C274.539 158.561 271.939 158.584 269.338 158.433C264.171 158.561 259.04 157.492 254.349 155.366C253.966 155.227 253.583 155.064 253.211 154.913C253.397 155.064 253.571 155.203 253.757 155.331ZM192.107 106.27C192.362 106.154 192.606 106.026 192.838 105.864C188.113 102.797 183.561 99.4742 179.196 95.896C174.297 91.8763 169.362 87.601 165.763 82.3267C165.763 83.4884 165.531 84.6618 165.171 85.7887C165.775 86.4161 166.309 87.1596 166.878 87.7869C167.737 88.7279 168.619 89.6573 169.525 90.5635C171.371 92.4107 173.321 94.1533 175.341 95.803C179.301 99.0211 183.573 101.844 188.066 104.261C189.401 104.969 190.748 105.62 192.107 106.27ZM192.676 107.63C192.931 107.688 193.186 107.757 193.43 107.816C193.221 107.734 193.024 107.653 192.826 107.572C192.768 107.595 192.722 107.618 192.676 107.63ZM189.1 159.932C186.766 158.224 185.001 155.703 183.875 153.089C182.424 149.697 181.913 146.002 182.11 142.331C182.308 138.602 183.202 134.931 184.363 131.399C185.675 127.437 187.323 123.58 189.251 119.874C189.343 119.712 189.436 119.549 189.529 119.375C189.274 119.619 189.018 119.863 188.763 120.107C187.416 121.396 186.069 122.686 184.734 123.975C184.084 124.603 183.434 125.23 182.76 125.834C182.54 126.043 182.331 126.241 182.11 126.415L181.913 126.648C182.18 127.972 182.296 129.343 182.389 130.667C182.528 132.793 182.54 134.931 182.412 137.057C182.133 141.413 181.228 145.712 179.858 149.859C178.325 154.46 176.224 158.84 173.867 163.08C171.638 167.088 169.258 171.026 166.727 174.849L166.982 174.872C173.008 168.285 180.845 163.231 189.1 159.932ZM171.034 176.161C171.069 176.15 171.104 176.15 171.139 176.138L171.092 175.941L171.069 175.952C171.046 176.034 171.046 176.103 171.034 176.161ZM164.776 94.7806C163.963 93.9442 163.116 93.0729 162.384 92.1435C157.938 100.009 150.542 105.968 142.125 109.244C139.652 110.209 137.086 110.941 134.485 111.487C138.467 111.916 142.438 112.881 146.014 114.705C146.026 114.705 146.026 114.716 146.037 114.716C146.177 114.635 146.328 114.565 146.467 114.484C146.954 114.228 147.454 113.984 147.941 113.74C148.475 113.485 148.998 113.229 149.532 112.985C149.764 112.881 150.124 112.706 150.461 112.683C150.89 112.474 151.32 112.277 151.738 112.079C153.282 111.359 154.861 110.708 156.463 110.116C159.644 108.954 162.919 108.025 166.227 107.328C171.115 106.294 176.131 105.875 181.123 106.073C176.317 103.993 171.824 101.147 167.911 97.7547C166.831 96.8021 165.775 95.8146 164.776 94.7806ZM162.373 87.845C162.663 87.1596 162.988 86.4044 163.255 85.6377C159.482 90.6448 154.629 94.9665 149.636 98.568C143.228 103.18 136.052 106.723 128.483 108.966C126.671 109.5 124.825 109.965 123.014 110.522C123.618 110.476 124.21 110.488 124.825 110.604C124.918 110.627 125.011 110.662 125.092 110.697C125.777 110.673 126.474 110.65 127.159 110.604C129.539 110.453 131.908 110.139 134.241 109.651C143.855 107.63 152.783 102.471 158.623 94.4554C160.12 92.4107 161.386 90.1917 162.373 87.845ZM163.65 133.978C163.766 133.816 163.905 133.653 164.033 133.49C163.766 133.595 163.511 133.723 163.232 133.804C162.64 133.99 162.048 134.152 161.432 134.234C160.829 134.315 160.271 134.315 159.668 134.257C159.726 134.606 159.772 134.954 159.819 135.303C159.993 136.848 160.004 138.393 159.958 139.938C161.038 137.87 162.28 135.872 163.65 133.978ZM158.82 147.768C158.669 148.349 158.507 148.988 158.321 149.639C157.949 151.184 157.671 152.752 157.555 154.355C157.206 159.339 158.205 164.532 160.585 168.947C161.432 169.923 162.257 170.922 163.069 171.933C162.175 170.004 161.572 167.901 161.177 165.88C160.55 162.627 160.504 159.269 161.003 155.993C161.525 152.555 162.651 149.337 164.358 146.304C166.425 142.633 169.107 139.38 171.475 135.918C173.971 132.27 176.119 128.332 176.642 123.883C176.665 123.72 176.723 123.592 176.804 123.476C176.177 123.604 175.539 123.987 174.958 124.475C171.963 127.019 169.269 130.098 166.831 133.165C163.371 137.498 160.434 142.436 158.82 147.768ZM161.189 133.374C161.769 133.258 162.338 133.13 162.907 132.944C163.453 132.758 163.987 132.538 164.509 132.282C164.776 132.154 165.032 131.992 165.287 131.841C167.458 129.099 169.861 126.531 172.369 124.103C172.845 123.639 173.356 123.151 173.89 122.709C171.371 123.917 168.851 125.149 166.367 126.427C163.836 127.716 161.316 129.029 158.797 130.33C159.134 131.434 159.401 132.549 159.598 133.688C160.12 133.595 160.655 133.479 161.189 133.374ZM186.185 115.309C187.544 114.681 188.914 114.054 190.272 113.438C190.562 113.311 190.853 113.183 191.143 113.055C191.352 112.73 191.561 112.381 191.723 112.033C190.644 112.625 189.541 113.206 188.426 113.74C185.884 114.949 183.294 116.064 180.682 117.098C175.539 119.143 170.268 120.862 164.904 122.244C163.429 122.628 161.943 122.988 160.446 123.325C159.656 123.511 158.867 123.673 158.065 123.848C157.427 123.987 156.742 124.068 156.103 124.243C157.113 125.939 157.926 127.74 158.553 129.633C167.458 124.324 176.804 119.665 186.185 115.309ZM181.309 124.591C183.805 121.722 186.302 118.841 188.798 115.971C188.531 116.087 188.252 116.203 187.985 116.32C185.512 117.377 183.051 118.457 180.612 119.572C179.335 120.153 178.07 120.757 176.793 121.362C176.886 121.35 176.978 121.327 177.071 121.327C179.138 121.245 180.578 122.802 181.309 124.591ZM177.42 107.711C170.883 107.711 164.289 108.675 158.089 110.766C156.312 111.359 154.571 112.044 152.864 112.799C152.179 113.101 151.506 113.438 150.832 113.787C150.6 113.973 150.287 114.101 150.078 114.194C149.927 114.263 149.764 114.321 149.613 114.391C149.021 114.681 148.417 114.972 147.802 115.216L147.581 115.239C147.465 115.286 147.361 115.332 147.245 115.379C148.661 116.203 149.973 117.168 151.181 118.236C156.997 116.97 162.895 116.052 168.735 114.844C174.633 113.624 180.508 112.265 186.348 110.836C188.043 110.418 189.738 109.942 191.445 109.488C191.375 109.407 191.317 109.314 191.282 109.221C189.947 108.919 188.6 108.664 187.254 108.454C184.003 107.943 180.705 107.711 177.42 107.711ZM188.055 111.673C185.094 112.358 182.145 113.043 179.173 113.694C173.194 115.007 167.191 116.215 161.177 117.342C158.112 117.923 155.035 118.504 151.935 118.933C153.201 120.165 154.339 121.524 155.325 122.988C155.349 122.988 155.36 122.976 155.383 122.976C156.753 122.976 158.228 122.523 159.563 122.256C160.922 121.989 162.268 121.687 163.615 121.373C166.309 120.723 168.979 120.002 171.615 119.177C176.862 117.551 181.994 115.611 186.998 113.334C188.682 112.567 190.388 111.8 192.072 111.01C192.083 110.929 192.083 110.836 192.095 110.755C190.737 111.068 189.378 111.359 188.055 111.673ZM194.881 114.275C194.58 114.554 194.289 114.844 193.987 115.123C193.152 116.424 192.339 117.748 191.573 119.096C189.634 122.535 187.973 126.148 186.592 129.842C184.142 136.383 182.377 143.714 184.421 150.614C185.349 153.763 186.998 156.435 189.239 158.677C188.844 152.485 189.204 146.246 189.889 140.089C190.609 133.618 191.735 127.182 193.302 120.862C193.755 119.061 194.231 117.261 194.765 115.471C194.916 114.972 195.056 114.461 195.207 113.95C195.102 114.077 194.986 114.17 194.881 114.275ZM180.404 132.096C179.068 135.756 176.665 139.194 175.005 142.505C171.742 148.988 169.176 155.784 167.423 162.836C166.564 166.298 165.984 169.807 165.38 173.315C167.238 170.295 169.176 167.332 170.941 164.242C172.961 160.71 174.831 157.074 176.386 153.31C179.161 146.56 180.694 139.38 180.404 132.096ZM166.227 164.439C166.994 160.954 167.957 157.515 169.084 154.135C170.221 150.742 171.475 147.396 172.961 144.143C174.378 141.042 176.026 138.079 177.571 135.035C178.836 132.538 179.951 129.831 179.928 127.019C179.742 126.078 179.451 125.16 178.906 124.394C178.732 124.15 178.546 123.964 178.36 123.824C178.372 123.894 178.383 123.964 178.372 124.057C177.292 132.003 171.44 137.893 167.063 144.19C164.939 147.234 163.209 150.498 162.28 154.1C161.444 157.306 161.293 160.698 161.711 163.986C161.943 165.833 162.35 167.657 162.942 169.423C163.429 170.864 164.068 172.223 164.73 173.594C165.008 170.515 165.554 167.448 166.227 164.439ZM154.698 162.743C155.546 163.533 156.359 164.358 157.16 165.194C156.254 162.522 155.778 159.699 155.685 156.876C155.662 156.191 155.709 155.529 155.732 154.855C154.826 155.773 153.654 156.342 152.109 156.214C150.17 156.051 148.371 155.052 146.676 154.181C144.656 153.147 142.682 152.02 140.755 150.812C136.865 148.372 133.185 145.572 129.783 142.471C129.469 142.18 129.156 141.878 128.842 141.576C128.993 142.064 129.098 142.575 129.202 143.075C129.388 144.004 129.516 144.945 129.609 145.898C129.76 147.431 129.771 149.034 129.597 150.591C130.642 150.638 131.687 150.742 132.709 150.905C141.138 152.253 148.568 156.969 154.698 162.743ZM117.615 128.506C117.697 128.971 117.801 129.436 117.871 129.9C118.66 134.768 119.032 139.694 118.997 144.631C118.974 147.245 118.788 149.848 118.463 152.438C121.54 151.207 124.872 150.58 128.204 150.568C128.366 149.058 128.471 147.559 128.413 146.026C128.378 145.119 128.285 144.213 128.146 143.319C128.007 142.401 127.774 141.495 127.728 140.577L127.74 140.519C124.732 137.591 121.946 134.431 119.438 131.062C118.823 130.226 118.208 129.366 117.615 128.506ZM146.397 159.548C144.087 157.91 141.602 156.516 139.013 155.401C137.26 154.646 135.449 154.03 133.603 153.565C132.651 153.321 131.687 153.112 130.723 152.915C129.969 152.764 129.098 152.636 128.39 152.299C126.695 152.276 125 152.404 123.304 152.729C122.875 152.81 122.457 152.903 122.039 153.008C125.557 152.706 129.156 153.112 132.569 154.007C140.035 155.947 146.444 160.571 152.469 165.252C152.376 165.136 152.284 165.02 152.191 164.916C150.449 162.941 148.371 161.314 146.397 159.548ZM155.082 169.11C151.831 166.461 148.568 163.824 145.097 161.465C138.932 157.271 131.873 153.74 124.268 153.658C122.26 153.635 120.251 153.856 118.312 154.332C116.791 155.006 115.351 155.854 114.028 156.865C116.907 157.051 119.798 157.48 122.631 157.933C126.346 158.526 130.038 159.328 133.661 160.362C141.033 162.464 148.115 165.369 154.803 169.144C155.105 169.319 155.407 169.505 155.72 169.679L155.627 169.539C155.43 169.388 155.256 169.249 155.082 169.11ZM155.349 171.131C152.086 169.191 148.696 167.46 145.236 165.915C138.363 162.859 131.269 160.478 123.885 158.991C120.332 158.27 116.768 157.899 113.18 157.527C119.194 161.953 125.835 165.462 132.929 167.832C139.953 170.178 147.198 171.096 154.489 172.165C155.639 172.328 156.788 172.525 157.926 172.734C157.079 172.177 156.219 171.654 155.349 171.131ZM117.627 152.764C118.033 143.412 117.395 134.094 115.166 124.986C115.038 127.519 114.736 130.051 114.411 132.538C113.9 136.429 113.227 140.31 112.658 144.202C112.043 148.361 111.52 152.566 111.334 156.772C111.392 156.772 111.45 156.772 111.508 156.783C111.532 156.76 111.532 156.737 111.555 156.725C113.354 155.041 115.421 153.74 117.627 152.764ZM127.658 138.451C133.707 144.527 140.789 149.627 148.499 153.368C149.764 153.984 151.366 154.808 152.852 154.669C151.587 153.96 150.368 153.101 149.172 152.299C147.674 151.3 146.188 150.266 144.737 149.197C141.823 147.059 139.001 144.806 136.261 142.447C130.886 137.812 125.87 132.723 121.273 127.321C119.461 125.195 117.662 123.011 116.002 120.734C115.978 120.839 115.955 120.955 115.944 121.059C116.083 121.571 116.234 122.082 116.373 122.605C116.559 123.36 116.721 124.115 116.896 124.87C117.673 126.125 118.475 127.356 119.334 128.564C121.818 132.084 124.616 135.395 127.658 138.451ZM120.913 125.637C123.188 128.367 125.58 131.016 128.065 133.56C133.011 138.614 138.433 143.237 144.122 147.408C145.701 148.57 147.303 149.697 148.928 150.789C150.635 151.927 152.493 152.915 154.118 154.158C154.141 154.169 154.153 154.193 154.164 154.216C155.082 153.612 155.639 152.496 156.045 151.37C156.394 149.081 156.997 146.85 157.81 144.678C157.694 144.724 157.555 144.736 157.392 144.655C151.401 141.762 145.492 138.637 139.837 135.128C134.172 131.62 128.668 127.879 123.246 123.999C120.913 122.326 118.637 120.583 116.408 118.782C116.35 119.026 116.28 119.259 116.222 119.503C116.211 119.538 116.211 119.572 116.199 119.619C117.766 121.652 119.287 123.685 120.913 125.637ZM130.665 128.32C136.18 131.98 141.916 135.291 147.732 138.451C151.041 140.252 154.408 141.959 157.81 143.586C157.891 143.632 157.961 143.679 158.019 143.737C158.321 141.808 158.483 139.857 158.414 137.905C158.274 133.664 157.16 129.447 155.128 125.753C153.909 125.207 152.736 124.51 151.54 123.917C150.24 123.29 148.928 122.686 147.616 122.117C144.934 120.943 142.183 119.933 139.373 119.073C133.823 117.365 128.088 116.215 122.306 115.646C120.843 115.506 119.299 115.413 117.813 115.576C117.499 116.076 117.209 116.587 116.977 117.121C116.838 117.446 116.721 117.783 116.617 118.12C121.203 121.652 125.835 125.114 130.665 128.32ZM120.204 114.647C123.2 114.705 126.219 115.065 129.168 115.53C135.182 116.471 141.08 118.213 146.734 120.455C148.29 121.071 149.822 121.745 151.332 122.465C152.156 122.86 153.015 123.255 153.851 123.685C152.144 121.211 149.985 119.061 147.372 117.423C143.413 114.937 138.746 113.752 134.137 113.276C131.664 113.02 129.168 112.962 126.683 113.009C124.407 113.043 122.143 113.229 119.868 113.194C119.334 113.648 118.858 114.159 118.428 114.716C119.02 114.647 119.624 114.635 120.204 114.647ZM118.057 110.952C118.742 110.615 119.438 110.325 120.123 110.069C121.876 109.419 123.688 108.977 125.499 108.524C129.388 107.56 133.173 106.282 136.83 104.644C144.087 101.414 150.763 96.9183 156.51 91.4464C159.134 88.9487 161.502 86.2302 163.824 83.4652C163.871 83.1864 163.894 82.9076 163.905 82.6287C151.529 91.9344 135.321 94.5948 123.258 104.505C121.017 106.34 118.962 108.42 117.197 110.732C117.476 110.824 117.755 110.906 118.057 110.952ZM181.843 101.705C177.443 98.8933 173.31 95.6752 169.513 92.097C168.468 91.1211 167.446 90.1104 166.46 89.0765C165.902 88.4956 165.264 87.8915 164.683 87.2525C164.498 87.7288 164.312 88.1935 164.114 88.6582C163.801 89.4018 163.441 90.1336 163.081 90.8539C163.836 91.6672 164.532 92.5501 165.299 93.3517C166.204 94.316 167.145 95.2337 168.12 96.1283C170.001 97.8361 172.009 99.3928 174.134 100.799C177.513 103.041 181.158 104.818 184.966 106.189C186.174 106.294 187.358 106.526 188.577 106.665C189.239 106.747 189.982 106.758 190.69 106.665C187.613 105.236 184.653 103.505 181.843 101.705ZM196.472 115.39C195.973 116.935 195.497 118.492 195.056 120.049C194.162 123.162 193.372 126.311 192.71 129.482C191.375 135.802 190.562 142.227 190.203 148.674C190.005 152.206 189.936 155.738 189.843 159.269C189.947 159.362 190.052 159.455 190.156 159.548C191.573 159.014 193.012 158.526 194.464 158.084C195.462 152.055 196.6 146.049 197.354 139.984C198.063 134.269 198.817 128.39 198.504 122.616C198.446 121.524 198.318 120.432 198.156 119.34C197.54 117.737 197.099 116.076 196.844 114.345C196.704 114.681 196.577 115.03 196.472 115.39ZM194.998 157.91C196.6 157.434 198.202 157.004 199.827 156.656C199.874 156.458 200.048 156.284 200.303 156.295C200.524 153.902 201.105 151.521 201.36 149.127C201.65 146.502 201.801 143.865 201.824 141.227C201.848 135.942 201.314 130.656 200.164 125.497C200.129 125.335 200.083 125.184 200.048 125.021C200.025 126.496 199.944 127.984 199.816 129.447C199.27 135.732 198.202 142.029 197.087 148.233C196.495 151.486 195.822 154.704 194.998 157.91ZM204.634 151.706C205.447 149.546 206.085 147.303 206.538 145.038C206.979 142.784 207.293 140.496 207.409 138.195C207.49 136.534 207.479 134.873 207.49 133.211C207.061 132.572 206.689 131.899 206.399 131.19C204.448 129.285 202.649 127.228 201.139 124.998C201.639 127.391 202.033 129.819 202.312 132.247C202.916 137.533 202.974 142.889 202.428 148.186C202.277 149.697 202.08 151.195 201.824 152.694C201.627 153.867 201.43 155.076 201.081 156.226C203.102 155.819 203.972 153.496 204.634 151.706ZM192.443 160.42C185.617 162.801 179.231 166.275 173.565 170.713C173.646 170.771 173.716 170.829 173.786 170.91C175.4 169.969 177.037 169.086 178.697 168.261C182.737 166.252 186.917 164.532 191.166 163.045C195.485 161.535 199.897 160.28 204.344 159.2C208.651 158.154 213.04 157.213 217.475 156.958C209.011 156.412 200.443 157.631 192.443 160.42ZM219.251 158.282C214.654 158.317 210.126 159.293 205.644 160.257C197.053 162.116 188.519 164.567 180.554 168.32C178.279 169.388 176.096 170.585 173.937 171.851C173.879 171.967 173.786 172.072 173.658 172.177C173.252 172.467 172.985 172.862 172.822 173.303C175.388 172.246 177.954 171.212 180.531 170.202C184.792 168.529 189.076 166.925 193.442 165.508C201.43 162.917 209.661 160.849 218.021 159.908C221.086 159.56 224.174 159.386 227.262 159.362C224.662 158.654 221.991 158.259 219.251 158.282ZM226.67 169.051C228.203 167.332 230.049 165.531 230.908 163.359C231.245 162.522 231.384 161.605 231.036 160.757C214.259 159.943 197.877 164.625 182.284 170.399C179.057 171.596 175.864 172.897 172.648 174.14C172.613 174.686 172.718 175.255 172.927 175.766C178.557 174.663 184.247 173.838 189.936 173.176C197.227 172.316 204.553 171.793 211.879 171.584C216.012 171.456 220.157 171.456 224.29 171.572C225.114 170.748 225.904 169.911 226.67 169.051ZM193.837 184.305C197.308 184.689 200.826 184.584 204.239 183.875C197.32 182.702 190.319 182.075 183.306 181.889C186.731 183.027 190.237 183.91 193.837 184.305ZM176.549 179.298C178.198 180.007 179.858 180.669 181.541 181.285C189.889 181.029 198.237 181.773 206.445 183.318C206.933 183.178 207.409 183.027 207.885 182.865C209.87 182.156 211.774 181.25 213.586 180.193C203.392 178.194 192.815 177.602 182.47 178.311C180.299 178.462 178.14 178.682 175.98 178.938C176.166 179.054 176.363 179.182 176.549 179.298ZM175.214 178.404C185.338 176.812 195.636 176.603 205.807 177.881C208.837 178.264 211.832 178.822 214.828 179.449C217.034 178.055 219.112 176.44 221.063 174.698C221.782 174.059 222.467 173.385 223.152 172.711C208.86 172.595 194.591 173.454 180.438 175.58C178.105 175.929 175.783 176.324 173.472 176.731C173.948 177.37 174.552 177.916 175.214 178.404ZM207.421 226.198C208.314 224.397 207.258 222.19 206.538 220.517C202.451 211.049 197.621 201.766 190.853 193.925C186.034 188.337 180.276 183.678 173.693 180.495C172.334 180.135 170.964 179.821 169.571 179.612C169.745 179.891 169.919 180.169 170.094 180.437C171.382 181.563 172.671 182.69 173.913 183.875C177.118 186.908 180.136 190.149 183.039 193.46C188.867 200.105 194.069 207.285 198.655 214.836C201.197 219.018 203.531 223.328 205.667 227.731C206.41 227.429 207.049 226.942 207.421 226.198ZM204.332 228.092C204.448 228.068 204.576 228.057 204.692 228.034C196.855 212.501 186.603 198.153 174.401 185.757C173.519 184.863 172.636 183.968 171.754 183.085C174.784 187.883 177.814 192.693 180.845 197.491C185.349 204.601 189.715 211.897 194.963 218.507C197.772 222.027 200.884 225.21 204.332 228.092ZM203.868 228.161C197.575 223.317 192.722 216.672 188.287 210.189C183.422 203.091 178.674 195.923 173.971 188.732C171.94 185.618 169.908 182.505 167.911 179.368C167.679 179.356 167.447 179.356 167.226 179.379C168.561 181.587 169.769 183.875 170.918 186.152C172.996 190.3 174.854 194.563 176.828 198.769C180.682 206.971 185.036 215.15 191.84 221.307C195.079 224.246 198.771 226.512 202.776 228.208C203.136 228.208 203.496 228.196 203.868 228.161ZM167.644 191.264C168.584 195.853 169.931 200.361 171.858 204.647C175.516 212.791 181.39 219.936 189.227 224.328C192.826 226.337 196.832 227.673 200.93 228.092C193.999 225.443 188.298 219.646 184.119 213.732C178.72 206.088 175.063 197.456 170.872 189.138C169.687 186.791 168.457 184.479 167.156 182.202C166.831 181.633 166.483 181.064 166.123 180.506C166.251 181.796 166.367 183.085 166.529 184.375C166.82 186.687 167.179 188.987 167.644 191.264ZM131.617 230.636C133.928 229.497 136.192 228.266 138.386 226.93C146.769 221.783 154.315 214.883 158.867 206.053C160.98 201.964 162.454 197.526 163.023 192.949C163.545 188.697 162.942 184.34 163.638 180.123C163.441 180.332 163.255 180.541 163.058 180.75C160.097 187.57 156.695 194.192 152.992 200.628C148.626 208.214 143.831 215.684 138.247 222.434C135.193 226.117 131.757 229.509 127.763 232.158C129.11 232.076 130.758 231.066 131.617 230.636ZM126.056 231.24C126.091 231.298 126.091 231.356 126.126 231.414C126.137 231.426 126.137 231.426 126.149 231.437C126.195 231.321 126.277 231.217 126.416 231.124C133.777 226.419 139.118 219.367 144.04 212.28C148.963 205.182 153.549 197.816 157.531 190.16C158.797 187.721 160.016 185.258 161.212 182.795C159.83 184.352 158.472 185.92 157.137 187.512C154.199 191.009 151.355 194.587 148.545 198.2C145.747 201.813 142.995 205.461 140.232 209.12C137.631 212.571 134.973 215.986 132.488 219.53C129.899 223.189 127.565 227 126.056 231.24ZM156.138 183.085C151.819 186.362 147.639 189.847 143.773 193.646C136.819 200.488 130.921 208.597 127.821 217.938C127.078 220.168 126.509 222.457 126.137 224.781C125.963 225.896 125.824 227.011 125.743 228.138C125.685 228.858 125.615 229.718 125.777 230.485C128.227 222.841 133.533 216.393 138.212 210.015C143.692 202.556 149.276 195.191 155.047 187.965C156.637 185.978 158.251 184.003 159.877 182.04C160.887 180.832 161.897 179.589 162.942 178.392C162.628 178.543 162.315 178.706 162.013 178.891C159.958 180.111 158.054 181.645 156.138 183.085ZM157.067 175.673C157.218 175.604 157.357 175.534 157.497 175.464C157.764 175.197 157.961 174.872 158.124 174.523C157.137 174.326 156.15 174.14 155.163 173.977C151.471 173.338 147.756 172.839 144.075 172.153C136.749 170.771 129.713 168.261 123.142 164.741C120.03 163.068 117.047 161.175 114.214 159.072C118.126 165.345 124.28 169.911 131.141 172.525C138.166 175.197 145.863 175.778 153.317 175.778C154.571 175.766 155.813 175.708 157.067 175.673ZM132.511 177.497C136.331 179.252 140.441 179.984 144.621 179.496C147.744 179.135 150.774 178.264 153.804 177.474C150.101 177.451 146.386 177.265 142.717 176.719C135.147 175.592 127.623 172.92 121.528 168.203C120.669 167.541 119.845 166.832 119.067 166.089C122.736 170.806 127.02 174.976 132.511 177.497ZM121.273 171.131C117.453 167.146 114.388 162.522 111.427 157.887C111.369 157.794 111.323 157.701 111.299 157.608C111.207 160.396 111.276 163.196 111.601 165.973C112.066 170.004 113.157 173.861 114.608 177.637C114.62 177.648 114.608 177.66 114.608 177.683C116.965 175.627 118.788 173.036 121.273 171.131ZM114.074 178.136C114.156 178.067 114.237 177.997 114.318 177.927C114.272 177.904 114.225 177.881 114.19 177.823C110.777 171.654 110.173 164.033 110.336 157.097C110.522 149.476 111.926 141.948 112.809 134.396C113.285 130.365 113.447 126.357 113.54 122.314C113.308 123.464 113.018 124.603 112.762 125.73C112.298 127.716 111.845 129.715 111.404 131.713C110.545 135.616 109.744 139.543 109.012 143.481C107.573 151.288 106.562 159.211 106.458 167.146C106.4 171.572 106.69 175.999 107.317 180.39C109.744 180.797 112.228 179.612 114.074 178.136ZM102.824 150.022C101.872 155.273 101.396 160.606 101.419 165.938C101.431 168.633 101.431 171.41 101.976 174.059C102.476 176.487 103.811 179.054 106.168 180.053C104.031 164.3 106.33 148.407 109.883 133.037C110.382 130.865 110.905 128.704 111.439 126.531C111.671 125.579 111.903 124.603 112.147 123.639C111.497 124.812 110.881 125.997 110.301 127.205C109.117 129.622 108.049 132.096 107.097 134.606C105.216 139.601 103.776 144.759 102.824 150.022ZM80.1608 141.495C84.1199 141.925 88.1603 142.064 92.0497 141.1C99.4106 139.287 104.101 133.49 108.141 127.414C108.768 126.09 109.407 124.777 110.104 123.476C110.173 123.348 110.231 123.232 110.301 123.104C106.98 126.345 102.545 128.506 98.1567 129.912C91.3995 132.073 84.2824 132.723 77.5021 134.757C73.9145 135.825 70.4779 137.301 67.4709 139.543C71.6737 140.298 75.8999 141.03 80.1608 141.495ZM60.0751 137.824C61.8631 138.753 64.069 138.974 66.0776 139.299C66.0544 139.113 66.1125 138.927 66.3214 138.788C71.8827 134.977 78.4541 133.246 84.9791 131.933C91.8291 130.551 98.9345 129.459 105.088 125.95C107.247 124.719 109.244 123.174 110.974 121.373C105.111 124.231 98.8765 126.299 92.4676 127.472C88.6711 128.169 84.8513 128.483 80.9968 128.669C77.0725 128.855 73.125 128.936 69.2704 129.784C65.1836 130.679 61.1897 132.48 58.2175 135.488C58.4381 136.453 59.0418 137.289 60.0751 137.824ZM59.0302 131.446C58.6819 132.119 58.3917 132.805 58.2291 133.548C58.1479 133.92 58.113 134.292 58.1246 134.652C63.0706 129.308 70.9655 128.193 77.92 127.716C81.9024 127.449 85.873 127.321 89.8205 126.706C93.7216 126.09 97.5762 125.16 101.326 123.894C103.149 123.278 104.937 122.581 106.702 121.815C102.22 122.942 97.46 123.093 92.8624 122.976C84.8862 122.767 76.5965 121.745 68.9105 124.487C67.5521 124.975 66.2518 125.579 65.0095 126.276C64.4986 126.671 63.9645 127.054 63.4653 127.472C61.9328 128.739 60.5047 130.121 59.0302 131.446ZM65.4042 124.057C64.3941 124.87 63.4421 125.753 62.5597 126.694C64.0342 125.416 65.6132 124.231 67.169 123.151C70.0367 121.164 73.1018 119.456 76.3062 118.085C72.3935 119.491 68.6899 121.408 65.4042 124.057ZM68.8989 123.522C68.806 123.58 68.7131 123.65 68.6202 123.708C71.4764 122.698 74.5066 122.117 77.4208 121.849C85.3042 121.094 93.2456 122.291 101.117 121.292C104.833 120.827 108.49 119.863 111.787 118.074C97.4949 113.531 81.6121 115.483 68.8989 123.522ZM79.65 94.6412C82.3784 101.949 86.8947 108.617 93.6519 112.416C95.881 112.207 98.1219 112.102 100.339 112.195C102.267 112.277 104.194 112.532 106.052 113.009C100.525 109.732 94.6736 106.979 89.4374 103.238C84.6656 99.8227 80.811 95.4661 78.2219 90.3195C78.6631 91.7717 79.1159 93.2123 79.65 94.6412ZM79.023 73.8343C78.3729 73.4277 77.6879 73.1721 76.9912 72.9281C76.6894 73.1372 76.4223 73.3812 76.2017 73.6368C75.7257 80.7932 77.6994 88.0425 81.7514 93.9675C86.2794 100.601 93.1643 104.702 100.014 108.571C102.778 110.139 105.529 111.731 108.141 113.508C108.188 113.496 108.234 113.473 108.269 113.45C106.911 112.219 105.61 110.929 104.345 109.616C101.651 106.84 99.0739 103.959 96.717 100.891C92.0149 94.7574 88.1138 88.2051 84.7236 81.2695C83.76 79.3061 82.7383 77.3311 81.2522 75.7163C80.5904 74.996 79.8473 74.3571 79.023 73.8343ZM78.9417 72.5912C79.6268 72.9513 80.2769 73.3928 80.811 73.8459C82.1694 74.996 83.2259 76.4366 84.1083 77.9701C85.0719 79.643 85.8498 81.4205 86.6858 83.1515C87.5333 84.8942 88.4505 86.5903 89.4258 88.2748C93.3617 95.1292 98.2495 101.403 103.788 107.026C105.343 108.606 106.98 110.093 108.652 111.545C109.024 111.87 109.407 112.184 109.778 112.497C109.79 112.486 109.802 112.474 109.813 112.451C108.641 110.046 107.514 107.63 106.353 105.236C104.473 101.379 102.627 97.4992 100.757 93.6305C99.0042 89.9943 97.344 86.2766 95.3354 82.7682C93.4661 79.5153 91.1325 76.4134 87.8816 74.4384C85.2345 72.8352 81.9952 72.0103 78.9417 72.5912ZM98.4586 77.9817C95.5908 75.484 92.2703 73.5439 88.6131 72.4634C87.0108 71.9987 85.3622 71.7199 83.6903 71.6386C87.9513 72.4983 91.8291 75.7047 94.3253 79.19C96.7867 82.6171 98.5398 86.509 100.421 90.2731C102.464 94.3624 104.507 98.4402 106.562 102.518C107.979 105.329 109.43 108.141 110.835 110.975C111.044 110.522 111.207 110.046 111.323 109.558C111.52 107.827 111.578 106.085 111.497 104.342C111.416 102.599 111.207 100.857 110.87 99.1489C110.8 98.7771 110.707 98.3937 110.626 98.022C108.362 90.5519 104.391 83.1632 98.4586 77.9817ZM158.414 77.4241C156.301 76.7967 154.153 76.2972 151.982 75.9603C143.425 74.6127 134.114 75.4956 126.59 80.0845C119.485 84.4178 114.179 91.9692 113.227 100.322L113.215 100.473C113.227 100.543 113.238 100.613 113.25 100.682C113.772 102.82 114.167 104.992 114.411 107.177C114.446 107.49 114.469 107.816 114.504 108.129C114.585 108.28 114.666 108.42 114.759 108.571C116.663 101.774 120.715 95.6868 126.056 91.0631C129.133 88.4027 132.639 86.2534 136.412 84.7315C140.313 83.1631 144.493 82.3615 148.615 81.6412C152.945 80.8861 157.171 80.0032 161.27 78.4697C160.329 78.005 159.308 77.6913 158.414 77.4241ZM138.792 85.08C131.141 87.5546 124.512 92.8173 120.077 99.4974C118.045 102.553 116.454 105.899 115.375 109.407C115.688 109.756 116.036 110.058 116.42 110.302C120.054 105.283 125.174 101.437 130.549 98.3472C137.748 94.2114 145.573 91.3767 152.957 87.601C156.73 85.6725 160.341 83.4536 163.673 80.828C163.511 80.3866 163.278 80.0032 162.977 79.6779C155.395 83.1515 146.641 82.5474 138.792 85.08ZM161.026 76.3553C161.223 76.4366 161.421 76.4947 161.607 76.576C162.083 76.7852 162.524 77.0291 162.953 77.3079C162.326 75.9022 161.804 74.45 161.444 72.963C161.235 74.0899 161.119 75.24 161.026 76.3553ZM168.735 65.7253C166.1 65.7485 163.754 66.98 162.57 69.3848C162.442 69.652 162.326 69.9192 162.222 70.1864C162.326 70.2793 162.408 70.4071 162.442 70.593C163.406 77.0988 167.017 82.6984 171.452 87.4152C176.27 92.5385 181.959 96.9648 187.567 101.182C189.471 102.611 191.398 104.005 193.349 105.387C193.43 105.295 193.5 105.202 193.558 105.109C185.454 96.3839 178.766 86.4742 173.403 75.8209C172.578 74.1828 171.789 72.5331 171.011 70.8835C170.628 70.0818 170.279 69.257 169.931 68.4438C169.571 67.6189 169.107 66.8173 169.165 65.8995C169.165 65.8414 169.2 65.795 169.223 65.7485C169.06 65.7485 168.898 65.7137 168.735 65.7253ZM193.802 96.5001C192.513 92.4107 190.679 88.4724 188.728 84.6967C186.452 80.3052 184.119 75.7512 180.821 72.022C178.128 68.9665 174.413 66.3294 170.291 65.8182C170.639 66.2597 170.813 66.736 171.034 67.3052C171.336 68.0836 171.661 68.862 171.974 69.6404C172.601 71.1506 173.24 72.6493 173.925 74.1247C175.283 77.0291 176.735 79.8986 178.314 82.6984C181.518 88.3794 185.21 93.8048 189.239 98.9398C190.737 100.857 192.281 102.739 193.848 104.597C194.394 103.447 194.382 102.007 194.231 100.775C194.069 99.3463 193.802 97.9406 193.802 96.5001ZM225.73 63.7038C217.15 67.282 209.708 73.4625 204.68 81.2927C201.348 86.4858 199.224 92.2713 198.144 98.2892C198.388 98.4402 198.574 98.6958 198.574 99.0675C198.492 100.113 198.852 101.054 199.444 101.844C202.66 95.9192 206.306 90.215 210.114 84.685C214.665 78.0747 219.333 71.2901 225.312 65.8647C226.763 64.5519 228.354 63.2856 230.026 62.1819C228.574 62.6118 227.135 63.1113 225.73 63.7038ZM239.128 61.8101C238.164 61.2525 237.108 61.0434 236.028 61.0202C232.8 62.3794 229.863 64.1104 227.17 66.3874C224.313 68.8155 221.782 71.6037 219.414 74.4965C214.143 80.9094 209.29 87.6591 204.855 94.6761C203.218 97.2668 201.65 99.8924 200.083 102.53C200.187 102.622 200.292 102.715 200.396 102.797C204.634 98.5215 208.965 94.3276 213.191 90.0407C218.961 84.1855 224.662 78.2722 230.351 72.3472C233.532 69.0246 236.713 65.6904 239.906 62.3794C239.662 62.1703 239.418 61.9728 239.128 61.8101ZM241.404 67.4331C241.543 65.8995 241.38 64.4241 240.637 63.2623C229.642 75.3213 218.102 86.8691 206.457 98.2892C204.727 99.9853 202.985 101.681 201.232 103.366C201.592 103.564 201.952 103.738 202.335 103.866C202.44 103.9 202.556 103.912 202.66 103.947C207.734 100.926 212.645 97.6618 217.278 93.9558C223.257 89.1694 228.772 83.744 233.578 77.7726C234.937 76.0765 236.295 74.3803 237.595 72.6261C238.861 70.8835 240.022 69.0711 241.404 67.4331ZM239.825 73.5322C240.161 72.5796 240.568 71.4178 240.893 70.1748C240.336 71.0112 239.743 71.8245 239.14 72.6493C237.967 74.2409 236.76 75.8093 235.494 77.3312C233.067 80.2588 230.444 83.047 227.75 85.719C222.189 91.2141 216.14 96.198 209.626 100.531C207.722 101.798 205.772 103.006 203.787 104.144C205.215 104.284 206.677 104.04 208.106 103.68C213.423 101.705 218.497 99.0792 223.059 95.7101C230.595 90.122 236.702 82.4196 239.825 73.5322ZM243.052 126.427C243.041 126.415 243.041 126.404 243.041 126.392C239.093 118.678 232.301 112.253 224.244 109.001C223.059 108.524 221.84 108.118 220.61 107.757C218.81 107.827 216.999 107.513 215.199 107.432C213.04 107.328 210.857 107.397 208.721 107.769C208.373 107.827 208.024 107.932 207.688 108.025C207.908 108.059 208.129 108.094 208.349 108.141C211.612 108.722 214.828 109.581 217.951 110.662C224.255 112.834 230.246 115.983 235.61 119.944C238.269 121.896 240.753 124.068 243.052 126.427ZM245.908 138.335C246.651 136.429 246.025 134.234 245.456 132.363C245.026 130.958 244.48 129.587 243.877 128.251C243.656 128.379 243.354 128.402 243.134 128.158C234.054 118.713 222.258 112.068 209.406 109.43C208.082 109.163 206.759 108.931 205.424 108.745C205.145 108.849 204.866 108.931 204.588 109.059C204.332 109.221 204.088 109.407 203.845 109.593C205.331 110.197 206.805 110.836 208.256 111.498C211.693 113.078 215.06 114.821 218.334 116.715C224.882 120.502 231.117 124.882 236.864 129.796C240.045 132.479 243.052 135.326 245.908 138.335ZM245.189 139.543C245.165 139.531 245.142 139.52 245.131 139.496C234.821 128.483 222.595 119.456 208.941 113.032C206.944 112.091 204.924 111.254 202.881 110.418C202.846 110.453 202.823 110.476 202.8 110.511C202.939 110.697 203.09 110.883 203.241 111.068C204.506 112.602 205.795 114.112 207.13 115.588C209.824 118.573 212.645 121.443 215.606 124.173C218.532 126.868 221.573 129.436 224.743 131.841C227.587 133.99 230.513 136.093 233.636 137.824C236.609 139.473 239.825 140.74 243.203 141.158C243.97 140.74 244.666 140.205 245.189 139.543ZM234.577 143.017C234.588 143.017 234.612 143.017 234.623 143.017C236.655 143.017 238.722 142.749 240.672 142.18C241.044 142.076 241.427 141.936 241.81 141.797C235.866 140.914 230.571 137.359 225.765 133.897C219.147 129.122 212.935 123.766 207.316 117.841C205.772 116.215 204.263 114.542 202.8 112.823C202.475 112.439 202.149 112.056 201.824 111.673C201.755 111.777 201.662 111.87 201.592 111.986C201.383 112.311 201.197 112.637 201.023 112.985C202.939 117.551 205.4 121.838 208.57 125.741C213.121 131.341 218.822 135.965 225.242 139.253C228.226 140.774 231.361 142.052 234.577 143.017ZM209.801 131.98C216.151 137.452 223.814 142.18 232.301 142.912C226.647 141.158 221.341 138.532 216.535 134.954C210.683 130.597 205.853 125.056 202.184 118.759C201.488 117.563 200.849 116.32 200.257 115.065C199.92 116.354 199.816 117.69 199.944 119.026C201.337 122.5 203.578 125.672 206.167 128.471C206.306 128.437 206.457 128.448 206.573 128.599C206.875 128.971 207.142 129.366 207.409 129.773C208.187 130.528 208.988 131.271 209.801 131.98ZM344.619 147.536C346.151 145.735 347.591 143.853 348.891 141.878C349.147 141.495 349.379 141.111 349.623 140.716C343.759 146.897 337.13 152.311 329.885 156.795C324.626 160.048 319.076 162.801 313.329 165.043C325.38 163.08 336.619 156.934 344.619 147.536ZM313.77 163.475C323.163 159.63 331.975 154.344 339.777 147.849C342.471 145.607 345.013 143.214 347.44 140.705C345.675 141.634 343.91 142.563 342.169 143.528C338.964 145.294 335.783 147.106 332.602 148.918C326.216 152.555 319.982 156.423 313.793 160.385C311.123 162.093 308.511 163.905 305.817 165.555C305.829 165.601 305.817 165.647 305.806 165.694C306.525 165.682 307.234 165.659 307.942 165.613C309.904 164.962 311.854 164.265 313.77 163.475ZM290.027 170.004C290.538 169.923 291.061 169.83 291.571 169.748C291.037 169.83 290.503 169.923 289.981 170.004C289.992 170.004 290.016 170.004 290.027 170.004ZM292.756 169.551C293.278 169.458 293.789 169.353 294.3 169.261C294.3 169.249 294.288 169.249 294.288 169.237C293.789 169.342 293.278 169.458 292.756 169.551ZM312.574 157.736C310.519 159.746 308.615 161.895 306.792 164.114C308.638 162.836 310.519 161.605 312.4 160.385C315.477 158.387 318.565 156.423 321.677 154.495C327.853 150.661 334.053 146.874 340.346 143.249C343.62 141.367 346.894 139.404 350.261 137.649C350.296 137.614 350.331 137.568 350.366 137.533C336.178 140.496 322.954 147.594 312.574 157.736Z" fill="#AECAC9"/>
</svg>
