<svg width="20" height="21" viewBox="0 0 20 21" fill="none" xmlns="http://www.w3.org/2000/svg">
<g clip-path="url(#clip0_1_2976)">
<path d="M6.2918 19.0314C13.8371 19.0314 17.9652 12.466 17.9652 6.77428C17.9652 6.58971 17.9613 6.40104 17.9535 6.21647C18.7566 5.60668 19.4496 4.85138 20 3.98604C19.2521 4.33543 18.458 4.56361 17.6449 4.6628C18.5011 4.12395 19.1421 3.27744 19.4492 2.2802C18.6438 2.78139 17.763 3.13494 16.8445 3.32569C16.2257 2.63527 15.4075 2.17813 14.5164 2.02495C13.6253 1.87177 12.711 2.03107 11.9148 2.47824C11.1186 2.9254 10.4848 3.63552 10.1115 4.4988C9.73825 5.36208 9.64619 6.33044 9.84961 7.25416C8.21874 7.16823 6.62328 6.72339 5.16665 5.94849C3.71002 5.17358 2.42474 4.08591 1.39414 2.75598C0.870333 3.70424 0.710047 4.82634 0.945859 5.89423C1.18167 6.96212 1.79589 7.89567 2.66367 8.50514C2.01219 8.48342 1.37498 8.29925 0.804688 7.96783V8.02116C0.804104 9.01628 1.13175 9.98092 1.73192 10.7511C2.3321 11.5212 3.16777 12.0494 4.09687 12.2458C3.49338 12.4191 2.85999 12.4444 2.2457 12.3196C2.50788 13.1754 3.01798 13.9239 3.70481 14.4607C4.39164 14.9975 5.22093 15.2957 6.07695 15.3137C4.62369 16.5124 2.82848 17.1625 0.980469 17.1594C0.652739 17.1589 0.325333 17.1378 0 17.0963C1.87738 18.3609 4.06128 19.0326 6.2918 19.0314Z" fill="#006A6D"/>
</g>
<defs>
<clipPath id="clip0_1_2976">
<rect width="20" height="21" fill="white"/>
</clipPath>
</defs>
</svg>
